<svg width="87" height="87" viewBox="0 0 87 87" fill="none" xmlns="http://www.w3.org/2000/svg">
<g clip-path="url(#clip0_116_16284)">
<path d="M85.8283 53.5276C91.3663 30.1502 76.9047 6.70974 53.5273 1.17172C30.15 -4.36629 6.70951 10.0953 1.1715 33.4726C-4.36651 56.85 10.0951 80.2905 33.4724 85.8285C56.8497 91.3665 80.2903 76.9049 85.8283 53.5276Z" fill="#FFCE00"/>
<path d="M63.3503 56.9954H23.6492C22.4748 56.9954 21.5222 56.0432 21.5222 54.8678C21.5222 53.6933 22.4748 52.7402 23.6492 52.7402H63.3503C64.5252 52.7402 65.4774 53.6933 65.4774 54.8678C65.4774 56.0432 64.5252 56.9954 63.3503 56.9954Z" fill="#562912"/>
<path d="M66.2602 36.0978C66.2602 38.6331 64.2048 40.6895 61.6678 40.6895C59.1309 40.6895 57.0756 38.6331 57.0756 36.0978C57.0756 33.5624 59.1315 31.5054 61.6678 31.5054C64.2042 31.5054 66.2602 33.5618 66.2602 36.0978Z" fill="#562912"/>
<path d="M29.923 36.0978C29.923 38.6331 27.8661 40.6895 25.3307 40.6895C22.7954 40.6895 20.7379 38.6331 20.7379 36.0978C20.7379 33.5624 22.7948 31.5054 25.3307 31.5054C27.8667 31.5054 29.923 33.5618 29.923 36.0978Z" fill="#562912"/>
</g>
<defs>
<clipPath id="clip0_116_16284">
<rect width="87" height="87" fill="white"/>
</clipPath>
</defs>
</svg>
