<svg width="900" height="1469" viewBox="0 0 900 1469" fill="none" xmlns="http://www.w3.org/2000/svg">
<path d="M174.831 5.88098L173.561 7.15137L603.053 436.847L604.323 435.577L174.831 5.88098Z" fill="url(#paint0_linear_104_69)"/>
<path d="M169.66 11.5319C167.023 8.8941 167.023 4.61608 169.66 1.97832C172.296 -0.65944 176.572 -0.65944 179.209 1.97832C181.846 4.61608 181.845 8.89405 179.209 11.5318C176.573 14.1695 172.296 14.1696 169.66 11.5319Z" fill="url(#paint1_linear_104_69)"/>
<path d="M598.675 440.75C601.311 443.388 605.587 443.388 608.224 440.75C610.86 438.112 610.86 433.834 608.224 431.196C605.587 428.559 601.311 428.559 598.675 431.196C596.038 433.834 596.038 438.112 598.675 440.75Z" fill="url(#paint2_linear_104_69)"/>
<path d="M514.656 421.463L468.253 375.038H414.175L320.862 281.681V227.563L165.325 71.9526L166.595 70.6823L322.658 226.819V280.937L414.919 373.241H468.996L515.926 420.193L514.656 421.463Z" fill="url(#paint3_linear_104_69)"/>
<path d="M161.424 76.3329C158.788 73.6951 158.788 69.4171 161.424 66.7793C164.061 64.1416 168.337 64.1416 170.973 66.7793C173.61 69.4171 173.61 73.695 170.973 76.3328C168.337 78.9705 164.061 78.9706 161.424 76.3329Z" fill="url(#paint4_linear_104_69)"/>
<path d="M510.278 425.366C512.915 428.004 517.191 428.004 519.827 425.366C522.464 422.729 522.464 418.451 519.827 415.813C517.191 413.175 512.915 413.175 510.278 415.813C507.642 418.45 507.642 422.729 510.278 425.366Z" fill="url(#paint5_linear_104_69)"/>
<path d="M366.728 246.484L365.458 247.755L442.041 324.373L443.31 323.103L366.728 246.484Z" fill="url(#paint6_linear_104_69)"/>
<path d="M361.557 252.135C358.921 249.497 358.921 245.219 361.557 242.582C364.194 239.944 368.47 239.944 371.106 242.582C373.743 245.219 373.743 249.497 371.106 252.135C368.47 254.773 364.194 254.773 361.557 252.135Z" fill="url(#paint7_linear_104_69)"/>
<path d="M437.662 328.276C440.299 330.914 444.575 330.914 447.211 328.276C449.848 325.638 449.848 321.36 447.211 318.722C444.575 316.085 440.299 316.085 437.662 318.722C435.026 321.36 435.026 325.638 437.662 328.276Z" fill="url(#paint8_linear_104_69)"/>
<path d="M446.392 770.738L399.574 723.898V663.804L312.479 576.667V529.288L156.266 373L157.535 371.73L314.275 528.544V575.923L401.37 663.059V723.154L447.662 769.468L446.392 770.738Z" fill="url(#paint9_linear_104_69)"/>
<path d="M152.365 377.381C149.728 374.743 149.728 370.465 152.365 367.827C155.001 365.189 159.277 365.189 161.914 367.827C164.55 370.465 164.55 374.743 161.914 377.381C159.277 380.018 155.001 380.018 152.365 377.381Z" fill="url(#paint10_linear_104_69)"/>
<path d="M442.014 774.641C444.65 777.279 448.926 777.279 451.563 774.641C454.199 772.003 454.199 767.725 451.563 765.087C448.926 762.45 444.651 762.45 442.014 765.087C439.377 767.725 439.378 772.003 442.014 774.641Z" fill="url(#paint11_linear_104_69)"/>
<path d="M505.08 586.778L356.885 438.512V381.589L185.092 209.714L186.362 208.444L358.681 380.845V437.768L506.35 585.508L505.08 586.778Z" fill="url(#paint12_linear_104_69)"/>
<path d="M181.191 214.095C178.554 211.457 178.554 207.179 181.191 204.541C183.827 201.903 188.103 201.903 190.74 204.541C193.376 207.179 193.376 211.457 190.74 214.095C188.103 216.732 183.827 216.732 181.191 214.095Z" fill="url(#paint13_linear_104_69)"/>
<path d="M500.701 590.681C503.338 593.318 507.614 593.318 510.25 590.681C512.887 588.043 512.887 583.765 510.25 581.127C507.614 578.489 503.338 578.489 500.702 581.127C498.065 583.765 498.065 588.043 500.701 590.681Z" fill="url(#paint14_linear_104_69)"/>
<path d="M607.958 558.167L547.044 497.224H487.239L392.843 402.784L394.113 401.514L487.983 495.427H547.787L609.228 556.897L607.958 558.167Z" fill="url(#paint15_linear_104_69)"/>
<path d="M388.942 407.164C386.306 404.526 386.306 400.249 388.942 397.611C391.579 394.973 395.855 394.973 398.491 397.611C401.128 400.249 401.128 404.526 398.491 407.164C395.855 409.802 391.579 409.802 388.942 407.164Z" fill="url(#paint16_linear_104_69)"/>
<path d="M603.579 562.07C606.216 564.708 610.492 564.708 613.128 562.07C615.765 559.432 615.765 555.154 613.128 552.517C610.492 549.879 606.216 549.879 603.579 552.517C600.943 555.154 600.943 559.432 603.579 562.07Z" fill="url(#paint17_linear_104_69)"/>
<path d="M312.01 418.949H310.214V392.713L206.093 288.542L207.363 287.272L312.01 391.969V418.949Z" fill="url(#paint18_linear_104_69)"/>
<path d="M202.192 292.922C199.556 290.285 199.556 286.007 202.192 283.369C204.829 280.731 209.105 280.731 211.741 283.369C214.378 286.007 214.378 290.285 211.741 292.922C209.105 295.56 204.829 295.56 202.192 292.922Z" fill="url(#paint19_linear_104_69)"/>
<path d="M304.36 418.611C304.36 422.341 307.384 425.366 311.113 425.366C314.841 425.366 317.865 422.341 317.865 418.611C317.865 414.88 314.841 411.856 311.113 411.856C307.384 411.856 304.36 414.881 304.36 418.611Z" fill="url(#paint20_linear_104_69)"/>
<path d="M435.966 562.402L321.653 448.034H274.502L274.239 447.771L206.093 379.592L207.363 378.322L275.246 446.237H322.397L437.236 561.131L435.966 562.402Z" fill="url(#paint21_linear_104_69)"/>
<path d="M202.192 383.972C199.556 381.335 199.556 377.057 202.192 374.419C204.829 371.781 209.105 371.781 211.741 374.419C214.378 377.057 214.378 381.335 211.741 383.972C209.105 386.61 204.829 386.61 202.192 383.972Z" fill="url(#paint22_linear_104_69)"/>
<path d="M431.588 566.304C434.225 568.942 438.501 568.942 441.137 566.304C443.774 563.666 443.774 559.389 441.137 556.751C438.501 554.113 434.225 554.113 431.588 556.751C428.952 559.388 428.952 563.666 431.588 566.304Z" fill="url(#paint23_linear_104_69)"/>
<path d="M304.135 477.2L302.865 478.47L442.04 617.711L443.31 616.441L304.135 477.2Z" fill="url(#paint24_linear_104_69)"/>
<path d="M298.964 482.851C296.328 480.213 296.328 475.935 298.964 473.297C301.601 470.659 305.877 470.659 308.513 473.297C311.15 475.935 311.15 480.213 308.513 482.851C305.877 485.488 301.601 485.488 298.964 482.851Z" fill="url(#paint25_linear_104_69)"/>
<path d="M437.662 621.614C440.298 624.252 444.574 624.252 447.211 621.614C449.847 618.977 449.847 614.699 447.211 612.061C444.574 609.423 440.298 609.423 437.662 612.061C435.025 614.699 435.025 618.977 437.662 621.614Z" fill="url(#paint26_linear_104_69)"/>
<path d="M618.467 338.887H616.671V279.885L521.787 184.956H453.112L452.849 184.693L305.865 37.639L307.135 36.3687L453.856 183.159H522.53L618.467 279.141V338.887Z" fill="url(#paint27_linear_104_69)"/>
<path d="M301.964 42.0192C299.328 39.3815 299.328 35.1035 301.964 32.4657C304.601 29.828 308.877 29.828 311.513 32.4657C314.15 35.1034 314.15 39.3814 311.513 42.0191C308.877 44.6569 304.601 44.657 301.964 42.0192Z" fill="url(#paint28_linear_104_69)"/>
<path d="M610.816 338.55C610.816 342.28 613.84 345.305 617.569 345.305C621.297 345.305 624.321 342.28 624.321 338.55C624.321 334.819 621.297 331.794 617.569 331.794C613.84 331.794 610.816 334.819 610.816 338.55Z" fill="url(#paint29_linear_104_69)"/>
<path d="M477.913 230.829L476.644 232.099L549.108 304.598L550.377 303.327L477.913 230.829Z" fill="url(#paint30_linear_104_69)"/>
<path d="M483.125 235.466C485.202 232.367 484.375 228.171 481.278 226.093C478.181 224.014 473.987 224.841 471.91 227.94C469.832 231.038 470.659 235.235 473.756 237.313C476.853 239.391 481.047 238.564 483.125 235.466Z" fill="url(#paint31_linear_104_69)"/>
<path d="M544.729 308.5C547.366 311.138 551.642 311.138 554.278 308.5C556.915 305.863 556.915 301.585 554.278 298.947C551.642 296.309 547.366 296.309 544.729 298.947C542.093 301.585 542.093 305.863 544.729 308.5Z" fill="url(#paint32_linear_104_69)"/>
<path d="M677.48 279.011H675.684V225.238L493.116 42.5827L494.385 41.3123L677.48 224.494V279.011Z" fill="url(#paint33_linear_104_69)"/>
<path d="M489.215 46.9632C486.578 44.3254 486.578 40.0474 489.215 37.4097C491.851 34.7719 496.127 34.7719 498.764 37.4097C501.4 40.0474 501.4 44.3254 498.764 46.9631C496.127 49.6009 491.851 49.6009 489.215 46.9632Z" fill="url(#paint34_linear_104_69)"/>
<path d="M669.83 278.673C669.83 282.404 672.854 285.429 676.582 285.429C680.311 285.429 683.334 282.404 683.334 278.673C683.334 274.943 680.311 271.918 676.582 271.918C672.854 271.918 669.83 274.943 669.83 278.673Z" fill="url(#paint35_linear_104_69)"/>
<path d="M870.201 51.655H868.405V129.458H870.201V51.655Z" fill="url(#paint36_linear_104_69)"/>
<path d="M862.551 51.9929C862.551 48.2625 865.574 45.2375 869.303 45.2375C873.032 45.2375 876.055 48.2625 876.055 51.9929C876.055 55.7233 873.032 58.7482 869.303 58.7482C865.574 58.7482 862.551 55.7232 862.551 51.9929Z" fill="url(#paint37_linear_104_69)"/>
<path d="M862.551 129.12C862.551 132.851 865.574 135.876 869.303 135.876C873.032 135.876 876.055 132.851 876.055 129.12C876.055 125.39 873.032 122.365 869.303 122.365C865.574 122.365 862.551 125.39 862.551 129.12Z" fill="url(#paint38_linear_104_69)"/>
<path d="M840.757 223.803H838.961V201.961L806.229 169.213L806.224 168.848C806.215 168.243 805.357 108.068 805.805 88.1587L807.601 88.199C807.172 107.265 807.943 163.38 808.014 168.458L840.757 201.217V223.803Z" fill="url(#paint39_linear_104_69)"/>
<path d="M799.983 88.1198C800.203 84.3959 803.4 81.5548 807.122 81.775C810.844 81.9953 813.684 85.1936 813.463 88.9175C813.243 92.6413 810.046 95.4824 806.324 95.2621C802.602 95.0419 799.763 91.8436 799.983 88.1198Z" fill="url(#paint40_linear_104_69)"/>
<path d="M833.107 223.467C833.107 227.197 836.131 230.222 839.86 230.222C843.588 230.222 846.612 227.197 846.612 223.467C846.612 219.736 843.588 216.711 839.86 216.711C836.131 216.711 833.107 219.736 833.107 223.467Z" fill="url(#paint41_linear_104_69)"/>
<path d="M840.757 108.663H838.961V144.702H840.757V108.663Z" fill="url(#paint42_linear_104_69)"/>
<path d="M833.107 109C833.107 105.27 836.131 102.245 839.86 102.245C843.588 102.245 846.612 105.27 846.612 109C846.612 112.731 843.588 115.756 839.86 115.756C836.131 115.756 833.107 112.731 833.107 109Z" fill="url(#paint43_linear_104_69)"/>
<path d="M833.107 144.364C833.107 148.094 836.131 151.119 839.86 151.119C843.588 151.119 846.612 148.094 846.612 144.364C846.612 140.634 843.588 137.609 839.86 137.609C836.131 137.609 833.107 140.634 833.107 144.364Z" fill="url(#paint44_linear_104_69)"/>
<path d="M787.057 202.767L777.809 193.515V100.114L759.97 82.2666H730.627V80.4699H760.714L779.605 99.3705V192.77L788.327 201.496L787.057 202.767Z" fill="url(#paint45_linear_104_69)"/>
<path d="M792.228 197.116C794.865 199.754 794.865 204.032 792.228 206.67C789.592 209.307 785.316 209.307 782.679 206.67C780.043 204.032 780.043 199.754 782.679 197.116C785.316 194.478 789.592 194.478 792.228 197.116Z" fill="url(#paint46_linear_104_69)"/>
<path d="M730.965 74.6129C727.236 74.6129 724.213 77.6379 724.213 81.3682C724.213 85.0986 727.236 88.1236 730.965 88.1236C734.694 88.1236 737.717 85.0986 737.717 81.3682C737.717 77.6379 734.694 74.6129 730.965 74.6129Z" fill="url(#paint47_linear_104_69)"/>
<path d="M557.802 165.322L556.532 166.593L625.084 235.177L626.354 233.907L557.802 165.322Z" fill="url(#paint48_linear_104_69)"/>
<path d="M552.631 170.973C549.995 168.335 549.995 164.057 552.631 161.419C555.268 158.781 559.544 158.781 562.18 161.419C564.817 164.057 564.817 168.335 562.18 170.973C559.544 173.61 555.268 173.611 552.631 170.973Z" fill="url(#paint49_linear_104_69)"/>
<path d="M620.706 239.08C623.342 241.718 627.618 241.718 630.255 239.08C632.891 236.442 632.891 232.164 630.255 229.526C627.618 226.889 623.342 226.889 620.706 229.526C618.069 232.164 618.069 236.442 620.706 239.08Z" fill="url(#paint50_linear_104_69)"/>
<path d="M688.342 199.105L687.072 200.376L739.358 252.687L740.628 251.416L688.342 199.105Z" fill="url(#paint51_linear_104_69)"/>
<path d="M683.171 204.756C680.534 202.118 680.534 197.84 683.171 195.203C685.807 192.565 690.083 192.565 692.72 195.203C695.356 197.84 695.356 202.118 692.72 204.756C690.083 207.394 685.807 207.394 683.171 204.756Z" fill="url(#paint52_linear_104_69)"/>
<path d="M734.979 256.589C737.616 259.227 741.892 259.227 744.528 256.589C747.165 253.952 747.165 249.674 744.528 247.036C741.892 244.398 737.616 244.398 734.979 247.036C732.343 249.674 732.343 253.952 734.979 256.589Z" fill="url(#paint53_linear_104_69)"/>
<path d="M756.516 222.886L743.631 209.994V121.022H745.427V209.25L757.786 221.616L756.516 222.886Z" fill="url(#paint54_linear_104_69)"/>
<path d="M737.776 121.36C737.776 117.63 740.8 114.605 744.528 114.605C748.257 114.605 751.281 117.63 751.281 121.36C751.281 125.09 748.257 128.115 744.528 128.115C740.8 128.115 737.776 125.09 737.776 121.36Z" fill="url(#paint55_linear_104_69)"/>
<path d="M752.138 226.789C754.774 229.426 759.05 229.426 761.687 226.789C764.323 224.151 764.323 219.873 761.687 217.235C759.05 214.597 754.775 214.597 752.138 217.235C749.502 219.873 749.501 224.151 752.138 226.789Z" fill="url(#paint56_linear_104_69)"/>
<path d="M644.279 49.1399L643.009 50.4103L695.432 102.858L696.702 101.588L644.279 49.1399Z" fill="url(#paint57_linear_104_69)"/>
<path d="M639.108 54.791C636.472 52.1533 636.472 47.8752 639.108 45.2375C641.745 42.5998 646.021 42.5998 648.657 45.2375C651.294 47.8753 651.294 52.1532 648.657 54.791C646.021 57.4287 641.745 57.4288 639.108 54.791Z" fill="url(#paint58_linear_104_69)"/>
<path d="M691.054 106.762C693.691 109.399 697.967 109.399 700.603 106.762C703.24 104.124 703.24 99.8458 700.603 97.2081C697.967 94.5704 693.691 94.5704 691.055 97.2081C688.418 99.8458 688.418 104.124 691.054 106.762Z" fill="url(#paint59_linear_104_69)"/>
<path d="M885.472 1427.64H883.676V1319.45L863.532 1299.3V1244.37H865.328V1298.56L885.472 1318.71V1427.64Z" fill="url(#paint60_linear_104_69)"/>
<path d="M857.678 1244.71C857.678 1240.98 860.701 1237.95 864.43 1237.95C868.158 1237.95 871.182 1240.98 871.182 1244.71C871.182 1248.44 868.158 1251.46 864.43 1251.46C860.701 1251.46 857.678 1248.44 857.678 1244.71Z" fill="url(#paint61_linear_104_69)"/>
<path d="M877.821 1427.31C877.821 1431.04 880.845 1434.06 884.573 1434.06C888.302 1434.06 891.326 1431.04 891.326 1427.31C891.326 1423.58 888.302 1420.55 884.573 1420.55C880.845 1420.55 877.821 1423.58 877.821 1427.31Z" fill="url(#paint62_linear_104_69)"/>
<path d="M175.929 1405.99L174.659 1404.72L466.331 1112.91H545.945L582.051 1076.79L583.321 1078.06L546.689 1114.71H467.075L175.929 1405.99Z" fill="url(#paint63_linear_104_69)"/>
<path d="M180.307 1409.89C177.671 1412.53 173.395 1412.53 170.758 1409.89C168.122 1407.25 168.122 1402.98 170.758 1400.34C173.395 1397.7 177.671 1397.7 180.307 1400.34C182.944 1402.98 182.944 1407.25 180.307 1409.89Z" fill="url(#paint64_linear_104_69)"/>
<path d="M587.222 1082.44C589.858 1079.8 589.858 1075.52 587.222 1072.88C584.585 1070.24 580.309 1070.24 577.673 1072.88C575.036 1075.52 575.036 1079.8 577.673 1082.44C580.309 1085.07 584.585 1085.07 587.222 1082.44Z" fill="url(#paint65_linear_104_69)"/>
<path d="M242.438 1398.3L241.168 1397.03L444.131 1193.97H623.912L697.235 1120.61L698.505 1121.88L624.656 1195.77H444.874L242.438 1398.3Z" fill="url(#paint66_linear_104_69)"/>
<path d="M246.816 1402.2C244.18 1404.84 239.904 1404.84 237.267 1402.2C234.631 1399.56 234.631 1395.29 237.267 1392.65C239.904 1390.01 244.18 1390.01 246.816 1392.65C249.453 1395.29 249.453 1399.56 246.816 1402.2Z" fill="url(#paint67_linear_104_69)"/>
<path d="M702.406 1126.26C705.043 1123.63 705.043 1119.35 702.406 1116.71C699.77 1114.07 695.494 1114.07 692.857 1116.71C690.221 1119.35 690.221 1123.62 692.857 1126.26C695.494 1128.9 699.77 1128.9 702.406 1126.26Z" fill="url(#paint68_linear_104_69)"/>
<path d="M820.648 1195.48H818.852V1388.09H820.648V1195.48Z" fill="url(#paint69_linear_104_69)"/>
<path d="M826.502 1387.76C826.502 1391.49 823.479 1394.51 819.75 1394.51C816.022 1394.51 812.998 1391.49 812.998 1387.76C812.998 1384.03 816.022 1381 819.75 1381C823.479 1381 826.502 1384.03 826.502 1387.76Z" fill="url(#paint70_linear_104_69)"/>
<path d="M826.502 1195.82C826.502 1192.09 823.479 1189.06 819.75 1189.06C816.022 1189.06 812.998 1192.09 812.998 1195.82C812.998 1199.55 816.022 1202.58 819.75 1202.58C823.479 1202.58 826.502 1199.55 826.502 1195.82Z" fill="url(#paint71_linear_104_69)"/>
<path d="M372.576 758.248H98.1079V760.045H372.576V758.248Z" fill="url(#paint72_linear_104_69)"/>
<path d="M98.4455 765.902C94.7169 765.902 91.6934 762.877 91.6934 759.146C91.6934 755.416 94.7169 752.391 98.4455 752.391C102.174 752.391 105.198 755.416 105.198 759.146C105.198 762.877 102.174 765.902 98.4455 765.902Z" fill="url(#paint73_linear_104_69)"/>
<path d="M372.238 765.902C375.966 765.902 378.99 762.877 378.99 759.146C378.99 755.416 375.966 752.391 372.238 752.391C368.509 752.391 365.486 755.416 365.486 759.146C365.486 762.877 368.509 765.902 372.238 765.902Z" fill="url(#paint74_linear_104_69)"/>
<path d="M136.946 1237.48L135.676 1236.21L443.033 928.712H487.607L553.55 862.737L554.82 864.007L488.351 930.508H443.777L136.946 1237.48Z" fill="url(#paint75_linear_104_69)"/>
<path d="M141.324 1241.39C138.687 1244.03 134.411 1244.03 131.775 1241.39C129.138 1238.75 129.138 1234.47 131.775 1231.83C134.411 1229.2 138.687 1229.2 141.324 1231.83C143.96 1234.47 143.96 1238.75 141.324 1241.39Z" fill="url(#paint76_linear_104_69)"/>
<path d="M558.721 868.388C561.357 865.75 561.357 861.472 558.721 858.834C556.084 856.197 551.808 856.197 549.172 858.834C546.535 861.472 546.535 865.75 549.172 868.388C551.808 871.026 556.084 871.026 558.721 868.388Z" fill="url(#paint77_linear_104_69)"/>
<path d="M403.109 881.244H359.127L328.654 850.756H98.1079V848.96H329.397L359.87 879.447H402.365L421.657 860.147L422.926 861.417L403.109 881.244Z" fill="url(#paint78_linear_104_69)"/>
<path d="M98.4455 856.613C94.7169 856.613 91.6934 853.588 91.6934 849.858C91.6934 846.127 94.7169 843.103 98.4455 843.103C102.174 843.103 105.198 846.128 105.198 849.858C105.198 853.588 102.174 856.613 98.4455 856.613Z" fill="url(#paint79_linear_104_69)"/>
<path d="M426.827 865.797C429.464 863.159 429.464 858.881 426.827 856.244C424.191 853.606 419.915 853.606 417.278 856.244C414.642 858.881 414.642 863.159 417.278 865.797C419.915 868.435 424.191 868.435 426.827 865.797Z" fill="url(#paint80_linear_104_69)"/>
<path d="M376.968 934.184H342.037L292.827 884.952H93.7153V883.155H293.571L293.834 883.418L342.781 932.388H376.968V934.184Z" fill="url(#paint81_linear_104_69)"/>
<path d="M94.0529 890.808C97.782 890.808 100.805 887.784 100.805 884.053C100.805 880.322 97.782 877.298 94.0529 877.298C90.3238 877.298 87.3008 880.322 87.3008 884.053C87.3008 887.784 90.3238 890.808 94.0529 890.808Z" fill="url(#paint82_linear_104_69)"/>
<path d="M376.63 940.041C380.359 940.041 383.383 937.016 383.383 933.286C383.383 929.556 380.359 926.531 376.63 926.531C372.902 926.531 369.878 929.556 369.878 933.286C369.878 937.016 372.902 940.041 376.63 940.041Z" fill="url(#paint83_linear_104_69)"/>
<path d="M296.119 955.128H283.219L253.02 924.915H138.189V923.118H253.764L283.962 953.331H296.119V955.128Z" fill="url(#paint84_linear_104_69)"/>
<path d="M138.527 930.772C134.798 930.772 131.775 927.747 131.775 924.016C131.775 920.286 134.798 917.261 138.527 917.261C142.256 917.261 145.279 920.286 145.279 924.016C145.279 927.747 142.256 930.772 138.527 930.772Z" fill="url(#paint85_linear_104_69)"/>
<path d="M295.781 960.985C299.51 960.985 302.533 957.959 302.533 954.229C302.533 950.499 299.51 947.474 295.781 947.474C292.052 947.474 289.029 950.499 289.029 954.229C289.029 957.959 292.052 960.985 295.781 960.985Z" fill="url(#paint86_linear_104_69)"/>
<path d="M260.704 993.431H155.485V995.228H260.704V993.431Z" fill="url(#paint87_linear_104_69)"/>
<path d="M155.823 1001.08C152.094 1001.08 149.07 998.06 149.07 994.33C149.07 990.599 152.094 987.574 155.823 987.574C159.551 987.574 162.575 990.599 162.575 994.33C162.575 998.06 159.551 1001.08 155.823 1001.08Z" fill="url(#paint88_linear_104_69)"/>
<path d="M260.366 1001.08C264.095 1001.08 267.119 998.06 267.119 994.33C267.119 990.599 264.095 987.574 260.366 987.574C256.638 987.574 253.614 990.599 253.614 994.33C253.614 998.06 256.638 1001.08 260.366 1001.08Z" fill="url(#paint89_linear_104_69)"/>
<path d="M782.488 1403.47H780.692V1286.12L725.1 1230.5V1157.03H726.895V1229.75L782.488 1285.37V1403.47Z" fill="url(#paint90_linear_104_69)"/>
<path d="M788.342 1403.14C788.342 1406.87 785.319 1409.89 781.59 1409.89C777.861 1409.89 774.838 1406.87 774.838 1403.14C774.838 1399.41 777.861 1396.38 781.59 1396.38C785.319 1396.38 788.342 1399.41 788.342 1403.14Z" fill="url(#paint91_linear_104_69)"/>
<path d="M725.998 1164.12C729.727 1164.12 732.75 1161.1 732.75 1157.37C732.75 1153.64 729.727 1150.61 725.998 1150.61C722.269 1150.61 719.246 1153.64 719.246 1157.37C719.246 1161.1 722.269 1164.12 725.998 1164.12Z" fill="url(#paint92_linear_104_69)"/>
<path d="M616.574 1230.39L404.991 1442.07L406.261 1443.34L617.844 1231.66L616.574 1230.39Z" fill="url(#paint93_linear_104_69)"/>
<path d="M410.639 1447.25C408.003 1449.88 403.727 1449.88 401.09 1447.25C398.454 1444.61 398.454 1440.33 401.09 1437.69C403.727 1435.05 408.003 1435.05 410.639 1437.69C413.276 1440.33 413.276 1444.61 410.639 1447.25Z" fill="url(#paint94_linear_104_69)"/>
<path d="M621.745 1236.04C624.381 1233.4 624.381 1229.12 621.745 1226.49C619.108 1223.85 614.832 1223.85 612.196 1226.49C609.559 1229.12 609.559 1233.4 612.196 1236.04C614.832 1238.68 619.108 1238.68 621.745 1236.04Z" fill="url(#paint95_linear_104_69)"/>
<path d="M694.129 1202.37L660.305 1236.21L661.575 1237.48L695.399 1203.64L694.129 1202.37Z" fill="url(#paint96_linear_104_69)"/>
<path d="M665.953 1241.39C663.317 1244.03 659.041 1244.03 656.404 1241.39C653.768 1238.75 653.768 1234.47 656.404 1231.83C659.041 1229.2 663.317 1229.2 665.953 1231.83C668.59 1234.47 668.59 1238.75 665.953 1241.39Z" fill="url(#paint97_linear_104_69)"/>
<path d="M699.3 1208.03C701.936 1205.39 701.936 1201.11 699.3 1198.47C696.663 1195.83 692.387 1195.83 689.751 1198.47C687.114 1201.11 687.114 1205.39 689.751 1208.03C692.387 1210.66 696.663 1210.66 699.3 1208.03Z" fill="url(#paint98_linear_104_69)"/>
<path d="M614.218 1381.54L612.948 1380.27L648.414 1344.79H706.683L739.255 1312.2L740.525 1313.47L707.427 1346.59H649.158L614.218 1381.54Z" fill="url(#paint99_linear_104_69)"/>
<path d="M618.596 1385.45C615.96 1388.09 611.684 1388.09 609.047 1385.45C606.411 1382.81 606.411 1378.53 609.047 1375.89C611.684 1373.26 615.96 1373.26 618.596 1375.89C621.233 1378.53 621.233 1382.81 618.596 1385.45Z" fill="url(#paint100_linear_104_69)"/>
<path d="M744.425 1317.86C747.062 1315.22 747.062 1310.94 744.425 1308.3C741.789 1305.66 737.513 1305.66 734.876 1308.3C732.24 1310.94 732.24 1315.22 734.876 1317.86C737.513 1320.49 741.789 1320.49 744.425 1317.86Z" fill="url(#paint101_linear_104_69)"/>
<path d="M634.35 1320.55L569.298 1385.63L570.568 1386.9L635.619 1321.82L634.35 1320.55Z" fill="url(#paint102_linear_104_69)"/>
<path d="M574.946 1390.8C572.309 1393.44 568.033 1393.44 565.397 1390.8C562.76 1388.17 562.76 1383.89 565.397 1381.25C568.033 1378.61 572.309 1378.61 574.946 1381.25C577.582 1383.89 577.582 1388.17 574.946 1390.8Z" fill="url(#paint103_linear_104_69)"/>
<path d="M639.52 1326.2C642.157 1323.56 642.157 1319.28 639.52 1316.64C636.884 1314.01 632.608 1314.01 629.971 1316.64C627.334 1319.28 627.335 1323.56 629.971 1326.2C632.607 1328.84 636.884 1328.84 639.52 1326.2Z" fill="url(#paint104_linear_104_69)"/>
<path d="M720.004 1281.41L692.425 1309L693.695 1310.27L721.273 1282.68L720.004 1281.41Z" fill="url(#paint105_linear_104_69)"/>
<path d="M698.073 1314.17C695.437 1316.81 691.161 1316.81 688.524 1314.17C685.888 1311.54 685.888 1307.26 688.524 1304.62C691.161 1301.98 695.437 1301.98 698.073 1304.62C700.71 1307.26 700.71 1311.54 698.073 1314.17Z" fill="url(#paint106_linear_104_69)"/>
<path d="M725.174 1287.06C727.811 1284.42 727.811 1280.14 725.174 1277.51C722.538 1274.87 718.262 1274.87 715.625 1277.51C712.989 1280.14 712.989 1284.42 715.625 1287.06C718.262 1289.7 722.538 1289.7 725.174 1287.06Z" fill="url(#paint107_linear_104_69)"/>
<path d="M319.372 1443.34L318.102 1442.07L431.283 1328.84V1301.85L472.886 1260.23H497.491L530.486 1227.22H560.496L567.871 1219.84L569.14 1221.11L561.239 1229.02H531.23L498.234 1262.03H473.63L433.079 1302.6V1329.58L319.372 1443.34Z" fill="url(#paint108_linear_104_69)"/>
<path d="M323.75 1447.25C321.113 1449.88 316.838 1449.88 314.201 1447.25C311.565 1444.61 311.565 1440.33 314.201 1437.69C316.838 1435.05 321.113 1435.05 323.75 1437.69C326.386 1440.33 326.387 1444.61 323.75 1447.25Z" fill="url(#paint109_linear_104_69)"/>
<path d="M573.041 1225.49C575.677 1222.85 575.677 1218.58 573.041 1215.94C570.404 1213.3 566.129 1213.3 563.492 1215.94C560.856 1218.58 560.856 1222.85 563.492 1225.49C566.129 1228.13 570.404 1228.13 573.041 1225.49Z" fill="url(#paint110_linear_104_69)"/>
<path d="M274.073 1405.99L272.804 1404.72L353.018 1324.47H389.6L411.756 1302.3V1268.89L452.97 1227.66L454.24 1228.93L413.552 1269.64V1303.04L390.343 1326.26H353.762L274.073 1405.99Z" fill="url(#paint111_linear_104_69)"/>
<path d="M278.452 1409.89C275.816 1412.53 271.54 1412.53 268.903 1409.89C266.267 1407.25 266.267 1402.98 268.903 1400.34C271.54 1397.7 275.816 1397.7 278.452 1400.34C281.089 1402.98 281.089 1407.25 278.452 1409.89Z" fill="url(#paint112_linear_104_69)"/>
<path d="M458.141 1233.31C460.778 1230.67 460.778 1226.4 458.141 1223.76C455.505 1221.12 451.229 1221.12 448.592 1223.76C445.956 1226.4 445.956 1230.67 448.592 1233.31C451.229 1235.95 455.505 1235.95 458.141 1233.31Z" fill="url(#paint113_linear_104_69)"/>
<path d="M160.007 1255.75L158.737 1254.48L308.888 1104.26H363.15L438.134 1029.24H492.137L536.813 984.541L538.083 985.811L492.881 1031.03H438.878L363.894 1106.05H309.631L160.007 1255.75Z" fill="url(#paint114_linear_104_69)"/>
<path d="M164.385 1259.65C161.748 1262.29 157.472 1262.29 154.836 1259.65C152.199 1257.01 152.199 1252.74 154.836 1250.1C157.472 1247.46 161.748 1247.46 164.385 1250.1C167.021 1252.74 167.021 1257.01 164.385 1259.65Z" fill="url(#paint115_linear_104_69)"/>
<path d="M541.984 990.191C544.621 987.554 544.621 983.276 541.984 980.638C539.348 978 535.072 978 532.435 980.638C529.799 983.276 529.799 987.554 532.435 990.191C535.072 992.829 539.348 992.829 541.984 990.191Z" fill="url(#paint116_linear_104_69)"/>
<path d="M308.07 1155.34L197.72 1265.74L198.99 1267.01L309.339 1156.61L308.07 1155.34Z" fill="url(#paint117_linear_104_69)"/>
<path d="M203.368 1270.91C200.732 1273.55 196.456 1273.55 193.819 1270.91C191.183 1268.28 191.183 1264 193.819 1261.36C196.456 1258.72 200.732 1258.72 203.368 1261.36C206.005 1264 206.005 1268.28 203.368 1270.91Z" fill="url(#paint118_linear_104_69)"/>
<path d="M313.24 1160.99C315.877 1158.35 315.877 1154.07 313.24 1151.44C310.604 1148.8 306.328 1148.8 303.691 1151.44C301.055 1154.07 301.055 1158.35 303.691 1160.99C306.328 1163.63 310.604 1163.63 313.24 1160.99Z" fill="url(#paint119_linear_104_69)"/>
<path d="M189.243 1323.59L187.974 1322.32L264.917 1245.34V1226.12L314.652 1176.36H340.046L376.01 1140.38H398.247L426.498 1112.11L427.768 1113.38L398.991 1142.17H376.754L340.79 1178.15H315.396L266.713 1226.86V1246.09L189.243 1323.59Z" fill="url(#paint120_linear_104_69)"/>
<path d="M193.622 1327.49C190.985 1330.13 186.71 1330.13 184.073 1327.49C181.437 1324.86 181.437 1320.58 184.073 1317.94C186.71 1315.3 190.986 1315.3 193.622 1317.94C196.259 1320.58 196.259 1324.86 193.622 1327.49Z" fill="url(#paint121_linear_104_69)"/>
<path d="M431.668 1117.76C434.305 1115.12 434.305 1110.85 431.668 1108.21C429.032 1105.57 424.756 1105.57 422.119 1108.21C419.483 1110.85 419.483 1115.12 422.119 1117.76C424.756 1120.4 429.032 1120.4 431.668 1117.76Z" fill="url(#paint122_linear_104_69)"/>
<path d="M583.678 1165.32L558.349 1139.97H491.236V1138.18H559.092L583.678 1162.77L645.193 1101.23L646.463 1102.5L583.678 1165.32Z" fill="url(#paint123_linear_104_69)"/>
<path d="M491.574 1145.83C487.845 1145.83 484.822 1142.81 484.822 1139.08C484.822 1135.35 487.845 1132.32 491.574 1132.32C495.303 1132.32 498.326 1135.35 498.326 1139.08C498.326 1142.81 495.303 1145.83 491.574 1145.83Z" fill="url(#paint124_linear_104_69)"/>
<path d="M650.364 1106.88C653.001 1104.24 653.001 1099.97 650.364 1097.33C647.728 1094.69 643.452 1094.69 640.815 1097.33C638.179 1099.97 638.179 1104.24 640.815 1106.88C643.452 1109.52 647.728 1109.52 650.364 1106.88Z" fill="url(#paint125_linear_104_69)"/>
<path d="M456.5 1091.5L455.23 1090.23L484.519 1060.93H534.964L585.449 1010.42L586.719 1011.69L535.708 1062.73H485.263L456.5 1091.5Z" fill="url(#paint126_linear_104_69)"/>
<path d="M460.878 1095.41C458.242 1098.04 453.966 1098.04 451.329 1095.41C448.693 1092.77 448.693 1088.49 451.329 1085.85C453.966 1083.21 458.242 1083.21 460.878 1085.85C463.515 1088.49 463.515 1092.77 460.878 1095.41Z" fill="url(#paint127_linear_104_69)"/>
<path d="M590.62 1016.07C593.256 1013.43 593.256 1009.16 590.62 1006.52C587.983 1003.88 583.707 1003.88 581.071 1006.52C578.434 1009.16 578.434 1013.43 581.071 1016.07C583.707 1018.71 587.983 1018.71 590.62 1016.07Z" fill="url(#paint128_linear_104_69)"/>
<path d="M341.995 713.507H284.765L258.888 687.617H6.41455V685.821H259.632L285.509 711.71H341.995V713.507Z" fill="url(#paint129_linear_104_69)"/>
<path d="M6.75216 693.474C3.02354 693.474 0 690.449 0 686.719C0 682.989 3.02354 679.964 6.75216 679.964C10.4808 679.964 13.5042 682.989 13.5042 686.719C13.5042 690.449 10.4807 693.474 6.75216 693.474Z" fill="url(#paint130_linear_104_69)"/>
<path d="M341.657 719.364C345.386 719.364 348.409 716.339 348.409 712.609C348.409 708.878 345.386 705.853 341.657 705.853C337.929 705.853 334.905 708.878 334.905 712.609C334.905 716.339 337.929 719.364 341.657 719.364Z" fill="url(#paint131_linear_104_69)"/>
<path d="M212.442 163.811L211.172 165.082L291.323 245.271L292.593 244L212.442 163.811Z" fill="url(#paint132_linear_104_69)"/>
<path d="M207.271 169.462C204.635 166.824 204.635 162.546 207.271 159.909C209.908 157.271 214.184 157.271 216.82 159.909C219.457 162.546 219.457 166.824 216.82 169.462C214.184 172.1 209.908 172.1 207.271 169.462Z" fill="url(#paint133_linear_104_69)"/>
<path d="M286.945 249.173C289.582 251.811 293.858 251.811 296.494 249.173C299.131 246.536 299.131 242.258 296.494 239.62C293.858 236.982 289.582 236.982 286.945 239.62C284.309 242.258 284.309 246.536 286.945 249.173Z" fill="url(#paint134_linear_104_69)"/>
<path d="M454.441 407.574L453.171 408.844L499.898 455.593L501.168 454.323L454.441 407.574Z" fill="url(#paint135_linear_104_69)"/>
<path d="M449.27 413.224C446.634 410.586 446.634 406.308 449.27 403.67C451.907 401.033 456.183 401.033 458.819 403.67C461.456 406.308 461.456 410.586 458.819 413.224C456.183 415.862 451.907 415.862 449.27 413.224Z" fill="url(#paint136_linear_104_69)"/>
<path d="M495.52 459.495C498.156 462.133 502.432 462.133 505.069 459.495C507.705 456.858 507.705 452.58 505.069 449.942C502.432 447.304 498.156 447.304 495.52 449.942C492.883 452.58 492.883 456.858 495.52 459.495Z" fill="url(#paint137_linear_104_69)"/>
<path d="M212.442 341.242L211.172 342.513L271.686 403.055L272.956 401.784L212.442 341.242Z" fill="url(#paint138_linear_104_69)"/>
<path d="M207.271 346.893C204.635 344.255 204.635 339.977 207.271 337.34C209.908 334.702 214.184 334.702 216.82 337.34C219.457 339.977 219.457 344.255 216.82 346.893C214.184 349.531 209.908 349.531 207.271 346.893Z" fill="url(#paint139_linear_104_69)"/>
<path d="M267.307 406.958C269.944 409.595 274.22 409.595 276.856 406.958C279.493 404.32 279.493 400.042 276.856 397.404C274.22 394.766 269.944 394.766 267.307 397.404C264.671 400.042 264.671 404.32 267.307 406.958Z" fill="url(#paint140_linear_104_69)"/>
<path d="M346.688 562.07L345.418 563.341L392.9 610.845L394.169 609.575L346.688 562.07Z" fill="url(#paint141_linear_104_69)"/>
<path d="M341.517 567.721C338.88 565.083 338.88 560.805 341.517 558.167C344.154 555.53 348.429 555.53 351.066 558.167C353.703 560.805 353.702 565.083 351.066 567.721C348.429 570.359 344.153 570.359 341.517 567.721Z" fill="url(#paint142_linear_104_69)"/>
<path d="M388.521 614.748C391.158 617.385 395.434 617.385 398.07 614.748C400.707 612.11 400.707 607.832 398.07 605.194C395.434 602.556 391.158 602.556 388.521 605.194C385.885 607.832 385.885 612.11 388.521 614.748Z" fill="url(#paint143_linear_104_69)"/>
<path d="M430.145 41.312L428.875 42.5823L491.868 105.605L493.138 104.335L430.145 41.312Z" fill="url(#paint144_linear_104_69)"/>
<path d="M424.974 46.9631C422.338 44.3253 422.338 40.0473 424.974 37.4096C427.611 34.7718 431.887 34.7718 434.523 37.4096C437.16 40.0473 437.16 44.3253 434.523 46.9631C431.887 49.6008 427.611 49.6008 424.974 46.9631Z" fill="url(#paint145_linear_104_69)"/>
<path d="M487.49 109.508C490.127 112.146 494.403 112.146 497.039 109.508C499.676 106.87 499.676 102.592 497.039 99.9547C494.403 97.317 490.127 97.317 487.49 99.9547C484.854 102.592 484.854 106.87 487.49 109.508Z" fill="url(#paint146_linear_104_69)"/>
<path d="M865.328 272.419H863.532V185.973L891.877 157.614V29.8195H893.673V158.358L865.328 186.717V272.419Z" fill="url(#paint147_linear_104_69)"/>
<path d="M886.023 30.1573C886.023 26.4269 889.047 23.4019 892.775 23.4019C896.504 23.4019 899.527 26.4269 899.527 30.1573C899.527 33.8877 896.504 36.9126 892.775 36.9126C889.046 36.9126 886.023 33.8876 886.023 30.1573Z" fill="url(#paint148_linear_104_69)"/>
<path d="M857.678 272.082C857.678 275.812 860.701 278.837 864.43 278.837C868.158 278.837 871.182 275.812 871.182 272.082C871.182 268.351 868.158 265.326 864.43 265.326C860.701 265.326 857.678 268.351 857.678 272.082Z" fill="url(#paint149_linear_104_69)"/>
<path d="M719.172 164.79H684.035L611.782 92.5025L613.051 91.2322L684.778 162.993H719.172V164.79Z" fill="url(#paint150_linear_104_69)"/>
<path d="M607.881 96.8829C605.244 94.2451 605.244 89.9671 607.881 87.3293C610.517 84.6916 614.793 84.6916 617.43 87.3293C620.066 89.9671 620.066 94.245 617.43 96.8828C614.793 99.5205 610.517 99.5206 607.881 96.8829Z" fill="url(#paint151_linear_104_69)"/>
<path d="M718.834 170.647C722.562 170.647 725.586 167.622 725.586 163.891C725.586 160.161 722.562 157.136 718.834 157.136C715.105 157.136 712.082 160.161 712.082 163.891C712.082 167.622 715.105 170.647 718.834 170.647Z" fill="url(#paint152_linear_104_69)"/>
<path d="M299.336 812.029H47.5942V810.232H298.593L317.535 791.281H394.675V793.078H318.279L299.336 812.029Z" fill="url(#paint153_linear_104_69)"/>
<path d="M47.9319 817.886C44.2032 817.886 41.1797 814.861 41.1797 811.131C41.1797 807.4 44.2032 804.375 47.9319 804.375C51.6606 804.375 54.684 807.4 54.684 811.131C54.684 814.861 51.6604 817.886 47.9319 817.886Z" fill="url(#paint154_linear_104_69)"/>
<path d="M394.338 798.934C398.067 798.934 401.09 795.909 401.09 792.179C401.09 788.449 398.067 785.424 394.338 785.424C390.609 785.424 387.586 788.449 387.586 792.179C387.586 795.909 390.609 798.934 394.338 798.934Z" fill="url(#paint155_linear_104_69)"/>
<path d="M189.243 1119.11L187.974 1117.84L284.591 1021.17H309.299L353.916 976.534L355.186 977.805L310.043 1022.97H285.335L189.243 1119.11Z" fill="url(#paint156_linear_104_69)"/>
<path d="M193.622 1123.01C190.985 1125.65 186.71 1125.65 184.073 1123.01C181.437 1120.37 181.437 1116.09 184.073 1113.46C186.71 1110.82 190.986 1110.82 193.622 1113.46C196.259 1116.09 196.259 1120.37 193.622 1123.01Z" fill="url(#paint157_linear_104_69)"/>
<path d="M359.086 982.185C361.723 979.547 361.723 975.269 359.086 972.631C356.45 969.994 352.174 969.994 349.537 972.631C346.901 975.269 346.901 979.547 349.537 982.185C352.174 984.823 356.45 984.823 359.086 982.185Z" fill="url(#paint158_linear_104_69)"/>
<path d="M458.971 1463.12L457.701 1461.85L633.246 1286.22H667.563L690.217 1263.55L691.487 1264.83L668.307 1288.02H633.99L458.971 1463.12Z" fill="url(#paint159_linear_104_69)"/>
<path d="M463.349 1467.02C460.713 1469.66 456.437 1469.66 453.8 1467.02C451.164 1464.38 451.164 1460.11 453.8 1457.47C456.437 1454.83 460.713 1454.83 463.349 1457.47C465.986 1460.11 465.986 1464.38 463.349 1467.02Z" fill="url(#paint160_linear_104_69)"/>
<path d="M695.388 1269.21C698.024 1266.57 698.024 1262.29 695.388 1259.65C692.751 1257.01 688.475 1257.01 685.839 1259.65C683.202 1262.29 683.202 1266.57 685.839 1269.21C688.475 1271.84 692.751 1271.84 695.388 1269.21Z" fill="url(#paint161_linear_104_69)"/>
<path d="M754.692 1342.43H752.896V1384.39H754.692V1342.43Z" fill="url(#paint162_linear_104_69)"/>
<path d="M760.546 1384.05C760.546 1387.78 757.523 1390.8 753.794 1390.8C750.066 1390.8 747.042 1387.78 747.042 1384.05C747.042 1380.32 750.066 1377.29 753.794 1377.29C757.523 1377.29 760.546 1380.32 760.546 1384.05Z" fill="url(#paint163_linear_104_69)"/>
<path d="M760.546 1342.76C760.546 1339.03 757.523 1336.01 753.794 1336.01C750.066 1336.01 747.042 1339.03 747.042 1342.76C747.042 1346.49 750.066 1349.52 753.794 1349.52C757.523 1349.52 760.546 1346.49 760.546 1342.76Z" fill="url(#paint164_linear_104_69)"/>
<path d="M544.734 1263.1L473.738 1334.13L475.007 1335.4L546.003 1264.37L544.734 1263.1Z" fill="url(#paint165_linear_104_69)"/>
<path d="M479.386 1339.3C476.749 1341.94 472.473 1341.94 469.837 1339.3C467.2 1336.67 467.2 1332.39 469.837 1329.75C472.473 1327.11 476.749 1327.11 479.386 1329.75C482.022 1332.39 482.022 1336.67 479.386 1339.3Z" fill="url(#paint166_linear_104_69)"/>
<path d="M549.904 1268.75C552.541 1266.11 552.541 1261.84 549.904 1259.2C547.268 1256.56 542.992 1256.56 540.355 1259.2C537.719 1261.84 537.719 1266.11 540.355 1268.75C542.992 1271.39 547.268 1271.39 549.904 1268.75Z" fill="url(#paint167_linear_104_69)"/>
<path d="M363.525 1182.26L265.804 1280.02L267.073 1281.29L364.795 1183.53L363.525 1182.26Z" fill="url(#paint168_linear_104_69)"/>
<path d="M271.452 1285.2C268.815 1287.83 264.539 1287.83 261.903 1285.2C259.266 1282.56 259.266 1278.28 261.903 1275.64C264.539 1273 268.815 1273 271.452 1275.64C274.088 1278.28 274.088 1282.56 271.452 1285.2Z" fill="url(#paint169_linear_104_69)"/>
<path d="M368.695 1187.91C371.332 1185.27 371.332 1180.99 368.695 1178.35C366.059 1175.71 361.783 1175.71 359.146 1178.35C356.51 1180.99 356.51 1185.27 359.146 1187.91C361.783 1190.54 366.059 1190.54 368.695 1187.91Z" fill="url(#paint170_linear_104_69)"/>
<path d="M520.685 1163.15H462.96V1164.94H520.685V1163.15Z" fill="url(#paint171_linear_104_69)"/>
<path d="M469.869 1165.6C470.726 1161.97 468.478 1158.33 464.849 1157.47C461.22 1156.61 457.583 1158.86 456.726 1162.49C455.869 1166.12 458.117 1169.76 461.746 1170.62C465.376 1171.48 469.012 1169.23 469.869 1165.6Z" fill="url(#paint172_linear_104_69)"/>
<path d="M520.348 1170.8C524.076 1170.8 527.1 1167.78 527.1 1164.05C527.1 1160.32 524.076 1157.29 520.348 1157.29C516.619 1157.29 513.596 1160.32 513.596 1164.05C513.596 1167.78 516.619 1170.8 520.348 1170.8Z" fill="url(#paint173_linear_104_69)"/>
<path d="M781.665 1222.47H779.869V1130.8L742.665 1093.57L743.934 1092.3L781.665 1130.05V1222.47Z" fill="url(#paint174_linear_104_69)"/>
<path d="M738.764 1097.95C736.127 1095.32 736.127 1091.04 738.764 1088.4C741.4 1085.76 745.676 1085.76 748.313 1088.4C750.949 1091.04 750.949 1095.32 748.313 1097.95C745.676 1100.59 741.4 1100.59 738.764 1097.95Z" fill="url(#paint175_linear_104_69)"/>
<path d="M774.015 1222.13C774.015 1225.87 777.038 1228.89 780.767 1228.89C784.495 1228.89 787.519 1225.87 787.519 1222.13C787.519 1218.4 784.495 1215.38 780.767 1215.38C777.038 1215.38 774.015 1218.4 774.015 1222.13Z" fill="url(#paint176_linear_104_69)"/>
<path d="M368.693 1049.48L367.423 1048.21L438.9 976.698H469.465L495.076 951.076L496.346 952.346L470.209 978.495H439.643L368.693 1049.48Z" fill="url(#paint177_linear_104_69)"/>
<path d="M373.071 1053.38C370.435 1056.02 366.159 1056.02 363.522 1053.38C360.886 1050.74 360.886 1046.47 363.522 1043.83C366.159 1041.19 370.435 1041.19 373.071 1043.83C375.708 1046.47 375.708 1050.74 373.071 1053.38Z" fill="url(#paint178_linear_104_69)"/>
<path d="M500.247 956.726C502.883 954.088 502.883 949.81 500.247 947.173C497.61 944.535 493.334 944.535 490.698 947.173C488.061 949.811 488.061 954.088 490.698 956.726C493.334 959.364 497.61 959.364 500.247 956.726Z" fill="url(#paint179_linear_104_69)"/>
<path d="M294.806 648.628L261.314 615.12V543.193L158.737 440.567L160.007 439.297L263.11 542.449V614.376L296.076 647.358L294.806 648.628Z" fill="url(#paint180_linear_104_69)"/>
<path d="M154.836 444.947C152.199 442.31 152.199 438.032 154.836 435.394C157.472 432.756 161.748 432.756 164.385 435.394C167.021 438.032 167.021 442.31 164.385 444.947C161.748 447.585 157.472 447.585 154.836 444.947Z" fill="url(#paint181_linear_104_69)"/>
<path d="M290.428 652.531C293.065 655.168 297.341 655.168 299.977 652.531C302.614 649.893 302.614 645.615 299.977 642.977C297.341 640.339 293.065 640.339 290.428 642.977C287.792 645.615 287.792 649.893 290.428 652.531Z" fill="url(#paint182_linear_104_69)"/>
<defs>
<linearGradient id="paint0_linear_104_69" x1="389.754" y1="58.8168" x2="382.061" y2="1599.86" gradientUnits="userSpaceOnUse">
<stop stop-color="#40B9FD"/>
<stop offset="0.9965" stop-color="#2057CD"/>
</linearGradient>
<linearGradient id="paint1_linear_104_69" x1="174.18" y1="57.7403" x2="166.481" y2="1598.78" gradientUnits="userSpaceOnUse">
<stop stop-color="#40B9FD"/>
<stop offset="0.9965" stop-color="#2057CD"/>
</linearGradient>
<linearGradient id="paint2_linear_104_69" x1="605.326" y1="59.8946" x2="597.627" y2="1600.93" gradientUnits="userSpaceOnUse">
<stop stop-color="#40B9FD"/>
<stop offset="0.9965" stop-color="#2057CD"/>
</linearGradient>
<linearGradient id="paint3_linear_104_69" x1="341.562" y1="58.5765" x2="333.863" y2="1599.62" gradientUnits="userSpaceOnUse">
<stop stop-color="#40B9FD"/>
<stop offset="0.9965" stop-color="#2057CD"/>
</linearGradient>
<linearGradient id="paint4_linear_104_69" x1="166.268" y1="57.7008" x2="158.569" y2="1598.74" gradientUnits="userSpaceOnUse">
<stop stop-color="#40B9FD"/>
<stop offset="0.9965" stop-color="#2057CD"/>
</linearGradient>
<linearGradient id="paint5_linear_104_69" x1="516.855" y1="59.4522" x2="509.156" y2="1600.49" gradientUnits="userSpaceOnUse">
<stop stop-color="#40B9FD"/>
<stop offset="0.9965" stop-color="#2057CD"/>
</linearGradient>
<linearGradient id="paint6_linear_104_69" x1="405.516" y1="58.895" x2="397.823" y2="1599.94" gradientUnits="userSpaceOnUse">
<stop stop-color="#40B9FD"/>
<stop offset="0.9965" stop-color="#2057CD"/>
</linearGradient>
<linearGradient id="paint7_linear_104_69" x1="367.273" y1="58.7054" x2="359.575" y2="1599.75" gradientUnits="userSpaceOnUse">
<stop stop-color="#40B9FD"/>
<stop offset="0.9965" stop-color="#2057CD"/>
</linearGradient>
<linearGradient id="paint8_linear_104_69" x1="443.757" y1="59.0861" x2="436.058" y2="1600.13" gradientUnits="userSpaceOnUse">
<stop stop-color="#40B9FD"/>
<stop offset="0.9965" stop-color="#2057CD"/>
</linearGradient>
<linearGradient id="paint9_linear_104_69" x1="304.524" y1="58.3913" x2="296.825" y2="1599.43" gradientUnits="userSpaceOnUse">
<stop stop-color="#40B9FD"/>
<stop offset="0.9965" stop-color="#2057CD"/>
</linearGradient>
<linearGradient id="paint10_linear_104_69" x1="158.711" y1="57.6637" x2="151.012" y2="1598.7" gradientUnits="userSpaceOnUse">
<stop stop-color="#40B9FD"/>
<stop offset="0.9965" stop-color="#2057CD"/>
</linearGradient>
<linearGradient id="paint11_linear_104_69" x1="450.336" y1="59.117" x2="442.637" y2="1600.16" gradientUnits="userSpaceOnUse">
<stop stop-color="#40B9FD"/>
<stop offset="0.9965" stop-color="#2057CD"/>
</linearGradient>
<linearGradient id="paint12_linear_104_69" x1="347.413" y1="58.6056" x2="339.714" y2="1599.65" gradientUnits="userSpaceOnUse">
<stop stop-color="#40B9FD"/>
<stop offset="0.9965" stop-color="#2057CD"/>
</linearGradient>
<linearGradient id="paint13_linear_104_69" x1="186.721" y1="57.8023" x2="179.023" y2="1598.84" gradientUnits="userSpaceOnUse">
<stop stop-color="#40B9FD"/>
<stop offset="0.9965" stop-color="#2057CD"/>
</linearGradient>
<linearGradient id="paint14_linear_104_69" x1="508.104" y1="59.4082" x2="500.405" y2="1600.45" gradientUnits="userSpaceOnUse">
<stop stop-color="#40B9FD"/>
<stop offset="0.9965" stop-color="#2057CD"/>
</linearGradient>
<linearGradient id="paint15_linear_104_69" x1="503.134" y1="59.3844" x2="495.435" y2="1600.43" gradientUnits="userSpaceOnUse">
<stop stop-color="#40B9FD"/>
<stop offset="0.9965" stop-color="#2057CD"/>
</linearGradient>
<linearGradient id="paint16_linear_104_69" x1="395.431" y1="58.8456" x2="387.733" y2="1599.89" gradientUnits="userSpaceOnUse">
<stop stop-color="#40B9FD"/>
<stop offset="0.9965" stop-color="#2057CD"/>
</linearGradient>
<linearGradient id="paint17_linear_104_69" x1="610.836" y1="59.923" x2="603.138" y2="1600.96" gradientUnits="userSpaceOnUse">
<stop stop-color="#40B9FD"/>
<stop offset="0.9965" stop-color="#2057CD"/>
</linearGradient>
<linearGradient id="paint18_linear_104_69" x1="260.527" y1="58.1718" x2="252.828" y2="1599.21" gradientUnits="userSpaceOnUse">
<stop stop-color="#40B9FD"/>
<stop offset="0.9965" stop-color="#2057CD"/>
</linearGradient>
<linearGradient id="paint19_linear_104_69" x1="208.116" y1="57.9102" x2="200.417" y2="1598.95" gradientUnits="userSpaceOnUse">
<stop stop-color="#40B9FD"/>
<stop offset="0.9965" stop-color="#2057CD"/>
</linearGradient>
<linearGradient id="paint20_linear_104_69" x1="312.91" y1="58.4322" x2="305.211" y2="1599.48" gradientUnits="userSpaceOnUse">
<stop stop-color="#40B9FD"/>
<stop offset="0.9965" stop-color="#2057CD"/>
</linearGradient>
<linearGradient id="paint21_linear_104_69" x1="323.72" y1="58.4874" x2="316.021" y2="1599.53" gradientUnits="userSpaceOnUse">
<stop stop-color="#40B9FD"/>
<stop offset="0.9965" stop-color="#2057CD"/>
</linearGradient>
<linearGradient id="paint22_linear_104_69" x1="208.57" y1="57.9122" x2="200.871" y2="1598.95" gradientUnits="userSpaceOnUse">
<stop stop-color="#40B9FD"/>
<stop offset="0.9965" stop-color="#2057CD"/>
</linearGradient>
<linearGradient id="paint23_linear_104_69" x1="438.871" y1="59.064" x2="431.172" y2="1600.1" gradientUnits="userSpaceOnUse">
<stop stop-color="#40B9FD"/>
<stop offset="0.9965" stop-color="#2057CD"/>
</linearGradient>
<linearGradient id="paint24_linear_104_69" x1="375.529" y1="58.7444" x2="367.836" y2="1599.79" gradientUnits="userSpaceOnUse">
<stop stop-color="#40B9FD"/>
<stop offset="0.9965" stop-color="#2057CD"/>
</linearGradient>
<linearGradient id="paint25_linear_104_69" x1="305.833" y1="58.3984" x2="298.135" y2="1599.44" gradientUnits="userSpaceOnUse">
<stop stop-color="#40B9FD"/>
<stop offset="0.9965" stop-color="#2057CD"/>
</linearGradient>
<linearGradient id="paint26_linear_104_69" x1="445.22" y1="59.095" x2="437.521" y2="1600.13" gradientUnits="userSpaceOnUse">
<stop stop-color="#40B9FD"/>
<stop offset="0.9965" stop-color="#2057CD"/>
</linearGradient>
<linearGradient id="paint27_linear_104_69" x1="462.81" y1="59.1823" x2="455.112" y2="1600.22" gradientUnits="userSpaceOnUse">
<stop stop-color="#40B9FD"/>
<stop offset="0.9965" stop-color="#2057CD"/>
</linearGradient>
<linearGradient id="paint28_linear_104_69" x1="306.633" y1="58.402" x2="298.934" y2="1599.44" gradientUnits="userSpaceOnUse">
<stop stop-color="#40B9FD"/>
<stop offset="0.9965" stop-color="#2057CD"/>
</linearGradient>
<linearGradient id="paint29_linear_104_69" x1="618.959" y1="59.9618" x2="611.26" y2="1601" gradientUnits="userSpaceOnUse">
<stop stop-color="#40B9FD"/>
<stop offset="0.9965" stop-color="#2057CD"/>
</linearGradient>
<linearGradient id="paint30_linear_104_69" x1="514.551" y1="59.44" x2="506.858" y2="1600.49" gradientUnits="userSpaceOnUse">
<stop stop-color="#40B9FD"/>
<stop offset="0.9965" stop-color="#2057CD"/>
</linearGradient>
<linearGradient id="paint31_linear_104_69" x1="478.378" y1="59.2606" x2="470.68" y2="1600.3" gradientUnits="userSpaceOnUse">
<stop stop-color="#40B9FD"/>
<stop offset="0.9965" stop-color="#2057CD"/>
</linearGradient>
<linearGradient id="paint32_linear_104_69" x1="550.722" y1="59.6217" x2="543.023" y2="1600.66" gradientUnits="userSpaceOnUse">
<stop stop-color="#40B9FD"/>
<stop offset="0.9965" stop-color="#2057CD"/>
</linearGradient>
<linearGradient id="paint33_linear_104_69" x1="585.802" y1="59.7968" x2="578.103" y2="1600.84" gradientUnits="userSpaceOnUse">
<stop stop-color="#40B9FD"/>
<stop offset="0.9965" stop-color="#2057CD"/>
</linearGradient>
<linearGradient id="paint34_linear_104_69" x1="493.904" y1="59.3377" x2="486.205" y2="1600.38" gradientUnits="userSpaceOnUse">
<stop stop-color="#40B9FD"/>
<stop offset="0.9965" stop-color="#2057CD"/>
</linearGradient>
<linearGradient id="paint35_linear_104_69" x1="677.672" y1="60.2565" x2="669.974" y2="1601.29" gradientUnits="userSpaceOnUse">
<stop stop-color="#40B9FD"/>
<stop offset="0.9965" stop-color="#2057CD"/>
</linearGradient>
<linearGradient id="paint36_linear_104_69" x1="869.45" y1="61.214" x2="861.751" y2="1602.26" gradientUnits="userSpaceOnUse">
<stop stop-color="#40B9FD"/>
<stop offset="0.9965" stop-color="#2057CD"/>
</linearGradient>
<linearGradient id="paint37_linear_104_69" x1="869.257" y1="61.213" x2="861.558" y2="1602.25" gradientUnits="userSpaceOnUse">
<stop stop-color="#40B9FD"/>
<stop offset="0.9965" stop-color="#2057CD"/>
</linearGradient>
<linearGradient id="paint38_linear_104_69" x1="869.642" y1="61.2148" x2="861.943" y2="1602.26" gradientUnits="userSpaceOnUse">
<stop stop-color="#40B9FD"/>
<stop offset="0.9965" stop-color="#2057CD"/>
</linearGradient>
<linearGradient id="paint39_linear_104_69" x1="823.723" y1="60.9856" x2="816.024" y2="1602.03" gradientUnits="userSpaceOnUse">
<stop stop-color="#40B9FD"/>
<stop offset="0.9965" stop-color="#2057CD"/>
</linearGradient>
<linearGradient id="paint40_linear_104_69" x1="806.861" y1="60.9013" x2="799.162" y2="1601.94" gradientUnits="userSpaceOnUse">
<stop stop-color="#40B9FD"/>
<stop offset="0.9965" stop-color="#2057CD"/>
</linearGradient>
<linearGradient id="paint41_linear_104_69" x1="840.67" y1="61.0709" x2="832.971" y2="1602.11" gradientUnits="userSpaceOnUse">
<stop stop-color="#40B9FD"/>
<stop offset="0.9965" stop-color="#2057CD"/>
</linearGradient>
<linearGradient id="paint42_linear_104_69" x1="840.187" y1="61.0678" x2="832.488" y2="1602.11" gradientUnits="userSpaceOnUse">
<stop stop-color="#40B9FD"/>
<stop offset="0.9965" stop-color="#2057CD"/>
</linearGradient>
<linearGradient id="paint43_linear_104_69" x1="840.099" y1="61.0673" x2="832.4" y2="1602.11" gradientUnits="userSpaceOnUse">
<stop stop-color="#40B9FD"/>
<stop offset="0.9965" stop-color="#2057CD"/>
</linearGradient>
<linearGradient id="paint44_linear_104_69" x1="840.275" y1="61.0682" x2="832.577" y2="1602.11" gradientUnits="userSpaceOnUse">
<stop stop-color="#40B9FD"/>
<stop offset="0.9965" stop-color="#2057CD"/>
</linearGradient>
<linearGradient id="paint45_linear_104_69" x1="759.878" y1="60.6666" x2="752.179" y2="1601.71" gradientUnits="userSpaceOnUse">
<stop stop-color="#40B9FD"/>
<stop offset="0.9965" stop-color="#2057CD"/>
</linearGradient>
<linearGradient id="paint46_linear_104_69" x1="788.158" y1="60.8075" x2="780.459" y2="1601.85" gradientUnits="userSpaceOnUse">
<stop stop-color="#40B9FD"/>
<stop offset="0.9965" stop-color="#2057CD"/>
</linearGradient>
<linearGradient id="paint47_linear_104_69" x1="731.069" y1="60.5226" x2="723.37" y2="1601.56" gradientUnits="userSpaceOnUse">
<stop stop-color="#40B9FD"/>
<stop offset="0.9965" stop-color="#2057CD"/>
</linearGradient>
<linearGradient id="paint48_linear_104_69" x1="592.144" y1="59.8286" x2="584.446" y2="1600.87" gradientUnits="userSpaceOnUse">
<stop stop-color="#40B9FD"/>
<stop offset="0.9965" stop-color="#2057CD"/>
</linearGradient>
<linearGradient id="paint49_linear_104_69" x1="557.937" y1="59.6579" x2="550.239" y2="1600.69" gradientUnits="userSpaceOnUse">
<stop stop-color="#40B9FD"/>
<stop offset="0.9965" stop-color="#2057CD"/>
</linearGradient>
<linearGradient id="paint50_linear_104_69" x1="626.35" y1="59.9993" x2="618.652" y2="1601.04" gradientUnits="userSpaceOnUse">
<stop stop-color="#40B9FD"/>
<stop offset="0.9965" stop-color="#2057CD"/>
</linearGradient>
<linearGradient id="paint51_linear_104_69" x1="714.676" y1="60.4408" x2="706.978" y2="1601.48" gradientUnits="userSpaceOnUse">
<stop stop-color="#40B9FD"/>
<stop offset="0.9965" stop-color="#2057CD"/>
</linearGradient>
<linearGradient id="paint52_linear_104_69" x1="688.642" y1="60.3106" x2="680.944" y2="1601.35" gradientUnits="userSpaceOnUse">
<stop stop-color="#40B9FD"/>
<stop offset="0.9965" stop-color="#2057CD"/>
</linearGradient>
<linearGradient id="paint53_linear_104_69" x1="740.708" y1="60.5712" x2="733.009" y2="1601.61" gradientUnits="userSpaceOnUse">
<stop stop-color="#40B9FD"/>
<stop offset="0.9965" stop-color="#2057CD"/>
</linearGradient>
<linearGradient id="paint54_linear_104_69" x1="751.261" y1="60.6234" x2="743.562" y2="1601.67" gradientUnits="userSpaceOnUse">
<stop stop-color="#40B9FD"/>
<stop offset="0.9965" stop-color="#2057CD"/>
</linearGradient>
<linearGradient id="paint55_linear_104_69" x1="744.832" y1="60.5914" x2="737.133" y2="1601.63" gradientUnits="userSpaceOnUse">
<stop stop-color="#40B9FD"/>
<stop offset="0.9965" stop-color="#2057CD"/>
</linearGradient>
<linearGradient id="paint56_linear_104_69" x1="757.718" y1="60.6561" x2="750.019" y2="1601.69" gradientUnits="userSpaceOnUse">
<stop stop-color="#40B9FD"/>
<stop offset="0.9965" stop-color="#2057CD"/>
</linearGradient>
<linearGradient id="paint57_linear_104_69" x1="669.934" y1="60.2173" x2="662.236" y2="1601.26" gradientUnits="userSpaceOnUse">
<stop stop-color="#40B9FD"/>
<stop offset="0.9965" stop-color="#2057CD"/>
</linearGradient>
<linearGradient id="paint58_linear_104_69" x1="643.832" y1="60.0867" x2="636.134" y2="1601.12" gradientUnits="userSpaceOnUse">
<stop stop-color="#40B9FD"/>
<stop offset="0.9965" stop-color="#2057CD"/>
</linearGradient>
<linearGradient id="paint59_linear_104_69" x1="696.037" y1="60.3476" x2="688.338" y2="1601.39" gradientUnits="userSpaceOnUse">
<stop stop-color="#40B9FD"/>
<stop offset="0.9965" stop-color="#2057CD"/>
</linearGradient>
<linearGradient id="paint60_linear_104_69" x1="880.864" y1="61.2711" x2="873.166" y2="1602.31" gradientUnits="userSpaceOnUse">
<stop stop-color="#40B9FD"/>
<stop offset="0.9965" stop-color="#2057CD"/>
</linearGradient>
<linearGradient id="paint61_linear_104_69" x1="870.337" y1="61.212" x2="862.638" y2="1602.26" gradientUnits="userSpaceOnUse">
<stop stop-color="#40B9FD"/>
<stop offset="0.9965" stop-color="#2057CD"/>
</linearGradient>
<linearGradient id="paint62_linear_104_69" x1="891.391" y1="61.3167" x2="883.692" y2="1602.37" gradientUnits="userSpaceOnUse">
<stop stop-color="#40B9FD"/>
<stop offset="0.9965" stop-color="#2057CD"/>
</linearGradient>
<linearGradient id="paint63_linear_104_69" x1="384.893" y1="58.7929" x2="377.194" y2="1599.83" gradientUnits="userSpaceOnUse">
<stop stop-color="#40B9FD"/>
<stop offset="0.9965" stop-color="#2057CD"/>
</linearGradient>
<linearGradient id="paint64_linear_104_69" x1="182.257" y1="57.7766" x2="174.558" y2="1598.82" gradientUnits="userSpaceOnUse">
<stop stop-color="#40B9FD"/>
<stop offset="0.9965" stop-color="#2057CD"/>
</linearGradient>
<linearGradient id="paint65_linear_104_69" x1="587.527" y1="59.8069" x2="579.829" y2="1600.85" gradientUnits="userSpaceOnUse">
<stop stop-color="#40B9FD"/>
<stop offset="0.9965" stop-color="#2057CD"/>
</linearGradient>
<linearGradient id="paint66_linear_104_69" x1="475.827" y1="59.2488" x2="468.128" y2="1600.29" gradientUnits="userSpaceOnUse">
<stop stop-color="#40B9FD"/>
<stop offset="0.9965" stop-color="#2057CD"/>
</linearGradient>
<linearGradient id="paint67_linear_104_69" x1="248.726" y1="58.1083" x2="241.028" y2="1599.15" gradientUnits="userSpaceOnUse">
<stop stop-color="#40B9FD"/>
<stop offset="0.9965" stop-color="#2057CD"/>
</linearGradient>
<linearGradient id="paint68_linear_104_69" x1="702.928" y1="60.3828" x2="695.229" y2="1601.42" gradientUnits="userSpaceOnUse">
<stop stop-color="#40B9FD"/>
<stop offset="0.9965" stop-color="#2057CD"/>
</linearGradient>
<linearGradient id="paint69_linear_104_69" x1="825.893" y1="60.997" x2="818.195" y2="1601.92" gradientUnits="userSpaceOnUse">
<stop stop-color="#40B9FD"/>
<stop offset="0.9965" stop-color="#2057CD"/>
</linearGradient>
<linearGradient id="paint70_linear_104_69" x1="826.372" y1="61.0049" x2="818.673" y2="1602.04" gradientUnits="userSpaceOnUse">
<stop stop-color="#40B9FD"/>
<stop offset="0.9965" stop-color="#2057CD"/>
</linearGradient>
<linearGradient id="paint71_linear_104_69" x1="825.414" y1="60.9874" x2="817.715" y2="1602.04" gradientUnits="userSpaceOnUse">
<stop stop-color="#40B9FD"/>
<stop offset="0.9965" stop-color="#2057CD"/>
</linearGradient>
<linearGradient id="paint72_linear_104_69" x1="238.841" y1="58.0659" x2="231.142" y2="1599.1" gradientUnits="userSpaceOnUse">
<stop stop-color="#40B9FD"/>
<stop offset="0.9965" stop-color="#2057CD"/>
</linearGradient>
<linearGradient id="paint73_linear_104_69" x1="101.948" y1="57.3795" x2="94.2493" y2="1598.42" gradientUnits="userSpaceOnUse">
<stop stop-color="#40B9FD"/>
<stop offset="0.9965" stop-color="#2057CD"/>
</linearGradient>
<linearGradient id="paint74_linear_104_69" x1="375.734" y1="58.7467" x2="368.035" y2="1599.79" gradientUnits="userSpaceOnUse">
<stop stop-color="#40B9FD"/>
<stop offset="0.9965" stop-color="#2057CD"/>
</linearGradient>
<linearGradient id="paint75_linear_104_69" x1="350.196" y1="58.6193" x2="342.498" y2="1599.66" gradientUnits="userSpaceOnUse">
<stop stop-color="#40B9FD"/>
<stop offset="0.9965" stop-color="#2057CD"/>
</linearGradient>
<linearGradient id="paint76_linear_104_69" x1="142.434" y1="57.588" x2="134.735" y2="1598.62" gradientUnits="userSpaceOnUse">
<stop stop-color="#40B9FD"/>
<stop offset="0.9965" stop-color="#2057CD"/>
</linearGradient>
<linearGradient id="paint77_linear_104_69" x1="557.959" y1="59.6588" x2="550.26" y2="1600.7" gradientUnits="userSpaceOnUse">
<stop stop-color="#40B9FD"/>
<stop offset="0.9965" stop-color="#2057CD"/>
</linearGradient>
<linearGradient id="paint78_linear_104_69" x1="264.495" y1="58.1914" x2="256.796" y2="1599.23" gradientUnits="userSpaceOnUse">
<stop stop-color="#40B9FD"/>
<stop offset="0.9965" stop-color="#2057CD"/>
</linearGradient>
<linearGradient id="paint79_linear_104_69" x1="102.401" y1="57.3817" x2="94.7021" y2="1598.42" gradientUnits="userSpaceOnUse">
<stop stop-color="#40B9FD"/>
<stop offset="0.9965" stop-color="#2057CD"/>
</linearGradient>
<linearGradient id="paint80_linear_104_69" x1="426.056" y1="58.9993" x2="418.357" y2="1600.04" gradientUnits="userSpaceOnUse">
<stop stop-color="#40B9FD"/>
<stop offset="0.9965" stop-color="#2057CD"/>
</linearGradient>
<linearGradient id="paint81_linear_104_69" x1="239.587" y1="58.0656" x2="231.888" y2="1599.1" gradientUnits="userSpaceOnUse">
<stop stop-color="#40B9FD"/>
<stop offset="0.9965" stop-color="#2057CD"/>
</linearGradient>
<linearGradient id="paint82_linear_104_69" x1="98.179" y1="57.3637" x2="90.4802" y2="1598.4" gradientUnits="userSpaceOnUse">
<stop stop-color="#40B9FD"/>
<stop offset="0.9965" stop-color="#2057CD"/>
</linearGradient>
<linearGradient id="paint83_linear_104_69" x1="380.995" y1="58.7727" x2="373.297" y2="1599.81" gradientUnits="userSpaceOnUse">
<stop stop-color="#40B9FD"/>
<stop offset="0.9965" stop-color="#2057CD"/>
</linearGradient>
<linearGradient id="paint84_linear_104_69" x1="221.552" y1="57.9748" x2="213.853" y2="1599.02" gradientUnits="userSpaceOnUse">
<stop stop-color="#40B9FD"/>
<stop offset="0.9965" stop-color="#2057CD"/>
</linearGradient>
<linearGradient id="paint85_linear_104_69" x1="142.851" y1="57.5836" x2="135.153" y2="1598.63" gradientUnits="userSpaceOnUse">
<stop stop-color="#40B9FD"/>
<stop offset="0.9965" stop-color="#2057CD"/>
</linearGradient>
<linearGradient id="paint86_linear_104_69" x1="300.252" y1="58.3662" x2="292.553" y2="1599.41" gradientUnits="userSpaceOnUse">
<stop stop-color="#40B9FD"/>
<stop offset="0.9965" stop-color="#2057CD"/>
</linearGradient>
<linearGradient id="paint87_linear_104_69" x1="212.768" y1="57.925" x2="205.069" y2="1598.98" gradientUnits="userSpaceOnUse">
<stop stop-color="#40B9FD"/>
<stop offset="0.9965" stop-color="#2057CD"/>
</linearGradient>
<linearGradient id="paint88_linear_104_69" x1="160.497" y1="57.6765" x2="152.799" y2="1598.71" gradientUnits="userSpaceOnUse">
<stop stop-color="#40B9FD"/>
<stop offset="0.9965" stop-color="#2057CD"/>
</linearGradient>
<linearGradient id="paint89_linear_104_69" x1="265.039" y1="58.1979" x2="257.34" y2="1599.23" gradientUnits="userSpaceOnUse">
<stop stop-color="#40B9FD"/>
<stop offset="0.9965" stop-color="#2057CD"/>
</linearGradient>
<linearGradient id="paint90_linear_104_69" x1="759.881" y1="60.6659" x2="752.182" y2="1601.71" gradientUnits="userSpaceOnUse">
<stop stop-color="#40B9FD"/>
<stop offset="0.9965" stop-color="#2057CD"/>
</linearGradient>
<linearGradient id="paint91_linear_104_69" x1="788.29" y1="60.8011" x2="780.591" y2="1601.85" gradientUnits="userSpaceOnUse">
<stop stop-color="#40B9FD"/>
<stop offset="0.9965" stop-color="#2057CD"/>
</linearGradient>
<linearGradient id="paint92_linear_104_69" x1="731.472" y1="60.5289" x2="723.773" y2="1601.56" gradientUnits="userSpaceOnUse">
<stop stop-color="#40B9FD"/>
<stop offset="0.9965" stop-color="#2057CD"/>
</linearGradient>
<linearGradient id="paint93_linear_104_69" x1="517.77" y1="59.4349" x2="510.043" y2="1600.5" gradientUnits="userSpaceOnUse">
<stop stop-color="#40B9FD"/>
<stop offset="0.9965" stop-color="#2057CD"/>
</linearGradient>
<linearGradient id="paint94_linear_104_69" x1="412.77" y1="58.9278" x2="405.071" y2="1599.97" gradientUnits="userSpaceOnUse">
<stop stop-color="#40B9FD"/>
<stop offset="0.9965" stop-color="#2057CD"/>
</linearGradient>
<linearGradient id="paint95_linear_104_69" x1="622.816" y1="59.9873" x2="615.117" y2="1601.02" gradientUnits="userSpaceOnUse">
<stop stop-color="#40B9FD"/>
<stop offset="0.9965" stop-color="#2057CD"/>
</linearGradient>
<linearGradient id="paint96_linear_104_69" x1="683.635" y1="60.2825" x2="675.93" y2="1601.33" gradientUnits="userSpaceOnUse">
<stop stop-color="#40B9FD"/>
<stop offset="0.9965" stop-color="#2057CD"/>
</linearGradient>
<linearGradient id="paint97_linear_104_69" x1="667.05" y1="60.2089" x2="659.351" y2="1601.24" gradientUnits="userSpaceOnUse">
<stop stop-color="#40B9FD"/>
<stop offset="0.9965" stop-color="#2057CD"/>
</linearGradient>
<linearGradient id="paint98_linear_104_69" x1="700.23" y1="60.3652" x2="692.531" y2="1601.41" gradientUnits="userSpaceOnUse">
<stop stop-color="#40B9FD"/>
<stop offset="0.9965" stop-color="#2057CD"/>
</linearGradient>
<linearGradient id="paint99_linear_104_69" x1="683.158" y1="60.282" x2="675.459" y2="1601.32" gradientUnits="userSpaceOnUse">
<stop stop-color="#40B9FD"/>
<stop offset="0.9965" stop-color="#2057CD"/>
</linearGradient>
<linearGradient id="paint100_linear_104_69" x1="620.413" y1="59.9807" x2="612.715" y2="1601.01" gradientUnits="userSpaceOnUse">
<stop stop-color="#40B9FD"/>
<stop offset="0.9965" stop-color="#2057CD"/>
</linearGradient>
<linearGradient id="paint101_linear_104_69" x1="745.902" y1="60.599" x2="738.203" y2="1601.64" gradientUnits="userSpaceOnUse">
<stop stop-color="#40B9FD"/>
<stop offset="0.9965" stop-color="#2057CD"/>
</linearGradient>
<linearGradient id="paint102_linear_104_69" x1="608.939" y1="59.9321" x2="601.267" y2="1600.95" gradientUnits="userSpaceOnUse">
<stop stop-color="#40B9FD"/>
<stop offset="0.9965" stop-color="#2057CD"/>
</linearGradient>
<linearGradient id="paint103_linear_104_69" x1="576.791" y1="59.7458" x2="569.092" y2="1600.79" gradientUnits="userSpaceOnUse">
<stop stop-color="#40B9FD"/>
<stop offset="0.9965" stop-color="#2057CD"/>
</linearGradient>
<linearGradient id="paint104_linear_104_69" x1="641.041" y1="60.0732" x2="633.342" y2="1601.11" gradientUnits="userSpaceOnUse">
<stop stop-color="#40B9FD"/>
<stop offset="0.9965" stop-color="#2057CD"/>
</linearGradient>
<linearGradient id="paint105_linear_104_69" x1="712.993" y1="60.4092" x2="705.267" y2="1601.48" gradientUnits="userSpaceOnUse">
<stop stop-color="#40B9FD"/>
<stop offset="0.9965" stop-color="#2057CD"/>
</linearGradient>
<linearGradient id="paint106_linear_104_69" x1="699.533" y1="60.3614" x2="691.834" y2="1601.41" gradientUnits="userSpaceOnUse">
<stop stop-color="#40B9FD"/>
<stop offset="0.9965" stop-color="#2057CD"/>
</linearGradient>
<linearGradient id="paint107_linear_104_69" x1="726.498" y1="60.5024" x2="718.799" y2="1601.54" gradientUnits="userSpaceOnUse">
<stop stop-color="#40B9FD"/>
<stop offset="0.9965" stop-color="#2057CD"/>
</linearGradient>
<linearGradient id="paint108_linear_104_69" x1="449.972" y1="59.1192" x2="442.273" y2="1600.16" gradientUnits="userSpaceOnUse">
<stop stop-color="#40B9FD"/>
<stop offset="0.9965" stop-color="#2057CD"/>
</linearGradient>
<linearGradient id="paint109_linear_104_69" x1="325.883" y1="58.4928" x2="318.184" y2="1599.54" gradientUnits="userSpaceOnUse">
<stop stop-color="#40B9FD"/>
<stop offset="0.9965" stop-color="#2057CD"/>
</linearGradient>
<linearGradient id="paint110_linear_104_69" x1="574.061" y1="59.7307" x2="566.362" y2="1600.78" gradientUnits="userSpaceOnUse">
<stop stop-color="#40B9FD"/>
<stop offset="0.9965" stop-color="#2057CD"/>
</linearGradient>
<linearGradient id="paint111_linear_104_69" x1="369.801" y1="58.7185" x2="362.102" y2="1599.76" gradientUnits="userSpaceOnUse">
<stop stop-color="#40B9FD"/>
<stop offset="0.9965" stop-color="#2057CD"/>
</linearGradient>
<linearGradient id="paint112_linear_104_69" x1="280.4" y1="58.267" x2="272.701" y2="1599.31" gradientUnits="userSpaceOnUse">
<stop stop-color="#40B9FD"/>
<stop offset="0.9965" stop-color="#2057CD"/>
</linearGradient>
<linearGradient id="paint113_linear_104_69" x1="459.203" y1="59.1637" x2="451.504" y2="1600.2" gradientUnits="userSpaceOnUse">
<stop stop-color="#40B9FD"/>
<stop offset="0.9965" stop-color="#2057CD"/>
</linearGradient>
<linearGradient id="paint114_linear_104_69" x1="353.708" y1="58.6366" x2="346.009" y2="1599.68" gradientUnits="userSpaceOnUse">
<stop stop-color="#40B9FD"/>
<stop offset="0.9965" stop-color="#2057CD"/>
</linearGradient>
<linearGradient id="paint115_linear_104_69" x1="165.585" y1="57.6938" x2="157.887" y2="1598.74" gradientUnits="userSpaceOnUse">
<stop stop-color="#40B9FD"/>
<stop offset="0.9965" stop-color="#2057CD"/>
</linearGradient>
<linearGradient id="paint116_linear_104_69" x1="541.831" y1="59.581" x2="534.132" y2="1600.62" gradientUnits="userSpaceOnUse">
<stop stop-color="#40B9FD"/>
<stop offset="0.9965" stop-color="#2057CD"/>
</linearGradient>
<linearGradient id="paint117_linear_104_69" x1="259.264" y1="58.1443" x2="251.537" y2="1599.22" gradientUnits="userSpaceOnUse">
<stop stop-color="#40B9FD"/>
<stop offset="0.9965" stop-color="#2057CD"/>
</linearGradient>
<linearGradient id="paint118_linear_104_69" x1="204.624" y1="57.8892" x2="196.925" y2="1598.94" gradientUnits="userSpaceOnUse">
<stop stop-color="#40B9FD"/>
<stop offset="0.9965" stop-color="#2057CD"/>
</linearGradient>
<linearGradient id="paint119_linear_104_69" x1="313.945" y1="58.4416" x2="306.246" y2="1599.48" gradientUnits="userSpaceOnUse">
<stop stop-color="#40B9FD"/>
<stop offset="0.9965" stop-color="#2057CD"/>
</linearGradient>
<linearGradient id="paint120_linear_104_69" x1="313.657" y1="58.4382" x2="305.959" y2="1599.48" gradientUnits="userSpaceOnUse">
<stop stop-color="#40B9FD"/>
<stop offset="0.9965" stop-color="#2057CD"/>
</linearGradient>
<linearGradient id="paint121_linear_104_69" x1="195.161" y1="57.8463" x2="187.462" y2="1598.89" gradientUnits="userSpaceOnUse">
<stop stop-color="#40B9FD"/>
<stop offset="0.9965" stop-color="#2057CD"/>
</linearGradient>
<linearGradient id="paint122_linear_104_69" x1="432.154" y1="59.03" x2="424.456" y2="1600.07" gradientUnits="userSpaceOnUse">
<stop stop-color="#40B9FD"/>
<stop offset="0.9965" stop-color="#2057CD"/>
</linearGradient>
<linearGradient id="paint123_linear_104_69" x1="574.143" y1="59.7411" x2="566.444" y2="1600.79" gradientUnits="userSpaceOnUse">
<stop stop-color="#40B9FD"/>
<stop offset="0.9965" stop-color="#2057CD"/>
</linearGradient>
<linearGradient id="paint124_linear_104_69" x1="496.963" y1="59.348" x2="489.264" y2="1600.4" gradientUnits="userSpaceOnUse">
<stop stop-color="#40B9FD"/>
<stop offset="0.9965" stop-color="#2057CD"/>
</linearGradient>
<linearGradient id="paint125_linear_104_69" x1="650.79" y1="60.1316" x2="643.092" y2="1601.16" gradientUnits="userSpaceOnUse">
<stop stop-color="#40B9FD"/>
<stop offset="0.9965" stop-color="#2057CD"/>
</linearGradient>
<linearGradient id="paint126_linear_104_69" x1="525.923" y1="59.4985" x2="518.224" y2="1600.54" gradientUnits="userSpaceOnUse">
<stop stop-color="#40B9FD"/>
<stop offset="0.9965" stop-color="#2057CD"/>
</linearGradient>
<linearGradient id="paint127_linear_104_69" x1="461.252" y1="59.1739" x2="453.553" y2="1600.22" gradientUnits="userSpaceOnUse">
<stop stop-color="#40B9FD"/>
<stop offset="0.9965" stop-color="#2057CD"/>
</linearGradient>
<linearGradient id="paint128_linear_104_69" x1="590.594" y1="59.8218" x2="582.895" y2="1600.86" gradientUnits="userSpaceOnUse">
<stop stop-color="#40B9FD"/>
<stop offset="0.9965" stop-color="#2057CD"/>
</linearGradient>
<linearGradient id="paint129_linear_104_69" x1="177.409" y1="57.7556" x2="169.71" y2="1598.8" gradientUnits="userSpaceOnUse">
<stop stop-color="#40B9FD"/>
<stop offset="0.9965" stop-color="#2057CD"/>
</linearGradient>
<linearGradient id="paint130_linear_104_69" x1="9.89546" y1="56.9185" x2="2.19667" y2="1597.96" gradientUnits="userSpaceOnUse">
<stop stop-color="#40B9FD"/>
<stop offset="0.9965" stop-color="#2057CD"/>
</linearGradient>
<linearGradient id="paint131_linear_104_69" x1="344.922" y1="58.5933" x2="337.223" y2="1599.64" gradientUnits="userSpaceOnUse">
<stop stop-color="#40B9FD"/>
<stop offset="0.9965" stop-color="#2057CD"/>
</linearGradient>
<linearGradient id="paint132_linear_104_69" x1="252.613" y1="58.1317" x2="244.915" y2="1599.18" gradientUnits="userSpaceOnUse">
<stop stop-color="#40B9FD"/>
<stop offset="0.9965" stop-color="#2057CD"/>
</linearGradient>
<linearGradient id="paint133_linear_104_69" x1="212.579" y1="57.9319" x2="204.88" y2="1598.98" gradientUnits="userSpaceOnUse">
<stop stop-color="#40B9FD"/>
<stop offset="0.9965" stop-color="#2057CD"/>
</linearGradient>
<linearGradient id="paint134_linear_104_69" x1="292.648" y1="58.3322" x2="284.95" y2="1599.37" gradientUnits="userSpaceOnUse">
<stop stop-color="#40B9FD"/>
<stop offset="0.9965" stop-color="#2057CD"/>
</linearGradient>
<linearGradient id="paint135_linear_104_69" x1="479.026" y1="59.2656" x2="471.32" y2="1600.3" gradientUnits="userSpaceOnUse">
<stop stop-color="#40B9FD"/>
<stop offset="0.9965" stop-color="#2057CD"/>
</linearGradient>
<linearGradient id="paint136_linear_104_69" x1="455.788" y1="59.1472" x2="448.089" y2="1600.19" gradientUnits="userSpaceOnUse">
<stop stop-color="#40B9FD"/>
<stop offset="0.9965" stop-color="#2057CD"/>
</linearGradient>
<linearGradient id="paint137_linear_104_69" x1="502.267" y1="59.3805" x2="494.569" y2="1600.42" gradientUnits="userSpaceOnUse">
<stop stop-color="#40B9FD"/>
<stop offset="0.9965" stop-color="#2057CD"/>
</linearGradient>
<linearGradient id="paint138_linear_104_69" x1="243.631" y1="58.087" x2="235.933" y2="1599.13" gradientUnits="userSpaceOnUse">
<stop stop-color="#40B9FD"/>
<stop offset="0.9965" stop-color="#2057CD"/>
</linearGradient>
<linearGradient id="paint139_linear_104_69" x1="213.464" y1="57.9356" x2="205.765" y2="1598.98" gradientUnits="userSpaceOnUse">
<stop stop-color="#40B9FD"/>
<stop offset="0.9965" stop-color="#2057CD"/>
</linearGradient>
<linearGradient id="paint140_linear_104_69" x1="273.799" y1="58.2384" x2="266.1" y2="1599.28" gradientUnits="userSpaceOnUse">
<stop stop-color="#40B9FD"/>
<stop offset="0.9965" stop-color="#2057CD"/>
</linearGradient>
<linearGradient id="paint141_linear_104_69" x1="372.428" y1="58.7317" x2="364.73" y2="1599.77" gradientUnits="userSpaceOnUse">
<stop stop-color="#40B9FD"/>
<stop offset="0.9965" stop-color="#2057CD"/>
</linearGradient>
<linearGradient id="paint142_linear_104_69" x1="348.809" y1="58.6116" x2="341.11" y2="1599.66" gradientUnits="userSpaceOnUse">
<stop stop-color="#40B9FD"/>
<stop offset="0.9965" stop-color="#2057CD"/>
</linearGradient>
<linearGradient id="paint143_linear_104_69" x1="396.046" y1="58.8508" x2="388.348" y2="1599.89" gradientUnits="userSpaceOnUse">
<stop stop-color="#40B9FD"/>
<stop offset="0.9965" stop-color="#2057CD"/>
</linearGradient>
<linearGradient id="paint144_linear_104_69" x1="461.078" y1="59.1737" x2="453.385" y2="1600.22" gradientUnits="userSpaceOnUse">
<stop stop-color="#40B9FD"/>
<stop offset="0.9965" stop-color="#2057CD"/>
</linearGradient>
<linearGradient id="paint145_linear_104_69" x1="429.665" y1="59.0166" x2="421.966" y2="1600.05" gradientUnits="userSpaceOnUse">
<stop stop-color="#40B9FD"/>
<stop offset="0.9965" stop-color="#2057CD"/>
</linearGradient>
<linearGradient id="paint146_linear_104_69" x1="492.491" y1="59.3307" x2="484.792" y2="1600.37" gradientUnits="userSpaceOnUse">
<stop stop-color="#40B9FD"/>
<stop offset="0.9965" stop-color="#2057CD"/>
</linearGradient>
<linearGradient id="paint147_linear_104_69" x1="879.156" y1="61.2625" x2="871.458" y2="1602.3" gradientUnits="userSpaceOnUse">
<stop stop-color="#40B9FD"/>
<stop offset="0.9965" stop-color="#2057CD"/>
</linearGradient>
<linearGradient id="paint148_linear_104_69" x1="892.62" y1="61.3298" x2="884.921" y2="1602.37" gradientUnits="userSpaceOnUse">
<stop stop-color="#40B9FD"/>
<stop offset="0.9965" stop-color="#2057CD"/>
</linearGradient>
<linearGradient id="paint149_linear_104_69" x1="865.482" y1="61.1942" x2="857.784" y2="1602.23" gradientUnits="userSpaceOnUse">
<stop stop-color="#40B9FD"/>
<stop offset="0.9965" stop-color="#2057CD"/>
</linearGradient>
<linearGradient id="paint150_linear_104_69" x1="665.818" y1="60.1966" x2="658.12" y2="1601.24" gradientUnits="userSpaceOnUse">
<stop stop-color="#40B9FD"/>
<stop offset="0.9965" stop-color="#2057CD"/>
</linearGradient>
<linearGradient id="paint151_linear_104_69" x1="612.816" y1="59.9317" x2="605.117" y2="1600.97" gradientUnits="userSpaceOnUse">
<stop stop-color="#40B9FD"/>
<stop offset="0.9965" stop-color="#2057CD"/>
</linearGradient>
<linearGradient id="paint152_linear_104_69" x1="719.35" y1="60.464" x2="711.651" y2="1601.5" gradientUnits="userSpaceOnUse">
<stop stop-color="#40B9FD"/>
<stop offset="0.9965" stop-color="#2057CD"/>
</linearGradient>
<linearGradient id="paint153_linear_104_69" x1="224.846" y1="57.9955" x2="217.148" y2="1599.03" gradientUnits="userSpaceOnUse">
<stop stop-color="#40B9FD"/>
<stop offset="0.9965" stop-color="#2057CD"/>
</linearGradient>
<linearGradient id="paint154_linear_104_69" x1="51.6951" y1="57.1282" x2="43.9963" y2="1598.17" gradientUnits="userSpaceOnUse">
<stop stop-color="#40B9FD"/>
<stop offset="0.9965" stop-color="#2057CD"/>
</linearGradient>
<linearGradient id="paint155_linear_104_69" x1="397.998" y1="58.8564" x2="390.299" y2="1599.9" gradientUnits="userSpaceOnUse">
<stop stop-color="#40B9FD"/>
<stop offset="0.9965" stop-color="#2057CD"/>
</linearGradient>
<linearGradient id="paint156_linear_104_69" x1="276.519" y1="58.2524" x2="268.82" y2="1599.3" gradientUnits="userSpaceOnUse">
<stop stop-color="#40B9FD"/>
<stop offset="0.9965" stop-color="#2057CD"/>
</linearGradient>
<linearGradient id="paint157_linear_104_69" x1="194.14" y1="57.8415" x2="186.441" y2="1598.88" gradientUnits="userSpaceOnUse">
<stop stop-color="#40B9FD"/>
<stop offset="0.9965" stop-color="#2057CD"/>
</linearGradient>
<linearGradient id="paint158_linear_104_69" x1="358.898" y1="58.6649" x2="351.199" y2="1599.7" gradientUnits="userSpaceOnUse">
<stop stop-color="#40B9FD"/>
<stop offset="0.9965" stop-color="#2057CD"/>
</linearGradient>
<linearGradient id="paint159_linear_104_69" x1="581.1" y1="59.7731" x2="573.401" y2="1600.81" gradientUnits="userSpaceOnUse">
<stop stop-color="#40B9FD"/>
<stop offset="0.9965" stop-color="#2057CD"/>
</linearGradient>
<linearGradient id="paint160_linear_104_69" x1="465.577" y1="59.1954" x2="457.879" y2="1600.24" gradientUnits="userSpaceOnUse">
<stop stop-color="#40B9FD"/>
<stop offset="0.9965" stop-color="#2057CD"/>
</linearGradient>
<linearGradient id="paint161_linear_104_69" x1="696.623" y1="60.3461" x2="688.924" y2="1601.39" gradientUnits="userSpaceOnUse">
<stop stop-color="#40B9FD"/>
<stop offset="0.9965" stop-color="#2057CD"/>
</linearGradient>
<linearGradient id="paint162_linear_104_69" x1="760.296" y1="60.6678" x2="752.597" y2="1601.71" gradientUnits="userSpaceOnUse">
<stop stop-color="#40B9FD"/>
<stop offset="0.9965" stop-color="#2057CD"/>
</linearGradient>
<linearGradient id="paint163_linear_104_69" x1="760.399" y1="60.6746" x2="752.7" y2="1601.71" gradientUnits="userSpaceOnUse">
<stop stop-color="#40B9FD"/>
<stop offset="0.9965" stop-color="#2057CD"/>
</linearGradient>
<linearGradient id="paint164_linear_104_69" x1="760.193" y1="60.662" x2="752.494" y2="1601.71" gradientUnits="userSpaceOnUse">
<stop stop-color="#40B9FD"/>
<stop offset="0.9965" stop-color="#2057CD"/>
</linearGradient>
<linearGradient id="paint165_linear_104_69" x1="516.08" y1="59.4724" x2="508.408" y2="1600.49" gradientUnits="userSpaceOnUse">
<stop stop-color="#40B9FD"/>
<stop offset="0.9965" stop-color="#2057CD"/>
</linearGradient>
<linearGradient id="paint166_linear_104_69" x1="480.976" y1="59.2774" x2="473.278" y2="1600.31" gradientUnits="userSpaceOnUse">
<stop stop-color="#40B9FD"/>
<stop offset="0.9965" stop-color="#2057CD"/>
</linearGradient>
<linearGradient id="paint167_linear_104_69" x1="551.141" y1="59.6198" x2="543.442" y2="1600.67" gradientUnits="userSpaceOnUse">
<stop stop-color="#40B9FD"/>
<stop offset="0.9965" stop-color="#2057CD"/>
</linearGradient>
<linearGradient id="paint168_linear_104_69" x1="321.134" y1="58.455" x2="313.407" y2="1599.53" gradientUnits="userSpaceOnUse">
<stop stop-color="#40B9FD"/>
<stop offset="0.9965" stop-color="#2057CD"/>
</linearGradient>
<linearGradient id="paint169_linear_104_69" x1="272.777" y1="58.2286" x2="265.078" y2="1599.28" gradientUnits="userSpaceOnUse">
<stop stop-color="#40B9FD"/>
<stop offset="0.9965" stop-color="#2057CD"/>
</linearGradient>
<linearGradient id="paint170_linear_104_69" x1="369.533" y1="58.7161" x2="361.834" y2="1599.76" gradientUnits="userSpaceOnUse">
<stop stop-color="#40B9FD"/>
<stop offset="0.9965" stop-color="#2057CD"/>
</linearGradient>
<linearGradient id="paint171_linear_104_69" x1="497.336" y1="59.3784" x2="489.638" y2="1600.39" gradientUnits="userSpaceOnUse">
<stop stop-color="#40B9FD"/>
<stop offset="0.9965" stop-color="#2057CD"/>
</linearGradient>
<linearGradient id="paint172_linear_104_69" x1="468.813" y1="59.2106" x2="461.115" y2="1600.25" gradientUnits="userSpaceOnUse">
<stop stop-color="#40B9FD"/>
<stop offset="0.9965" stop-color="#2057CD"/>
</linearGradient>
<linearGradient id="paint173_linear_104_69" x1="525.861" y1="59.5019" x2="518.162" y2="1600.54" gradientUnits="userSpaceOnUse">
<stop stop-color="#40B9FD"/>
<stop offset="0.9965" stop-color="#2057CD"/>
</linearGradient>
<linearGradient id="paint174_linear_104_69" x1="767.641" y1="60.7055" x2="759.943" y2="1601.75" gradientUnits="userSpaceOnUse">
<stop stop-color="#40B9FD"/>
<stop offset="0.9965" stop-color="#2057CD"/>
</linearGradient>
<linearGradient id="paint175_linear_104_69" x1="748.692" y1="60.6137" x2="740.993" y2="1601.65" gradientUnits="userSpaceOnUse">
<stop stop-color="#40B9FD"/>
<stop offset="0.9965" stop-color="#2057CD"/>
</linearGradient>
<linearGradient id="paint176_linear_104_69" x1="786.563" y1="60.7935" x2="778.864" y2="1601.84" gradientUnits="userSpaceOnUse">
<stop stop-color="#40B9FD"/>
<stop offset="0.9965" stop-color="#2057CD"/>
</linearGradient>
<linearGradient id="paint177_linear_104_69" x1="436.582" y1="59.0519" x2="428.884" y2="1600.09" gradientUnits="userSpaceOnUse">
<stop stop-color="#40B9FD"/>
<stop offset="0.9965" stop-color="#2057CD"/>
</linearGradient>
<linearGradient id="paint178_linear_104_69" x1="373.237" y1="58.7352" x2="365.539" y2="1599.78" gradientUnits="userSpaceOnUse">
<stop stop-color="#40B9FD"/>
<stop offset="0.9965" stop-color="#2057CD"/>
</linearGradient>
<linearGradient id="paint179_linear_104_69" x1="499.927" y1="59.3652" x2="492.228" y2="1600.41" gradientUnits="userSpaceOnUse">
<stop stop-color="#40B9FD"/>
<stop offset="0.9965" stop-color="#2057CD"/>
</linearGradient>
<linearGradient id="paint180_linear_104_69" x1="229.832" y1="58.0183" x2="222.133" y2="1599.06" gradientUnits="userSpaceOnUse">
<stop stop-color="#40B9FD"/>
<stop offset="0.9965" stop-color="#2057CD"/>
</linearGradient>
<linearGradient id="paint181_linear_104_69" x1="161.519" y1="57.6765" x2="153.821" y2="1598.72" gradientUnits="userSpaceOnUse">
<stop stop-color="#40B9FD"/>
<stop offset="0.9965" stop-color="#2057CD"/>
</linearGradient>
<linearGradient id="paint182_linear_104_69" x1="298.144" y1="58.3617" x2="290.446" y2="1599.4" gradientUnits="userSpaceOnUse">
<stop stop-color="#40B9FD"/>
<stop offset="0.9965" stop-color="#2057CD"/>
</linearGradient>
</defs>
</svg>
