<svg width="900" height="1469" viewBox="0 0 900 1469" fill="none" xmlns="http://www.w3.org/2000/svg">
<path d="M725.169 5.88114L295.677 435.577L296.947 436.847L726.439 7.15151L725.169 5.88114Z" fill="url(#paint0_linear_104_315)"/>
<path d="M730.34 11.5319C732.976 8.8941 732.976 4.61608 730.34 1.97832C727.703 -0.65944 723.427 -0.65944 720.791 1.97832C718.154 4.61608 718.154 8.89405 720.791 11.5318C723.427 14.1695 727.703 14.1696 730.34 11.5319Z" fill="url(#paint1_linear_104_315)"/>
<path d="M301.325 440.75C298.689 443.388 294.413 443.388 291.776 440.75C289.14 438.112 289.14 433.834 291.776 431.196C294.413 428.559 298.689 428.559 301.325 431.196C303.962 433.834 303.962 438.112 301.325 440.75Z" fill="url(#paint2_linear_104_315)"/>
<path d="M385.344 421.463L431.747 375.038H485.825L579.138 281.681V227.563L734.675 71.9526L733.405 70.6823L577.342 226.819V280.937L485.081 373.241H431.004L384.074 420.193L385.344 421.463Z" fill="url(#paint3_linear_104_315)"/>
<path d="M738.576 76.3329C741.213 73.6951 741.213 69.4171 738.576 66.7793C735.94 64.1416 731.664 64.1416 729.027 66.7793C726.391 69.4171 726.391 73.695 729.027 76.3328C731.664 78.9705 735.94 78.9706 738.576 76.3329Z" fill="url(#paint4_linear_104_315)"/>
<path d="M389.722 425.366C387.086 428.004 382.81 428.004 380.173 425.366C377.537 422.729 377.537 418.451 380.173 415.813C382.81 413.175 387.086 413.175 389.722 415.813C392.359 418.45 392.359 422.729 389.722 425.366Z" fill="url(#paint5_linear_104_315)"/>
<path d="M533.272 246.485L456.69 323.103L457.96 324.374L534.542 247.755L533.272 246.485Z" fill="url(#paint6_linear_104_315)"/>
<path d="M538.442 252.135C541.079 249.497 541.079 245.219 538.442 242.582C535.806 239.944 531.53 239.944 528.893 242.582C526.257 245.219 526.257 249.497 528.893 252.135C531.53 254.773 535.806 254.773 538.442 252.135Z" fill="url(#paint7_linear_104_315)"/>
<path d="M462.338 328.276C459.701 330.914 455.425 330.914 452.789 328.276C450.152 325.638 450.152 321.36 452.789 318.722C455.425 316.085 459.701 316.085 462.338 318.722C464.974 321.36 464.974 325.638 462.338 328.276Z" fill="url(#paint8_linear_104_315)"/>
<path d="M453.608 770.738L500.426 723.898V663.804L587.521 576.667V529.288L743.734 373L742.465 371.73L585.725 528.544V575.923L498.63 663.059V723.154L452.338 769.468L453.608 770.738Z" fill="url(#paint9_linear_104_315)"/>
<path d="M747.635 377.381C750.272 374.743 750.272 370.465 747.635 367.827C744.999 365.189 740.723 365.189 738.086 367.827C735.45 370.465 735.45 374.743 738.086 377.381C740.723 380.018 744.999 380.018 747.635 377.381Z" fill="url(#paint10_linear_104_315)"/>
<path d="M457.986 774.641C455.349 777.279 451.073 777.279 448.437 774.641C445.8 772.003 445.8 767.725 448.437 765.087C451.073 762.45 455.349 762.45 457.986 765.087C460.622 767.725 460.622 772.003 457.986 774.641Z" fill="url(#paint11_linear_104_315)"/>
<path d="M394.921 586.778L543.116 438.512V381.589L714.909 209.714L713.639 208.444L541.32 380.845V437.768L393.651 585.508L394.921 586.778Z" fill="url(#paint12_linear_104_315)"/>
<path d="M718.809 214.095C721.446 211.457 721.446 207.179 718.81 204.541C716.173 201.903 711.897 201.903 709.261 204.541C706.624 207.179 706.624 211.457 709.261 214.095C711.897 216.732 716.173 216.732 718.809 214.095Z" fill="url(#paint13_linear_104_315)"/>
<path d="M399.299 590.681C396.662 593.318 392.386 593.318 389.75 590.681C387.113 588.043 387.113 583.765 389.75 581.127C392.386 578.489 396.662 578.489 399.299 581.127C401.935 583.765 401.935 588.043 399.299 590.681Z" fill="url(#paint14_linear_104_315)"/>
<path d="M292.043 558.167L352.957 497.224H412.762L507.157 402.784L505.888 401.514L412.018 495.427H352.213L290.773 556.897L292.043 558.167Z" fill="url(#paint15_linear_104_315)"/>
<path d="M511.058 407.164C513.695 404.526 513.695 400.249 511.058 397.611C508.422 394.973 504.146 394.973 501.509 397.611C498.873 400.249 498.873 404.526 501.509 407.164C504.146 409.802 508.422 409.802 511.058 407.164Z" fill="url(#paint16_linear_104_315)"/>
<path d="M296.421 562.07C293.784 564.708 289.508 564.708 286.872 562.07C284.235 559.432 284.235 555.154 286.872 552.517C289.508 549.879 293.784 549.879 296.421 552.517C299.057 555.154 299.057 559.432 296.421 562.07Z" fill="url(#paint17_linear_104_315)"/>
<path d="M587.99 418.949H589.786V392.713L693.908 288.542L692.638 287.272L587.99 391.969V418.949Z" fill="url(#paint18_linear_104_315)"/>
<path d="M697.808 292.922C700.445 290.285 700.445 286.007 697.808 283.369C695.172 280.731 690.896 280.731 688.259 283.369C685.623 286.007 685.623 290.285 688.259 292.922C690.896 295.56 695.171 295.56 697.808 292.922Z" fill="url(#paint19_linear_104_315)"/>
<path d="M595.64 418.611C595.64 422.341 592.616 425.366 588.888 425.366C585.159 425.366 582.136 422.341 582.136 418.611C582.136 414.88 585.159 411.856 588.888 411.856C592.616 411.856 595.64 414.881 595.64 418.611Z" fill="url(#paint20_linear_104_315)"/>
<path d="M464.034 562.402L578.347 448.034H625.498L625.761 447.771L693.907 379.592L692.638 378.322L624.754 446.237H577.604L462.764 561.131L464.034 562.402Z" fill="url(#paint21_linear_104_315)"/>
<path d="M697.808 383.972C700.445 381.335 700.445 377.057 697.808 374.419C695.172 371.781 690.896 371.781 688.259 374.419C685.623 377.057 685.623 381.335 688.259 383.972C690.896 386.61 695.171 386.61 697.808 383.972Z" fill="url(#paint22_linear_104_315)"/>
<path d="M468.412 566.304C465.775 568.942 461.5 568.942 458.863 566.304C456.227 563.666 456.227 559.389 458.863 556.751C461.5 554.113 465.776 554.113 468.412 556.751C471.049 559.388 471.049 563.666 468.412 566.304Z" fill="url(#paint23_linear_104_315)"/>
<path d="M595.865 477.2L456.69 616.441L457.96 617.712L597.135 478.47L595.865 477.2Z" fill="url(#paint24_linear_104_315)"/>
<path d="M601.036 482.851C603.672 480.213 603.672 475.935 601.036 473.297C598.399 470.659 594.123 470.659 591.487 473.297C588.85 475.935 588.85 480.213 591.487 482.851C594.123 485.488 598.399 485.488 601.036 482.851Z" fill="url(#paint25_linear_104_315)"/>
<path d="M462.338 621.614C459.701 624.252 455.425 624.252 452.789 621.614C450.152 618.977 450.152 614.699 452.789 612.061C455.425 609.423 459.701 609.423 462.338 612.061C464.974 614.699 464.974 618.977 462.338 621.614Z" fill="url(#paint26_linear_104_315)"/>
<path d="M281.534 338.887H283.33V279.885L378.214 184.956H446.889L447.151 184.693L594.136 37.639L592.866 36.3687L446.145 183.159H377.471L281.534 279.141V338.887Z" fill="url(#paint27_linear_104_315)"/>
<path d="M598.036 42.0192C600.673 39.3815 600.673 35.1035 598.036 32.4657C595.4 29.828 591.124 29.828 588.487 32.4657C585.851 35.1034 585.851 39.3814 588.487 42.0191C591.124 44.6569 595.4 44.657 598.036 42.0192Z" fill="url(#paint28_linear_104_315)"/>
<path d="M289.184 338.55C289.184 342.28 286.16 345.305 282.432 345.305C278.703 345.305 275.68 342.28 275.68 338.55C275.68 334.819 278.703 331.794 282.432 331.794C286.16 331.794 289.184 334.819 289.184 338.55Z" fill="url(#paint29_linear_104_315)"/>
<path d="M422.087 230.829L349.623 303.327L350.893 304.598L423.357 232.099L422.087 230.829Z" fill="url(#paint30_linear_104_315)"/>
<path d="M426.244 237.313C429.341 235.234 430.168 231.038 428.091 227.939C426.013 224.841 421.819 224.014 418.722 226.092C415.625 228.17 414.798 232.367 416.875 235.465C418.953 238.564 423.147 239.391 426.244 237.313Z" fill="url(#paint31_linear_104_315)"/>
<path d="M355.271 308.5C352.634 311.138 348.358 311.138 345.722 308.5C343.086 305.863 343.086 301.585 345.722 298.947C348.358 296.309 352.634 296.309 355.271 298.947C357.907 301.585 357.907 305.863 355.271 308.5Z" fill="url(#paint32_linear_104_315)"/>
<path d="M222.52 279.011H224.316V225.238L406.884 42.5827L405.615 41.3123L222.52 224.494V279.011Z" fill="url(#paint33_linear_104_315)"/>
<path d="M410.786 46.9631C413.422 44.3253 413.422 40.0473 410.786 37.4096C408.149 34.7718 403.873 34.7718 401.237 37.4096C398.6 40.0473 398.6 44.3253 401.237 46.9631C403.873 49.6008 408.149 49.6008 410.786 46.9631Z" fill="url(#paint34_linear_104_315)"/>
<path d="M230.17 278.673C230.17 282.404 227.147 285.429 223.418 285.429C219.69 285.429 216.666 282.404 216.666 278.673C216.666 274.943 219.69 271.918 223.418 271.918C227.147 271.918 230.17 274.943 230.17 278.673Z" fill="url(#paint35_linear_104_315)"/>
<path d="M31.5947 51.655H29.7988V129.458H31.5947V51.655Z" fill="url(#paint36_linear_104_315)"/>
<path d="M37.4491 51.9929C37.4491 48.2625 34.4256 45.2375 30.697 45.2375C26.9684 45.2375 23.9448 48.2625 23.9448 51.9929C23.9448 55.7233 26.9684 58.7482 30.697 58.7482C34.4256 58.7482 37.4491 55.7232 37.4491 51.9929Z" fill="url(#paint37_linear_104_315)"/>
<path d="M37.4491 129.12C37.4491 132.851 34.4256 135.876 30.697 135.876C26.9684 135.876 23.9448 132.851 23.9448 129.12C23.9448 125.39 26.9684 122.365 30.697 122.365C34.4256 122.365 37.4491 125.39 37.4491 129.12Z" fill="url(#paint38_linear_104_315)"/>
<path d="M59.2432 223.803H61.039V201.961L93.7717 169.213L93.7769 168.848C93.7857 168.243 94.6431 108.068 94.1952 88.1587L92.3999 88.199C92.8284 107.265 92.0576 163.38 91.9863 168.458L59.2432 201.217V223.803Z" fill="url(#paint39_linear_104_315)"/>
<path d="M100.018 88.1198C99.7975 84.3959 96.6007 81.5548 92.8786 81.775C89.1565 81.9953 86.3167 85.1936 86.5369 88.9175C86.757 92.6413 89.9538 95.4824 93.6759 95.2621C97.398 95.0419 100.238 91.8436 100.018 88.1198Z" fill="url(#paint40_linear_104_315)"/>
<path d="M66.8929 223.467C66.8929 227.197 63.8694 230.222 60.1408 230.222C56.4123 230.222 53.3887 227.197 53.3887 223.467C53.3887 219.736 56.4123 216.711 60.1408 216.711C63.8694 216.711 66.8929 219.736 66.8929 223.467Z" fill="url(#paint41_linear_104_315)"/>
<path d="M61.039 108.663H59.2432V144.702H61.039V108.663Z" fill="url(#paint42_linear_104_315)"/>
<path d="M66.8929 109C66.8929 105.27 63.8694 102.245 60.1408 102.245C56.4123 102.245 53.3887 105.27 53.3887 109C53.3887 112.731 56.4123 115.756 60.1408 115.756C63.8694 115.756 66.8929 112.731 66.8929 109Z" fill="url(#paint43_linear_104_315)"/>
<path d="M66.8929 144.364C66.8929 148.094 63.8694 151.119 60.1408 151.119C56.4123 151.119 53.3887 148.094 53.3887 144.364C53.3887 140.634 56.4123 137.609 60.1408 137.609C63.8694 137.609 66.8929 140.634 66.8929 144.364Z" fill="url(#paint44_linear_104_315)"/>
<path d="M112.942 202.767L122.19 193.515V100.114L140.03 82.2666H169.372V80.4699H139.286L120.394 99.3705V192.77L111.672 201.496L112.942 202.767Z" fill="url(#paint45_linear_104_315)"/>
<path d="M107.772 197.116C105.135 199.754 105.135 204.032 107.772 206.67C110.408 209.307 114.684 209.307 117.321 206.67C119.957 204.032 119.957 199.754 117.321 197.116C114.684 194.478 110.408 194.478 107.772 197.116Z" fill="url(#paint46_linear_104_315)"/>
<path d="M169.035 74.6129C172.763 74.6129 175.787 77.6379 175.787 81.3682C175.787 85.0986 172.763 88.1236 169.035 88.1236C165.306 88.1236 162.283 85.0986 162.283 81.3682C162.283 77.6379 165.306 74.6129 169.035 74.6129Z" fill="url(#paint47_linear_104_315)"/>
<path d="M342.198 165.322L273.646 233.906L274.916 235.176L343.468 166.592L342.198 165.322Z" fill="url(#paint48_linear_104_315)"/>
<path d="M347.369 170.973C350.006 168.335 350.006 164.057 347.369 161.419C344.733 158.781 340.457 158.781 337.82 161.419C335.184 164.057 335.184 168.335 337.82 170.973C340.457 173.61 344.733 173.611 347.369 170.973Z" fill="url(#paint49_linear_104_315)"/>
<path d="M279.294 239.08C276.658 241.718 272.382 241.718 269.745 239.08C267.109 236.442 267.109 232.164 269.745 229.526C272.382 226.889 276.658 226.889 279.294 229.526C281.931 232.164 281.931 236.442 279.294 239.08Z" fill="url(#paint50_linear_104_315)"/>
<path d="M211.659 199.105L159.373 251.416L160.642 252.687L212.928 200.376L211.659 199.105Z" fill="url(#paint51_linear_104_315)"/>
<path d="M216.829 204.756C219.466 202.118 219.466 197.84 216.829 195.203C214.193 192.565 209.917 192.565 207.28 195.203C204.644 197.84 204.644 202.118 207.28 204.756C209.917 207.394 214.193 207.394 216.829 204.756Z" fill="url(#paint52_linear_104_315)"/>
<path d="M165.021 256.589C162.384 259.227 158.108 259.227 155.471 256.589C152.835 253.952 152.835 249.674 155.472 247.036C158.108 244.398 162.384 244.398 165.021 247.036C167.657 249.674 167.657 253.952 165.021 256.589Z" fill="url(#paint53_linear_104_315)"/>
<path d="M143.484 222.886L156.369 209.994V121.022H154.573V209.25L142.214 221.616L143.484 222.886Z" fill="url(#paint54_linear_104_315)"/>
<path d="M162.223 121.36C162.223 117.63 159.2 114.605 155.471 114.605C151.743 114.605 148.719 117.63 148.719 121.36C148.719 125.09 151.743 128.115 155.471 128.115C159.2 128.115 162.223 125.09 162.223 121.36Z" fill="url(#paint55_linear_104_315)"/>
<path d="M147.862 226.789C145.226 229.426 140.95 229.426 138.313 226.789C135.677 224.151 135.677 219.873 138.313 217.235C140.95 214.597 145.226 214.597 147.862 217.235C150.499 219.873 150.499 224.151 147.862 226.789Z" fill="url(#paint56_linear_104_315)"/>
<path d="M255.721 49.141L203.298 101.589L204.568 102.86L256.991 50.4114L255.721 49.141Z" fill="url(#paint57_linear_104_315)"/>
<path d="M260.892 54.791C263.528 52.1533 263.528 47.8752 260.892 45.2375C258.255 42.5998 253.979 42.5998 251.343 45.2375C248.706 47.8753 248.706 52.1532 251.343 54.791C253.979 57.4287 258.255 57.4288 260.892 54.791Z" fill="url(#paint58_linear_104_315)"/>
<path d="M208.946 106.762C206.309 109.399 202.033 109.399 199.397 106.762C196.76 104.124 196.76 99.8458 199.397 97.2081C202.033 94.5704 206.309 94.5704 208.946 97.2081C211.582 99.8458 211.582 104.124 208.946 106.762Z" fill="url(#paint59_linear_104_315)"/>
<path d="M14.5283 1427.64H16.3242V1319.45L36.4678 1299.3V1244.37H34.6718V1298.56L14.5283 1318.71V1427.64Z" fill="url(#paint60_linear_104_315)"/>
<path d="M42.3221 1244.71C42.3221 1240.98 39.2986 1237.95 35.57 1237.95C31.8415 1237.95 28.8179 1240.98 28.8179 1244.71C28.8179 1248.44 31.8415 1251.46 35.57 1251.46C39.2986 1251.46 42.3221 1248.44 42.3221 1244.71Z" fill="url(#paint61_linear_104_315)"/>
<path d="M22.1786 1427.31C22.1786 1431.04 19.155 1434.06 15.4264 1434.06C11.6978 1434.06 8.67432 1431.04 8.67432 1427.31C8.67432 1423.58 11.6978 1420.55 15.4264 1420.55C19.155 1420.55 22.1786 1423.58 22.1786 1427.31Z" fill="url(#paint62_linear_104_315)"/>
<path d="M724.071 1405.99L725.341 1404.72L433.669 1112.91H354.055L317.949 1076.79L316.679 1078.06L353.311 1114.71H432.925L724.071 1405.99Z" fill="url(#paint63_linear_104_315)"/>
<path d="M719.693 1409.89C722.33 1412.53 726.606 1412.53 729.242 1409.89C731.879 1407.25 731.879 1402.98 729.242 1400.34C726.606 1397.7 722.33 1397.7 719.693 1400.34C717.057 1402.98 717.057 1407.25 719.693 1409.89Z" fill="url(#paint64_linear_104_315)"/>
<path d="M312.778 1082.44C310.142 1079.8 310.142 1075.52 312.778 1072.88C315.415 1070.24 319.691 1070.24 322.327 1072.88C324.964 1075.52 324.964 1079.8 322.327 1082.44C319.691 1085.07 315.415 1085.07 312.778 1082.44Z" fill="url(#paint65_linear_104_315)"/>
<path d="M657.562 1398.3L658.832 1397.03L455.87 1193.97H276.089L202.765 1120.61L201.495 1121.88L275.345 1195.77H455.126L657.562 1398.3Z" fill="url(#paint66_linear_104_315)"/>
<path d="M653.184 1402.2C655.82 1404.84 660.096 1404.84 662.733 1402.2C665.369 1399.56 665.369 1395.29 662.733 1392.65C660.096 1390.01 655.82 1390.01 653.184 1392.65C650.547 1395.29 650.547 1399.56 653.184 1402.2Z" fill="url(#paint67_linear_104_315)"/>
<path d="M197.594 1126.26C194.958 1123.63 194.958 1119.35 197.594 1116.71C200.231 1114.07 204.507 1114.07 207.143 1116.71C209.78 1119.35 209.78 1123.62 207.143 1126.26C204.507 1128.9 200.231 1128.9 197.594 1126.26Z" fill="url(#paint68_linear_104_315)"/>
<path d="M81.1479 1195.48H79.3521V1388.09H81.1479V1195.48Z" fill="url(#paint69_linear_104_315)"/>
<path d="M73.498 1387.76C73.498 1391.49 76.5216 1394.51 80.2501 1394.51C83.9787 1394.51 87.0023 1391.49 87.0023 1387.76C87.0023 1384.03 83.9788 1381 80.2501 1381C76.5215 1381 73.498 1384.03 73.498 1387.76Z" fill="url(#paint70_linear_104_315)"/>
<path d="M73.498 1195.82C73.498 1192.09 76.5216 1189.06 80.2501 1189.06C83.9787 1189.06 87.0023 1192.09 87.0023 1195.82C87.0023 1199.55 83.9788 1202.58 80.2501 1202.58C76.5215 1202.58 73.498 1199.55 73.498 1195.82Z" fill="url(#paint71_linear_104_315)"/>
<path d="M801.892 758.248H527.424V760.045H801.892V758.248Z" fill="url(#paint72_linear_104_315)"/>
<path d="M801.555 765.902C805.283 765.902 808.307 762.877 808.307 759.146C808.307 755.416 805.283 752.391 801.555 752.391C797.826 752.391 794.803 755.416 794.803 759.146C794.803 762.877 797.826 765.902 801.555 765.902Z" fill="url(#paint73_linear_104_315)"/>
<path d="M527.762 765.902C524.033 765.902 521.01 762.877 521.01 759.146C521.01 755.416 524.033 752.391 527.762 752.391C531.49 752.391 534.514 755.416 534.514 759.146C534.514 762.877 531.49 765.902 527.762 765.902Z" fill="url(#paint74_linear_104_315)"/>
<path d="M763.055 1237.48L764.324 1236.21L456.967 928.712H412.393L346.45 862.737L345.18 864.007L411.649 930.508H456.223L763.055 1237.48Z" fill="url(#paint75_linear_104_315)"/>
<path d="M758.677 1241.39C761.313 1244.03 765.589 1244.03 768.226 1241.39C770.862 1238.75 770.862 1234.47 768.226 1231.83C765.589 1229.2 761.313 1229.2 758.677 1231.83C756.04 1234.47 756.04 1238.75 758.677 1241.39Z" fill="url(#paint76_linear_104_315)"/>
<path d="M341.279 868.388C338.643 865.75 338.643 861.472 341.279 858.834C343.916 856.197 348.192 856.197 350.828 858.834C353.465 861.472 353.465 865.75 350.828 868.388C348.192 871.026 343.916 871.026 341.279 868.388Z" fill="url(#paint77_linear_104_315)"/>
<path d="M496.891 881.244H540.874L571.346 850.756H801.892V848.96H570.603L540.13 879.447H497.635L478.344 860.147L477.074 861.417L496.891 881.244Z" fill="url(#paint78_linear_104_315)"/>
<path d="M801.555 856.613C805.283 856.613 808.307 853.588 808.307 849.858C808.307 846.127 805.283 843.103 801.555 843.103C797.826 843.103 794.803 846.128 794.803 849.858C794.803 853.588 797.826 856.613 801.555 856.613Z" fill="url(#paint79_linear_104_315)"/>
<path d="M473.173 865.797C470.536 863.159 470.536 858.881 473.173 856.244C475.809 853.606 480.085 853.606 482.722 856.244C485.358 858.881 485.358 863.159 482.722 865.797C480.085 868.435 475.809 868.435 473.173 865.797Z" fill="url(#paint80_linear_104_315)"/>
<path d="M523.032 934.184H557.963L607.172 884.952H806.284V883.155H606.428L606.166 883.418L557.219 932.388H523.032V934.184Z" fill="url(#paint81_linear_104_315)"/>
<path d="M805.946 890.808C809.676 890.808 812.699 887.784 812.699 884.053C812.699 880.322 809.676 877.298 805.946 877.298C802.217 877.298 799.194 880.322 799.194 884.053C799.194 887.784 802.217 890.808 805.946 890.808Z" fill="url(#paint82_linear_104_315)"/>
<path d="M523.369 940.041C519.641 940.041 516.617 937.016 516.617 933.286C516.617 929.556 519.641 926.531 523.369 926.531C527.098 926.531 530.122 929.556 530.122 933.286C530.122 937.016 527.098 940.041 523.369 940.041Z" fill="url(#paint83_linear_104_315)"/>
<path d="M603.881 955.128H616.781L646.979 924.915H761.81V923.118H646.236L616.037 953.331H603.881V955.128Z" fill="url(#paint84_linear_104_315)"/>
<path d="M761.473 930.772C765.201 930.772 768.225 927.747 768.225 924.016C768.225 920.286 765.201 917.261 761.473 917.261C757.744 917.261 754.721 920.286 754.721 924.016C754.721 927.747 757.744 930.772 761.473 930.772Z" fill="url(#paint85_linear_104_315)"/>
<path d="M604.219 960.985C600.49 960.985 597.467 957.959 597.467 954.229C597.467 950.499 600.49 947.474 604.219 947.474C607.948 947.474 610.971 950.499 610.971 954.229C610.971 957.959 607.948 960.985 604.219 960.985Z" fill="url(#paint86_linear_104_315)"/>
<path d="M744.515 993.431H639.296V995.228H744.515V993.431Z" fill="url(#paint87_linear_104_315)"/>
<path d="M744.177 1001.08C747.906 1001.08 750.929 998.06 750.929 994.33C750.929 990.599 747.906 987.574 744.177 987.574C740.449 987.574 737.425 990.599 737.425 994.33C737.425 998.06 740.449 1001.08 744.177 1001.08Z" fill="url(#paint88_linear_104_315)"/>
<path d="M639.634 1001.08C635.905 1001.08 632.881 998.06 632.881 994.33C632.881 990.599 635.905 987.574 639.634 987.574C643.362 987.574 646.386 990.599 646.386 994.33C646.386 998.06 643.362 1001.08 639.634 1001.08Z" fill="url(#paint89_linear_104_315)"/>
<path d="M117.512 1403.47H119.308V1286.12L174.9 1230.5V1157.03H173.104V1229.75L117.512 1285.37V1403.47Z" fill="url(#paint90_linear_104_315)"/>
<path d="M111.658 1403.14C111.658 1406.87 114.681 1409.89 118.41 1409.89C122.139 1409.89 125.162 1406.87 125.162 1403.14C125.162 1399.41 122.138 1396.38 118.41 1396.38C114.681 1396.38 111.658 1399.41 111.658 1403.14Z" fill="url(#paint91_linear_104_315)"/>
<path d="M174.002 1164.12C177.731 1164.12 180.754 1161.1 180.754 1157.37C180.754 1153.64 177.731 1150.61 174.002 1150.61C170.273 1150.61 167.25 1153.64 167.25 1157.37C167.25 1161.1 170.273 1164.12 174.002 1164.12Z" fill="url(#paint92_linear_104_315)"/>
<path d="M283.427 1230.39L282.157 1231.66L493.739 1443.34L495.009 1442.07L283.427 1230.39Z" fill="url(#paint93_linear_104_315)"/>
<path d="M489.361 1447.25C491.998 1449.88 496.274 1449.88 498.91 1447.25C501.547 1444.61 501.547 1440.33 498.91 1437.69C496.274 1435.05 491.998 1435.05 489.361 1437.69C486.725 1440.33 486.725 1444.61 489.361 1447.25Z" fill="url(#paint94_linear_104_315)"/>
<path d="M278.256 1236.04C275.619 1233.4 275.619 1229.12 278.256 1226.49C280.892 1223.85 285.168 1223.85 287.805 1226.49C290.441 1229.12 290.441 1233.4 287.805 1236.04C285.168 1238.68 280.892 1238.68 278.256 1236.04Z" fill="url(#paint95_linear_104_315)"/>
<path d="M205.871 1202.37L204.602 1203.64L238.425 1237.48L239.695 1236.21L205.871 1202.37Z" fill="url(#paint96_linear_104_315)"/>
<path d="M234.047 1241.39C236.684 1244.03 240.96 1244.03 243.596 1241.39C246.233 1238.75 246.233 1234.47 243.596 1231.83C240.96 1229.2 236.684 1229.2 234.047 1231.83C231.411 1234.47 231.411 1238.75 234.047 1241.39Z" fill="url(#paint97_linear_104_315)"/>
<path d="M200.701 1208.03C198.064 1205.39 198.064 1201.11 200.701 1198.47C203.337 1195.83 207.613 1195.83 210.25 1198.47C212.886 1201.11 212.886 1205.39 210.25 1208.03C207.613 1210.66 203.337 1210.66 200.701 1208.03Z" fill="url(#paint98_linear_104_315)"/>
<path d="M285.782 1381.54L287.052 1380.27L251.586 1344.79H193.317L160.745 1312.2L159.476 1313.47L192.574 1346.59H250.843L285.782 1381.54Z" fill="url(#paint99_linear_104_315)"/>
<path d="M281.404 1385.45C284.04 1388.09 288.316 1388.09 290.953 1385.45C293.589 1382.81 293.589 1378.53 290.953 1375.89C288.316 1373.26 284.04 1373.26 281.404 1375.89C278.767 1378.53 278.767 1382.81 281.404 1385.45Z" fill="url(#paint100_linear_104_315)"/>
<path d="M155.575 1317.86C152.938 1315.22 152.938 1310.94 155.575 1308.3C158.211 1305.66 162.487 1305.66 165.124 1308.3C167.76 1310.94 167.76 1315.22 165.124 1317.86C162.487 1320.49 158.211 1320.49 155.575 1317.86Z" fill="url(#paint101_linear_104_315)"/>
<path d="M265.65 1320.55L264.38 1321.82L329.432 1386.9L330.702 1385.63L265.65 1320.55Z" fill="url(#paint102_linear_104_315)"/>
<path d="M325.054 1390.8C327.691 1393.44 331.967 1393.44 334.603 1390.8C337.24 1388.17 337.24 1383.89 334.603 1381.25C331.967 1378.61 327.691 1378.61 325.055 1381.25C322.418 1383.89 322.418 1388.17 325.054 1390.8Z" fill="url(#paint103_linear_104_315)"/>
<path d="M260.48 1326.2C257.843 1323.56 257.843 1319.28 260.48 1316.64C263.116 1314.01 267.392 1314.01 270.029 1316.64C272.665 1319.28 272.665 1323.56 270.029 1326.2C267.392 1328.84 263.116 1328.84 260.48 1326.2Z" fill="url(#paint104_linear_104_315)"/>
<path d="M179.997 1281.41L178.727 1282.68L206.305 1310.27L207.575 1309L179.997 1281.41Z" fill="url(#paint105_linear_104_315)"/>
<path d="M201.927 1314.17C204.563 1316.81 208.839 1316.81 211.476 1314.17C214.113 1311.54 214.113 1307.26 211.476 1304.62C208.84 1301.98 204.564 1301.98 201.927 1304.62C199.291 1307.26 199.29 1311.54 201.927 1314.17Z" fill="url(#paint106_linear_104_315)"/>
<path d="M174.826 1287.06C172.189 1284.42 172.19 1280.14 174.826 1277.51C177.463 1274.87 181.738 1274.87 184.375 1277.51C187.011 1280.14 187.011 1284.42 184.375 1287.06C181.738 1289.7 177.462 1289.7 174.826 1287.06Z" fill="url(#paint107_linear_104_315)"/>
<path d="M580.628 1443.34L581.898 1442.07L468.717 1328.84V1301.85L427.114 1260.23H402.51L369.514 1227.22H339.505L332.13 1219.84L330.86 1221.11L338.761 1229.02H368.77L401.766 1262.03H426.371L466.921 1302.6V1329.58L580.628 1443.34Z" fill="url(#paint108_linear_104_315)"/>
<path d="M576.25 1447.25C578.887 1449.88 583.163 1449.88 585.799 1447.25C588.436 1444.61 588.436 1440.33 585.799 1437.69C583.163 1435.05 578.887 1435.05 576.25 1437.69C573.614 1440.33 573.614 1444.61 576.25 1447.25Z" fill="url(#paint109_linear_104_315)"/>
<path d="M326.959 1225.49C324.323 1222.85 324.323 1218.58 326.959 1215.94C329.596 1213.3 333.872 1213.3 336.508 1215.94C339.145 1218.58 339.145 1222.85 336.508 1225.49C333.872 1228.13 329.596 1228.13 326.959 1225.49Z" fill="url(#paint110_linear_104_315)"/>
<path d="M625.927 1405.99L627.196 1404.72L546.982 1324.47H510.401L488.244 1302.3V1268.89L447.03 1227.66L445.76 1228.93L486.448 1269.64V1303.04L509.657 1326.26H546.238L625.927 1405.99Z" fill="url(#paint111_linear_104_315)"/>
<path d="M621.548 1409.89C624.185 1412.53 628.461 1412.53 631.097 1409.89C633.734 1407.25 633.734 1402.98 631.097 1400.34C628.461 1397.7 624.185 1397.7 621.548 1400.34C618.912 1402.98 618.912 1407.25 621.548 1409.89Z" fill="url(#paint112_linear_104_315)"/>
<path d="M441.859 1233.31C439.223 1230.67 439.223 1226.4 441.859 1223.76C444.496 1221.12 448.772 1221.12 451.408 1223.76C454.045 1226.4 454.045 1230.67 451.408 1233.31C448.772 1235.95 444.496 1235.95 441.859 1233.31Z" fill="url(#paint113_linear_104_315)"/>
<path d="M739.994 1255.75L741.264 1254.48L591.113 1104.26H536.85L461.867 1029.24H407.864L363.187 984.541L361.917 985.811L407.12 1031.03H461.123L536.106 1106.05H590.369L739.994 1255.75Z" fill="url(#paint114_linear_104_315)"/>
<path d="M735.616 1259.65C738.252 1262.29 742.528 1262.29 745.165 1259.65C747.801 1257.01 747.801 1252.74 745.165 1250.1C742.528 1247.46 738.253 1247.46 735.616 1250.1C732.98 1252.74 732.979 1257.01 735.616 1259.65Z" fill="url(#paint115_linear_104_315)"/>
<path d="M358.016 990.191C355.38 987.554 355.38 983.276 358.016 980.638C360.653 978 364.929 978 367.565 980.638C370.202 983.276 370.202 987.554 367.565 990.191C364.929 992.829 360.653 992.829 358.016 990.191Z" fill="url(#paint116_linear_104_315)"/>
<path d="M591.931 1155.34L590.661 1156.61L701.011 1267.01L702.28 1265.74L591.931 1155.34Z" fill="url(#paint117_linear_104_315)"/>
<path d="M696.632 1270.91C699.269 1273.55 703.545 1273.55 706.181 1270.91C708.818 1268.28 708.818 1264 706.181 1261.36C703.545 1258.72 699.269 1258.72 696.632 1261.36C693.996 1264 693.996 1268.28 696.632 1270.91Z" fill="url(#paint118_linear_104_315)"/>
<path d="M586.76 1160.99C584.124 1158.35 584.124 1154.07 586.76 1151.44C589.397 1148.8 593.673 1148.8 596.309 1151.44C598.946 1154.07 598.946 1158.35 596.309 1160.99C593.673 1163.63 589.397 1163.63 586.76 1160.99Z" fill="url(#paint119_linear_104_315)"/>
<path d="M710.756 1323.59L712.026 1322.32L635.083 1245.34V1226.12L585.348 1176.36H559.954L523.99 1140.38H501.753L473.502 1112.11L472.232 1113.38L501.009 1142.17H523.246L559.209 1178.15H584.604L633.287 1226.86V1246.09L710.756 1323.59Z" fill="url(#paint120_linear_104_315)"/>
<path d="M706.378 1327.49C709.014 1330.13 713.29 1330.13 715.927 1327.49C718.563 1324.86 718.563 1320.58 715.927 1317.94C713.29 1315.3 709.014 1315.3 706.378 1317.94C703.741 1320.58 703.741 1324.86 706.378 1327.49Z" fill="url(#paint121_linear_104_315)"/>
<path d="M468.331 1117.76C465.695 1115.12 465.695 1110.85 468.331 1108.21C470.968 1105.57 475.244 1105.57 477.88 1108.21C480.517 1110.85 480.517 1115.12 477.88 1117.76C475.244 1120.4 470.968 1120.4 468.331 1117.76Z" fill="url(#paint122_linear_104_315)"/>
<path d="M316.322 1165.32L341.651 1139.97H408.764V1138.18H340.908L316.322 1162.77L254.807 1101.23L253.537 1102.5L316.322 1165.32Z" fill="url(#paint123_linear_104_315)"/>
<path d="M408.426 1145.83C412.155 1145.83 415.178 1142.81 415.178 1139.08C415.178 1135.35 412.155 1132.32 408.426 1132.32C404.697 1132.32 401.674 1135.35 401.674 1139.08C401.674 1142.81 404.697 1145.83 408.426 1145.83Z" fill="url(#paint124_linear_104_315)"/>
<path d="M249.636 1106.88C247 1104.24 247 1099.97 249.636 1097.33C252.273 1094.69 256.549 1094.69 259.185 1097.33C261.822 1099.97 261.822 1104.24 259.185 1106.88C256.549 1109.52 252.273 1109.52 249.636 1106.88Z" fill="url(#paint125_linear_104_315)"/>
<path d="M443.5 1091.5L444.77 1090.23L415.482 1060.93H365.037L314.552 1010.42L313.282 1011.69L364.293 1062.73H414.738L443.5 1091.5Z" fill="url(#paint126_linear_104_315)"/>
<path d="M439.122 1095.41C441.758 1098.04 446.034 1098.04 448.671 1095.41C451.307 1092.77 451.307 1088.49 448.671 1085.85C446.034 1083.21 441.758 1083.21 439.122 1085.85C436.485 1088.49 436.485 1092.77 439.122 1095.41Z" fill="url(#paint127_linear_104_315)"/>
<path d="M309.381 1016.07C306.744 1013.43 306.744 1009.16 309.381 1006.52C312.017 1003.88 316.293 1003.88 318.93 1006.52C321.566 1009.16 321.566 1013.43 318.93 1016.07C316.293 1018.71 312.017 1018.71 309.381 1016.07Z" fill="url(#paint128_linear_104_315)"/>
<path d="M558.005 713.507H615.235L641.112 687.617H893.585V685.821H640.368L614.491 711.71H558.005V713.507Z" fill="url(#paint129_linear_104_315)"/>
<path d="M893.248 693.474C896.977 693.474 900 690.449 900 686.719C900 682.989 896.977 679.964 893.248 679.964C889.52 679.964 886.496 682.989 886.496 686.719C886.496 690.449 889.52 693.474 893.248 693.474Z" fill="url(#paint130_linear_104_315)"/>
<path d="M558.343 719.364C554.614 719.364 551.59 716.339 551.59 712.609C551.59 708.878 554.614 705.853 558.343 705.853C562.071 705.853 565.095 708.878 565.095 712.609C565.095 716.339 562.071 719.364 558.343 719.364Z" fill="url(#paint131_linear_104_315)"/>
<path d="M687.559 163.812L607.408 244.001L608.678 245.271L688.829 165.082L687.559 163.812Z" fill="url(#paint132_linear_104_315)"/>
<path d="M692.729 169.462C695.366 166.824 695.366 162.546 692.729 159.909C690.093 157.271 685.817 157.271 683.181 159.909C680.544 162.546 680.544 166.824 683.181 169.462C685.817 172.1 690.093 172.1 692.729 169.462Z" fill="url(#paint133_linear_104_315)"/>
<path d="M613.056 249.173C610.419 251.811 606.143 251.811 603.507 249.173C600.87 246.536 600.87 242.258 603.507 239.62C606.143 236.982 610.419 236.982 613.056 239.62C615.692 242.258 615.692 246.536 613.056 249.173Z" fill="url(#paint134_linear_104_315)"/>
<path d="M445.559 407.572L398.832 454.321L400.102 455.592L446.829 408.843L445.559 407.572Z" fill="url(#paint135_linear_104_315)"/>
<path d="M450.73 413.224C453.367 410.586 453.367 406.308 450.73 403.67C448.093 401.033 443.818 401.033 441.181 403.67C438.544 406.308 438.545 410.586 441.181 413.224C443.818 415.862 448.094 415.862 450.73 413.224Z" fill="url(#paint136_linear_104_315)"/>
<path d="M404.48 459.495C401.844 462.133 397.568 462.133 394.931 459.495C392.295 456.858 392.295 452.58 394.931 449.942C397.568 447.304 401.844 447.304 404.48 449.942C407.117 452.58 407.117 456.858 404.48 459.495Z" fill="url(#paint137_linear_104_315)"/>
<path d="M687.559 341.243L627.045 401.785L628.315 403.055L688.829 342.513L687.559 341.243Z" fill="url(#paint138_linear_104_315)"/>
<path d="M692.729 346.893C695.366 344.255 695.366 339.977 692.729 337.34C690.093 334.702 685.817 334.702 683.181 337.34C680.544 339.977 680.544 344.255 683.181 346.893C685.817 349.531 690.093 349.531 692.729 346.893Z" fill="url(#paint139_linear_104_315)"/>
<path d="M632.693 406.958C630.057 409.595 625.781 409.595 623.144 406.958C620.508 404.32 620.508 400.042 623.144 397.404C625.781 394.766 630.057 394.766 632.693 397.404C635.33 400.042 635.33 404.32 632.693 406.958Z" fill="url(#paint140_linear_104_315)"/>
<path d="M553.312 562.07L505.831 609.575L507.1 610.845L554.582 563.341L553.312 562.07Z" fill="url(#paint141_linear_104_315)"/>
<path d="M558.483 567.721C561.12 565.083 561.12 560.805 558.483 558.167C555.847 555.53 551.571 555.53 548.934 558.167C546.298 560.805 546.298 565.083 548.934 567.721C551.571 570.359 555.847 570.359 558.483 567.721Z" fill="url(#paint142_linear_104_315)"/>
<path d="M511.479 614.748C508.842 617.385 504.567 617.385 501.93 614.748C499.293 612.11 499.294 607.832 501.93 605.194C504.566 602.556 508.842 602.556 511.479 605.194C514.115 607.832 514.115 612.11 511.479 614.748Z" fill="url(#paint143_linear_104_315)"/>
<path d="M469.856 41.313L406.863 104.336L408.133 105.606L471.126 42.5833L469.856 41.313Z" fill="url(#paint144_linear_104_315)"/>
<path d="M475.026 46.9631C477.663 44.3253 477.663 40.0473 475.026 37.4096C472.39 34.7718 468.114 34.7718 465.477 37.4096C462.841 40.0473 462.841 44.3253 465.477 46.9631C468.114 49.6008 472.39 49.6008 475.026 46.9631Z" fill="url(#paint145_linear_104_315)"/>
<path d="M412.511 109.508C409.874 112.146 405.598 112.146 402.962 109.508C400.325 106.87 400.325 102.592 402.962 99.9547C405.598 97.317 409.874 97.317 412.511 99.9547C415.147 102.592 415.147 106.87 412.511 109.508Z" fill="url(#paint146_linear_104_315)"/>
<path d="M34.6723 272.419H36.4682V185.973L8.12302 157.614V29.8195H6.32715V158.358L34.6723 186.717V272.419Z" fill="url(#paint147_linear_104_315)"/>
<path d="M13.977 30.1573C13.977 26.4269 10.9534 23.4019 7.22482 23.4019C3.49625 23.4019 0.472656 26.4269 0.472656 30.1573C0.472656 33.8877 3.4962 36.9126 7.22482 36.9126C10.9534 36.9126 13.977 33.8876 13.977 30.1573Z" fill="url(#paint148_linear_104_315)"/>
<path d="M42.3221 272.082C42.3221 275.812 39.2986 278.837 35.57 278.837C31.8415 278.837 28.8179 275.812 28.8179 272.082C28.8179 268.351 31.8415 265.326 35.57 265.326C39.2986 265.326 42.3221 268.351 42.3221 272.082Z" fill="url(#paint149_linear_104_315)"/>
<path d="M180.829 164.79H215.966L288.219 92.5025L286.949 91.2322L215.222 162.993H180.829V164.79Z" fill="url(#paint150_linear_104_315)"/>
<path d="M292.12 96.8829C294.756 94.2451 294.756 89.9671 292.12 87.3293C289.483 84.6916 285.207 84.6916 282.571 87.3293C279.934 89.967 279.934 94.245 282.571 96.8828C285.207 99.5205 289.483 99.5206 292.12 96.8829Z" fill="url(#paint151_linear_104_315)"/>
<path d="M181.167 170.647C177.438 170.647 174.415 167.622 174.415 163.891C174.415 160.161 177.438 157.136 181.167 157.136C184.895 157.136 187.919 160.161 187.919 163.891C187.919 167.622 184.895 170.647 181.167 170.647Z" fill="url(#paint152_linear_104_315)"/>
<path d="M600.664 812.029H852.406V810.232H601.408L582.465 791.281H505.325V793.078H581.721L600.664 812.029Z" fill="url(#paint153_linear_104_315)"/>
<path d="M852.069 817.886C855.797 817.886 858.821 814.861 858.821 811.131C858.821 807.4 855.797 804.375 852.069 804.375C848.34 804.375 845.316 807.4 845.316 811.131C845.316 814.861 848.34 817.886 852.069 817.886Z" fill="url(#paint154_linear_104_315)"/>
<path d="M505.662 798.934C501.934 798.934 498.91 795.909 498.91 792.179C498.91 788.449 501.934 785.424 505.662 785.424C509.391 785.424 512.414 788.449 512.414 792.179C512.414 795.909 509.391 798.934 505.662 798.934Z" fill="url(#paint155_linear_104_315)"/>
<path d="M710.757 1119.11L712.026 1117.84L615.409 1021.17H590.701L546.084 976.534L544.814 977.805L589.957 1022.97H614.665L710.757 1119.11Z" fill="url(#paint156_linear_104_315)"/>
<path d="M706.378 1123.01C709.015 1125.65 713.291 1125.65 715.927 1123.01C718.564 1120.37 718.564 1116.09 715.927 1113.46C713.291 1110.82 709.015 1110.82 706.378 1113.46C703.742 1116.09 703.742 1120.37 706.378 1123.01Z" fill="url(#paint157_linear_104_315)"/>
<path d="M540.913 982.185C538.277 979.547 538.277 975.269 540.913 972.631C543.55 969.994 547.826 969.994 550.463 972.631C553.099 975.269 553.099 979.547 550.463 982.185C547.826 984.823 543.55 984.823 540.913 982.185Z" fill="url(#paint158_linear_104_315)"/>
<path d="M441.029 1463.12L442.299 1461.85L266.754 1286.22H232.438L209.783 1263.55L208.514 1264.83L231.694 1288.02H266.01L441.029 1463.12Z" fill="url(#paint159_linear_104_315)"/>
<path d="M436.651 1467.02C439.288 1469.66 443.564 1469.66 446.2 1467.02C448.837 1464.38 448.837 1460.11 446.2 1457.47C443.564 1454.83 439.288 1454.83 436.651 1457.47C434.015 1460.11 434.015 1464.38 436.651 1467.02Z" fill="url(#paint160_linear_104_315)"/>
<path d="M204.613 1269.21C201.976 1266.57 201.976 1262.29 204.613 1259.65C207.249 1257.01 211.525 1257.01 214.162 1259.65C216.798 1262.29 216.798 1266.57 214.162 1269.21C211.525 1271.84 207.249 1271.84 204.613 1269.21Z" fill="url(#paint161_linear_104_315)"/>
<path d="M147.104 1342.43H145.308V1384.39H147.104V1342.43Z" fill="url(#paint162_linear_104_315)"/>
<path d="M139.454 1384.05C139.454 1387.78 142.478 1390.8 146.206 1390.8C149.935 1390.8 152.958 1387.78 152.958 1384.05C152.958 1380.32 149.935 1377.29 146.206 1377.29C142.478 1377.29 139.454 1380.32 139.454 1384.05Z" fill="url(#paint163_linear_104_315)"/>
<path d="M139.454 1342.76C139.454 1339.03 142.478 1336.01 146.206 1336.01C149.935 1336.01 152.958 1339.03 152.958 1342.76C152.958 1346.49 149.935 1349.52 146.206 1349.52C142.478 1349.52 139.454 1346.49 139.454 1342.76Z" fill="url(#paint164_linear_104_315)"/>
<path d="M355.267 1263.1L353.997 1264.37L424.993 1335.4L426.262 1334.13L355.267 1263.1Z" fill="url(#paint165_linear_104_315)"/>
<path d="M420.615 1339.3C423.251 1341.94 427.527 1341.94 430.164 1339.3C432.8 1336.67 432.8 1332.39 430.164 1329.75C427.527 1327.11 423.251 1327.11 420.615 1329.75C417.978 1332.39 417.978 1336.67 420.615 1339.3Z" fill="url(#paint166_linear_104_315)"/>
<path d="M350.096 1268.75C347.46 1266.11 347.46 1261.84 350.096 1259.2C352.733 1256.56 357.009 1256.56 359.645 1259.2C362.282 1261.84 362.282 1266.11 359.645 1268.75C357.009 1271.39 352.733 1271.39 350.096 1268.75Z" fill="url(#paint167_linear_104_315)"/>
<path d="M536.476 1182.26L535.206 1183.53L632.927 1281.29L634.197 1280.02L536.476 1182.26Z" fill="url(#paint168_linear_104_315)"/>
<path d="M628.549 1285.2C631.185 1287.83 635.461 1287.83 638.098 1285.2C640.734 1282.56 640.734 1278.28 638.098 1275.64C635.461 1273 631.185 1273 628.549 1275.64C625.912 1278.28 625.912 1282.56 628.549 1285.2Z" fill="url(#paint169_linear_104_315)"/>
<path d="M531.305 1187.91C528.669 1185.27 528.669 1180.99 531.305 1178.35C533.942 1175.71 538.217 1175.71 540.854 1178.35C543.49 1180.99 543.49 1185.27 540.854 1187.91C538.217 1190.54 533.942 1190.54 531.305 1187.91Z" fill="url(#paint170_linear_104_315)"/>
<path d="M437.04 1163.15H379.315V1164.94H437.04V1163.15Z" fill="url(#paint171_linear_104_315)"/>
<path d="M438.254 1170.62C441.884 1169.76 444.131 1166.12 443.274 1162.49C442.418 1158.86 438.781 1156.61 435.152 1157.47C431.522 1158.33 429.275 1161.97 430.131 1165.6C430.988 1169.23 434.625 1171.48 438.254 1170.62Z" fill="url(#paint172_linear_104_315)"/>
<path d="M379.653 1170.8C375.924 1170.8 372.9 1167.78 372.9 1164.05C372.9 1160.31 375.924 1157.29 379.653 1157.29C383.381 1157.29 386.405 1160.31 386.405 1164.05C386.405 1167.78 383.381 1170.8 379.653 1170.8Z" fill="url(#paint173_linear_104_315)"/>
<path d="M118.336 1222.47H120.132V1130.8L157.336 1093.57L156.066 1092.3L118.336 1130.05V1222.47Z" fill="url(#paint174_linear_104_315)"/>
<path d="M161.237 1097.95C163.873 1095.32 163.873 1091.04 161.237 1088.4C158.6 1085.76 154.324 1085.76 151.688 1088.4C149.051 1091.04 149.051 1095.32 151.688 1097.95C154.324 1100.59 158.6 1100.59 161.237 1097.95Z" fill="url(#paint175_linear_104_315)"/>
<path d="M125.986 1222.13C125.986 1225.87 122.962 1228.89 119.234 1228.89C115.505 1228.89 112.481 1225.87 112.481 1222.13C112.481 1218.4 115.505 1215.38 119.234 1215.38C122.962 1215.38 125.986 1218.4 125.986 1222.13Z" fill="url(#paint176_linear_104_315)"/>
<path d="M531.307 1049.48L532.577 1048.21L461.101 976.698H430.535L404.924 951.076L403.655 952.346L429.792 978.495H460.357L531.307 1049.48Z" fill="url(#paint177_linear_104_315)"/>
<path d="M526.929 1053.38C529.566 1056.02 533.841 1056.02 536.478 1053.38C539.114 1050.74 539.114 1046.47 536.478 1043.83C533.842 1041.19 529.566 1041.19 526.929 1043.83C524.293 1046.47 524.293 1050.74 526.929 1053.38Z" fill="url(#paint178_linear_104_315)"/>
<path d="M399.754 956.726C397.117 954.088 397.117 949.81 399.754 947.173C402.39 944.535 406.666 944.535 409.303 947.173C411.939 949.81 411.939 954.088 409.303 956.726C406.666 959.364 402.39 959.364 399.754 956.726Z" fill="url(#paint179_linear_104_315)"/>
<path d="M605.194 648.628L638.686 615.12V543.193L741.263 440.567L739.994 439.297L636.89 542.449V614.376L603.924 647.358L605.194 648.628Z" fill="url(#paint180_linear_104_315)"/>
<path d="M745.165 444.947C747.801 442.31 747.801 438.032 745.165 435.394C742.528 432.756 738.252 432.756 735.616 435.394C732.979 438.032 732.979 442.31 735.616 444.947C738.252 447.585 742.528 447.585 745.165 444.947Z" fill="url(#paint181_linear_104_315)"/>
<path d="M609.572 652.531C606.936 655.168 602.66 655.168 600.023 652.531C597.387 649.893 597.387 645.615 600.023 642.977C602.66 640.339 606.936 640.339 609.572 642.977C612.209 645.615 612.209 649.893 609.572 652.531Z" fill="url(#paint182_linear_104_315)"/>
<defs>
<linearGradient id="paint0_linear_104_315" x1="511.843" y1="64.1639" x2="504.145" y2="1605.2" gradientUnits="userSpaceOnUse">
<stop stop-color="#40B9FD"/>
<stop offset="0.9965" stop-color="#2057CD"/>
</linearGradient>
<linearGradient id="paint1_linear_104_315" x1="725.274" y1="65.2299" x2="717.575" y2="1606.27" gradientUnits="userSpaceOnUse">
<stop stop-color="#40B9FD"/>
<stop offset="0.9965" stop-color="#2057CD"/>
</linearGradient>
<linearGradient id="paint2_linear_104_315" x1="298.412" y1="63.0979" x2="290.713" y2="1604.14" gradientUnits="userSpaceOnUse">
<stop stop-color="#40B9FD"/>
<stop offset="0.9965" stop-color="#2057CD"/>
</linearGradient>
<linearGradient id="paint3_linear_104_315" x1="560.281" y1="64.4058" x2="552.582" y2="1605.45" gradientUnits="userSpaceOnUse">
<stop stop-color="#40B9FD"/>
<stop offset="0.9965" stop-color="#2057CD"/>
</linearGradient>
<linearGradient id="paint4_linear_104_315" x1="733.833" y1="65.2727" x2="726.134" y2="1606.31" gradientUnits="userSpaceOnUse">
<stop stop-color="#40B9FD"/>
<stop offset="0.9965" stop-color="#2057CD"/>
</linearGradient>
<linearGradient id="paint5_linear_104_315" x1="386.73" y1="63.5376" x2="379.031" y2="1604.58" gradientUnits="userSpaceOnUse">
<stop stop-color="#40B9FD"/>
<stop offset="0.9965" stop-color="#2057CD"/>
</linearGradient>
<linearGradient id="paint6_linear_104_315" x1="496.722" y1="64.0895" x2="489.031" y2="1605.12" gradientUnits="userSpaceOnUse">
<stop stop-color="#40B9FD"/>
<stop offset="0.9965" stop-color="#2057CD"/>
</linearGradient>
<linearGradient id="paint7_linear_104_315" x1="534.582" y1="64.2768" x2="526.883" y2="1605.32" gradientUnits="userSpaceOnUse">
<stop stop-color="#40B9FD"/>
<stop offset="0.9965" stop-color="#2057CD"/>
</linearGradient>
<linearGradient id="paint8_linear_104_315" x1="458.859" y1="63.8983" x2="451.16" y2="1604.94" gradientUnits="userSpaceOnUse">
<stop stop-color="#40B9FD"/>
<stop offset="0.9965" stop-color="#2057CD"/>
</linearGradient>
<linearGradient id="paint9_linear_104_315" x1="600.565" y1="64.6069" x2="592.866" y2="1605.65" gradientUnits="userSpaceOnUse">
<stop stop-color="#40B9FD"/>
<stop offset="0.9965" stop-color="#2057CD"/>
</linearGradient>
<linearGradient id="paint10_linear_104_315" x1="744.394" y1="65.3265" x2="736.696" y2="1606.36" gradientUnits="userSpaceOnUse">
<stop stop-color="#40B9FD"/>
<stop offset="0.9965" stop-color="#2057CD"/>
</linearGradient>
<linearGradient id="paint11_linear_104_315" x1="456.735" y1="63.8861" x2="449.036" y2="1604.93" gradientUnits="userSpaceOnUse">
<stop stop-color="#40B9FD"/>
<stop offset="0.9965" stop-color="#2057CD"/>
</linearGradient>
<linearGradient id="paint12_linear_104_315" x1="555.943" y1="64.3839" x2="548.244" y2="1605.43" gradientUnits="userSpaceOnUse">
<stop stop-color="#40B9FD"/>
<stop offset="0.9965" stop-color="#2057CD"/>
</linearGradient>
<linearGradient id="paint13_linear_104_315" x1="714.754" y1="65.1774" x2="707.056" y2="1606.22" gradientUnits="userSpaceOnUse">
<stop stop-color="#40B9FD"/>
<stop offset="0.9965" stop-color="#2057CD"/>
</linearGradient>
<linearGradient id="paint14_linear_104_315" x1="397.131" y1="63.5896" x2="389.433" y2="1604.63" gradientUnits="userSpaceOnUse">
<stop stop-color="#40B9FD"/>
<stop offset="0.9965" stop-color="#2057CD"/>
</linearGradient>
<linearGradient id="paint15_linear_104_315" x1="401.043" y1="63.6096" x2="393.344" y2="1604.65" gradientUnits="userSpaceOnUse">
<stop stop-color="#40B9FD"/>
<stop offset="0.9965" stop-color="#2057CD"/>
</linearGradient>
<linearGradient id="paint16_linear_104_315" x1="507.972" y1="64.1441" x2="500.273" y2="1605.19" gradientUnits="userSpaceOnUse">
<stop stop-color="#40B9FD"/>
<stop offset="0.9965" stop-color="#2057CD"/>
</linearGradient>
<linearGradient id="paint17_linear_104_315" x1="294.113" y1="63.0763" x2="286.414" y2="1604.11" gradientUnits="userSpaceOnUse">
<stop stop-color="#40B9FD"/>
<stop offset="0.9965" stop-color="#2057CD"/>
</linearGradient>
<linearGradient id="paint18_linear_104_315" x1="642.324" y1="64.8158" x2="634.625" y2="1605.86" gradientUnits="userSpaceOnUse">
<stop stop-color="#40B9FD"/>
<stop offset="0.9965" stop-color="#2057CD"/>
</linearGradient>
<linearGradient id="paint19_linear_104_315" x1="694.147" y1="65.0745" x2="686.448" y2="1606.12" gradientUnits="userSpaceOnUse">
<stop stop-color="#40B9FD"/>
<stop offset="0.9965" stop-color="#2057CD"/>
</linearGradient>
<linearGradient id="paint20_linear_104_315" x1="590.655" y1="64.5565" x2="582.956" y2="1605.6" gradientUnits="userSpaceOnUse">
<stop stop-color="#40B9FD"/>
<stop offset="0.9965" stop-color="#2057CD"/>
</linearGradient>
<linearGradient id="paint21_linear_104_315" x1="580.361" y1="64.5061" x2="572.663" y2="1605.55" gradientUnits="userSpaceOnUse">
<stop stop-color="#40B9FD"/>
<stop offset="0.9965" stop-color="#2057CD"/>
</linearGradient>
<linearGradient id="paint22_linear_104_315" x1="694.601" y1="65.0766" x2="686.903" y2="1606.11" gradientUnits="userSpaceOnUse">
<stop stop-color="#40B9FD"/>
<stop offset="0.9965" stop-color="#2057CD"/>
</linearGradient>
<linearGradient id="paint23_linear_104_315" x1="466.121" y1="63.9357" x2="458.422" y2="1604.97" gradientUnits="userSpaceOnUse">
<stop stop-color="#40B9FD"/>
<stop offset="0.9965" stop-color="#2057CD"/>
</linearGradient>
<linearGradient id="paint24_linear_104_315" x1="529.322" y1="64.25" x2="521.618" y2="1605.29" gradientUnits="userSpaceOnUse">
<stop stop-color="#40B9FD"/>
<stop offset="0.9965" stop-color="#2057CD"/>
</linearGradient>
<linearGradient id="paint25_linear_104_315" x1="598.325" y1="64.5953" x2="590.626" y2="1605.64" gradientUnits="userSpaceOnUse">
<stop stop-color="#40B9FD"/>
<stop offset="0.9965" stop-color="#2057CD"/>
</linearGradient>
<linearGradient id="paint26_linear_104_315" x1="460.323" y1="63.9058" x2="452.624" y2="1604.95" gradientUnits="userSpaceOnUse">
<stop stop-color="#40B9FD"/>
<stop offset="0.9965" stop-color="#2057CD"/>
</linearGradient>
<linearGradient id="paint27_linear_104_315" x1="438.307" y1="63.7963" x2="430.608" y2="1604.84" gradientUnits="userSpaceOnUse">
<stop stop-color="#40B9FD"/>
<stop offset="0.9965" stop-color="#2057CD"/>
</linearGradient>
<linearGradient id="paint28_linear_104_315" x1="593.125" y1="64.5697" x2="585.427" y2="1605.61" gradientUnits="userSpaceOnUse">
<stop stop-color="#40B9FD"/>
<stop offset="0.9965" stop-color="#2057CD"/>
</linearGradient>
<linearGradient id="paint29_linear_104_315" x1="283.807" y1="63.0247" x2="276.108" y2="1604.07" gradientUnits="userSpaceOnUse">
<stop stop-color="#40B9FD"/>
<stop offset="0.9965" stop-color="#2057CD"/>
</linearGradient>
<linearGradient id="paint30_linear_104_315" x1="387.51" y1="63.5435" x2="379.819" y2="1604.57" gradientUnits="userSpaceOnUse">
<stop stop-color="#40B9FD"/>
<stop offset="0.9965" stop-color="#2057CD"/>
</linearGradient>
<linearGradient id="paint31_linear_104_315" x1="423.321" y1="63.7216" x2="415.623" y2="1604.76" gradientUnits="userSpaceOnUse">
<stop stop-color="#40B9FD"/>
<stop offset="0.9965" stop-color="#2057CD"/>
</linearGradient>
<linearGradient id="paint32_linear_104_315" x1="351.696" y1="63.364" x2="343.997" y2="1604.41" gradientUnits="userSpaceOnUse">
<stop stop-color="#40B9FD"/>
<stop offset="0.9965" stop-color="#2057CD"/>
</linearGradient>
<linearGradient id="paint33_linear_104_315" x1="315.053" y1="63.1805" x2="307.355" y2="1604.22" gradientUnits="userSpaceOnUse">
<stop stop-color="#40B9FD"/>
<stop offset="0.9965" stop-color="#2057CD"/>
</linearGradient>
<linearGradient id="paint34_linear_104_315" x1="405.904" y1="63.6343" x2="398.205" y2="1604.67" gradientUnits="userSpaceOnUse">
<stop stop-color="#40B9FD"/>
<stop offset="0.9965" stop-color="#2057CD"/>
</linearGradient>
<linearGradient id="paint35_linear_104_315" x1="224.496" y1="62.7288" x2="216.797" y2="1603.77" gradientUnits="userSpaceOnUse">
<stop stop-color="#40B9FD"/>
<stop offset="0.9965" stop-color="#2057CD"/>
</linearGradient>
<linearGradient id="paint36_linear_104_315" x1="30.8405" y1="61.7605" x2="23.1417" y2="1602.8" gradientUnits="userSpaceOnUse">
<stop stop-color="#40B9FD"/>
<stop offset="0.9965" stop-color="#2057CD"/>
</linearGradient>
<linearGradient id="paint37_linear_104_315" x1="30.6482" y1="61.7596" x2="22.9495" y2="1602.8" gradientUnits="userSpaceOnUse">
<stop stop-color="#40B9FD"/>
<stop offset="0.9965" stop-color="#2057CD"/>
</linearGradient>
<linearGradient id="paint38_linear_104_315" x1="31.0331" y1="61.7614" x2="23.3344" y2="1602.81" gradientUnits="userSpaceOnUse">
<stop stop-color="#40B9FD"/>
<stop offset="0.9965" stop-color="#2057CD"/>
</linearGradient>
<linearGradient id="paint39_linear_104_315" x1="77.2521" y1="61.9925" x2="69.5534" y2="1603.04" gradientUnits="userSpaceOnUse">
<stop stop-color="#40B9FD"/>
<stop offset="0.9965" stop-color="#2057CD"/>
</linearGradient>
<linearGradient id="paint40_linear_104_315" x1="93.4092" y1="62.0731" x2="85.7105" y2="1603.11" gradientUnits="userSpaceOnUse">
<stop stop-color="#40B9FD"/>
<stop offset="0.9965" stop-color="#2057CD"/>
</linearGradient>
<linearGradient id="paint41_linear_104_315" x1="60.9471" y1="61.9113" x2="53.2484" y2="1602.95" gradientUnits="userSpaceOnUse">
<stop stop-color="#40B9FD"/>
<stop offset="0.9965" stop-color="#2057CD"/>
</linearGradient>
<linearGradient id="paint42_linear_104_315" x1="60.4644" y1="61.9085" x2="52.7656" y2="1602.95" gradientUnits="userSpaceOnUse">
<stop stop-color="#40B9FD"/>
<stop offset="0.9965" stop-color="#2057CD"/>
</linearGradient>
<linearGradient id="paint43_linear_104_315" x1="60.3758" y1="61.908" x2="52.677" y2="1602.95" gradientUnits="userSpaceOnUse">
<stop stop-color="#40B9FD"/>
<stop offset="0.9965" stop-color="#2057CD"/>
</linearGradient>
<linearGradient id="paint44_linear_104_315" x1="60.5523" y1="61.909" x2="52.8536" y2="1602.95" gradientUnits="userSpaceOnUse">
<stop stop-color="#40B9FD"/>
<stop offset="0.9965" stop-color="#2057CD"/>
</linearGradient>
<linearGradient id="paint45_linear_104_315" x1="140.919" y1="62.3105" x2="133.221" y2="1603.35" gradientUnits="userSpaceOnUse">
<stop stop-color="#40B9FD"/>
<stop offset="0.9965" stop-color="#2057CD"/>
</linearGradient>
<linearGradient id="paint46_linear_104_315" x1="113.244" y1="62.1719" x2="105.545" y2="1603.22" gradientUnits="userSpaceOnUse">
<stop stop-color="#40B9FD"/>
<stop offset="0.9965" stop-color="#2057CD"/>
</linearGradient>
<linearGradient id="paint47_linear_104_315" x1="169.129" y1="62.4515" x2="161.43" y2="1603.49" gradientUnits="userSpaceOnUse">
<stop stop-color="#40B9FD"/>
<stop offset="0.9965" stop-color="#2057CD"/>
</linearGradient>
<linearGradient id="paint48_linear_104_315" x1="309.241" y1="63.1519" x2="301.541" y2="1604.19" gradientUnits="userSpaceOnUse">
<stop stop-color="#40B9FD"/>
<stop offset="0.9965" stop-color="#2057CD"/>
</linearGradient>
<linearGradient id="paint49_linear_104_315" x1="343.108" y1="63.3209" x2="335.409" y2="1604.36" gradientUnits="userSpaceOnUse">
<stop stop-color="#40B9FD"/>
<stop offset="0.9965" stop-color="#2057CD"/>
</linearGradient>
<linearGradient id="paint50_linear_104_315" x1="275.375" y1="62.9823" x2="267.676" y2="1604.02" gradientUnits="userSpaceOnUse">
<stop stop-color="#40B9FD"/>
<stop offset="0.9965" stop-color="#2057CD"/>
</linearGradient>
<linearGradient id="paint51_linear_104_315" x1="186.966" y1="62.5405" x2="179.266" y2="1603.58" gradientUnits="userSpaceOnUse">
<stop stop-color="#40B9FD"/>
<stop offset="0.9965" stop-color="#2057CD"/>
</linearGradient>
<linearGradient id="paint52_linear_104_315" x1="212.74" y1="62.6691" x2="205.041" y2="1603.71" gradientUnits="userSpaceOnUse">
<stop stop-color="#40B9FD"/>
<stop offset="0.9965" stop-color="#2057CD"/>
</linearGradient>
<linearGradient id="paint53_linear_104_315" x1="161.191" y1="62.4113" x2="153.493" y2="1603.45" gradientUnits="userSpaceOnUse">
<stop stop-color="#40B9FD"/>
<stop offset="0.9965" stop-color="#2057CD"/>
</linearGradient>
<linearGradient id="paint54_linear_104_315" x1="150.057" y1="62.3561" x2="142.359" y2="1603.4" gradientUnits="userSpaceOnUse">
<stop stop-color="#40B9FD"/>
<stop offset="0.9965" stop-color="#2057CD"/>
</linearGradient>
<linearGradient id="paint55_linear_104_315" x1="155.766" y1="62.3848" x2="148.067" y2="1603.42" gradientUnits="userSpaceOnUse">
<stop stop-color="#40B9FD"/>
<stop offset="0.9965" stop-color="#2057CD"/>
</linearGradient>
<linearGradient id="paint56_linear_104_315" x1="143.885" y1="62.326" x2="136.186" y2="1603.36" gradientUnits="userSpaceOnUse">
<stop stop-color="#40B9FD"/>
<stop offset="0.9965" stop-color="#2057CD"/>
</linearGradient>
<linearGradient id="paint57_linear_104_315" x1="230.211" y1="62.7564" x2="222.511" y2="1603.79" gradientUnits="userSpaceOnUse">
<stop stop-color="#40B9FD"/>
<stop offset="0.9965" stop-color="#2057CD"/>
</linearGradient>
<linearGradient id="paint58_linear_104_315" x1="256.053" y1="62.8857" x2="248.354" y2="1603.92" gradientUnits="userSpaceOnUse">
<stop stop-color="#40B9FD"/>
<stop offset="0.9965" stop-color="#2057CD"/>
</linearGradient>
<linearGradient id="paint59_linear_104_315" x1="204.368" y1="62.6274" x2="196.669" y2="1603.67" gradientUnits="userSpaceOnUse">
<stop stop-color="#40B9FD"/>
<stop offset="0.9965" stop-color="#2057CD"/>
</linearGradient>
<linearGradient id="paint60_linear_104_315" x1="31.723" y1="61.7642" x2="24.0243" y2="1602.81" gradientUnits="userSpaceOnUse">
<stop stop-color="#40B9FD"/>
<stop offset="0.9965" stop-color="#2057CD"/>
</linearGradient>
<linearGradient id="paint61_linear_104_315" x1="41.4739" y1="61.8078" x2="33.7751" y2="1602.86" gradientUnits="userSpaceOnUse">
<stop stop-color="#40B9FD"/>
<stop offset="0.9965" stop-color="#2057CD"/>
</linearGradient>
<linearGradient id="paint62_linear_104_315" x1="22.2422" y1="61.7099" x2="14.5434" y2="1602.76" gradientUnits="userSpaceOnUse">
<stop stop-color="#40B9FD"/>
<stop offset="0.9965" stop-color="#2057CD"/>
</linearGradient>
<linearGradient id="paint63_linear_104_315" x1="526.885" y1="64.2375" x2="519.186" y2="1605.28" gradientUnits="userSpaceOnUse">
<stop stop-color="#40B9FD"/>
<stop offset="0.9965" stop-color="#2057CD"/>
</linearGradient>
<linearGradient id="paint64_linear_104_315" x1="731.155" y1="65.2555" x2="723.456" y2="1606.3" gradientUnits="userSpaceOnUse">
<stop stop-color="#40B9FD"/>
<stop offset="0.9965" stop-color="#2057CD"/>
</linearGradient>
<linearGradient id="paint65_linear_104_315" x1="322.616" y1="63.2194" x2="314.917" y2="1604.26" gradientUnits="userSpaceOnUse">
<stop stop-color="#40B9FD"/>
<stop offset="0.9965" stop-color="#2057CD"/>
</linearGradient>
<linearGradient id="paint66_linear_104_315" x1="436.131" y1="63.7863" x2="428.432" y2="1604.83" gradientUnits="userSpaceOnUse">
<stop stop-color="#40B9FD"/>
<stop offset="0.9965" stop-color="#2057CD"/>
</linearGradient>
<linearGradient id="paint67_linear_104_315" x1="664.609" y1="64.9215" x2="656.91" y2="1605.97" gradientUnits="userSpaceOnUse">
<stop stop-color="#40B9FD"/>
<stop offset="0.9965" stop-color="#2057CD"/>
</linearGradient>
<linearGradient id="paint68_linear_104_315" x1="207.653" y1="62.6442" x2="199.955" y2="1603.68" gradientUnits="userSpaceOnUse">
<stop stop-color="#40B9FD"/>
<stop offset="0.9965" stop-color="#2057CD"/>
</linearGradient>
<linearGradient id="paint69_linear_104_315" x1="86.3877" y1="62.0372" x2="78.6895" y2="1602.96" gradientUnits="userSpaceOnUse">
<stop stop-color="#40B9FD"/>
<stop offset="0.9965" stop-color="#2057CD"/>
</linearGradient>
<linearGradient id="paint70_linear_104_315" x1="86.8669" y1="62.0465" x2="79.1681" y2="1603.08" gradientUnits="userSpaceOnUse">
<stop stop-color="#40B9FD"/>
<stop offset="0.9965" stop-color="#2057CD"/>
</linearGradient>
<linearGradient id="paint71_linear_104_315" x1="85.9089" y1="62.0291" x2="78.2101" y2="1603.08" gradientUnits="userSpaceOnUse">
<stop stop-color="#40B9FD"/>
<stop offset="0.9965" stop-color="#2057CD"/>
</linearGradient>
<linearGradient id="paint72_linear_104_315" x1="668.123" y1="64.947" x2="660.424" y2="1605.98" gradientUnits="userSpaceOnUse">
<stop stop-color="#40B9FD"/>
<stop offset="0.9965" stop-color="#2057CD"/>
</linearGradient>
<linearGradient id="paint73_linear_104_315" x1="805.016" y1="65.6277" x2="797.317" y2="1606.67" gradientUnits="userSpaceOnUse">
<stop stop-color="#40B9FD"/>
<stop offset="0.9965" stop-color="#2057CD"/>
</linearGradient>
<linearGradient id="paint74_linear_104_315" x1="531.23" y1="64.2604" x2="523.531" y2="1605.3" gradientUnits="userSpaceOnUse">
<stop stop-color="#40B9FD"/>
<stop offset="0.9965" stop-color="#2057CD"/>
</linearGradient>
<linearGradient id="paint75_linear_104_315" x1="559.672" y1="64.4027" x2="551.973" y2="1605.44" gradientUnits="userSpaceOnUse">
<stop stop-color="#40B9FD"/>
<stop offset="0.9965" stop-color="#2057CD"/>
</linearGradient>
<linearGradient id="paint76_linear_104_315" x1="769.296" y1="65.4562" x2="761.598" y2="1606.49" gradientUnits="userSpaceOnUse">
<stop stop-color="#40B9FD"/>
<stop offset="0.9965" stop-color="#2057CD"/>
</linearGradient>
<linearGradient id="paint77_linear_104_315" x1="350.048" y1="63.3565" x2="342.349" y2="1604.4" gradientUnits="userSpaceOnUse">
<stop stop-color="#40B9FD"/>
<stop offset="0.9965" stop-color="#2057CD"/>
</linearGradient>
<linearGradient id="paint78_linear_104_315" x1="643.432" y1="64.825" x2="635.734" y2="1605.86" gradientUnits="userSpaceOnUse">
<stop stop-color="#40B9FD"/>
<stop offset="0.9965" stop-color="#2057CD"/>
</linearGradient>
<linearGradient id="paint79_linear_104_315" x1="805.469" y1="65.6298" x2="797.77" y2="1606.67" gradientUnits="userSpaceOnUse">
<stop stop-color="#40B9FD"/>
<stop offset="0.9965" stop-color="#2057CD"/>
</linearGradient>
<linearGradient id="paint80_linear_104_315" x1="481.925" y1="64.0156" x2="474.226" y2="1605.05" gradientUnits="userSpaceOnUse">
<stop stop-color="#40B9FD"/>
<stop offset="0.9965" stop-color="#2057CD"/>
</linearGradient>
<linearGradient id="paint81_linear_104_315" x1="668.869" y1="64.9495" x2="661.17" y2="1605.98" gradientUnits="userSpaceOnUse">
<stop stop-color="#40B9FD"/>
<stop offset="0.9965" stop-color="#2057CD"/>
</linearGradient>
<linearGradient id="paint82_linear_104_315" x1="810.031" y1="65.6564" x2="802.332" y2="1606.69" gradientUnits="userSpaceOnUse">
<stop stop-color="#40B9FD"/>
<stop offset="0.9965" stop-color="#2057CD"/>
</linearGradient>
<linearGradient id="paint83_linear_104_315" x1="527.707" y1="64.2418" x2="520.008" y2="1605.28" gradientUnits="userSpaceOnUse">
<stop stop-color="#40B9FD"/>
<stop offset="0.9965" stop-color="#2057CD"/>
</linearGradient>
<linearGradient id="paint84_linear_104_315" x1="687.208" y1="65.0403" x2="679.51" y2="1606.08" gradientUnits="userSpaceOnUse">
<stop stop-color="#40B9FD"/>
<stop offset="0.9965" stop-color="#2057CD"/>
</linearGradient>
<linearGradient id="paint85_linear_104_315" x1="765.758" y1="65.4319" x2="758.059" y2="1606.47" gradientUnits="userSpaceOnUse">
<stop stop-color="#40B9FD"/>
<stop offset="0.9965" stop-color="#2057CD"/>
</linearGradient>
<linearGradient id="paint86_linear_104_315" x1="608.659" y1="64.6432" x2="600.96" y2="1605.69" gradientUnits="userSpaceOnUse">
<stop stop-color="#40B9FD"/>
<stop offset="0.9965" stop-color="#2057CD"/>
</linearGradient>
<linearGradient id="paint87_linear_104_315" x1="696.543" y1="65.0784" x2="688.844" y2="1606.13" gradientUnits="userSpaceOnUse">
<stop stop-color="#40B9FD"/>
<stop offset="0.9965" stop-color="#2057CD"/>
</linearGradient>
<linearGradient id="paint88_linear_104_315" x1="748.814" y1="65.3517" x2="741.115" y2="1606.39" gradientUnits="userSpaceOnUse">
<stop stop-color="#40B9FD"/>
<stop offset="0.9965" stop-color="#2057CD"/>
</linearGradient>
<linearGradient id="paint89_linear_104_315" x1="644.273" y1="64.8289" x2="636.574" y2="1605.86" gradientUnits="userSpaceOnUse">
<stop stop-color="#40B9FD"/>
<stop offset="0.9965" stop-color="#2057CD"/>
</linearGradient>
<linearGradient id="paint90_linear_104_315" x1="152.173" y1="62.3669" x2="144.474" y2="1603.41" gradientUnits="userSpaceOnUse">
<stop stop-color="#40B9FD"/>
<stop offset="0.9965" stop-color="#2057CD"/>
</linearGradient>
<linearGradient id="paint91_linear_104_315" x1="125.102" y1="62.2252" x2="117.404" y2="1603.27" gradientUnits="userSpaceOnUse">
<stop stop-color="#40B9FD"/>
<stop offset="0.9965" stop-color="#2057CD"/>
</linearGradient>
<linearGradient id="paint92_linear_104_315" x1="179.467" y1="62.5083" x2="171.768" y2="1603.54" gradientUnits="userSpaceOnUse">
<stop stop-color="#40B9FD"/>
<stop offset="0.9965" stop-color="#2057CD"/>
</linearGradient>
<linearGradient id="paint93_linear_104_315" x1="394.962" y1="63.5554" x2="387.291" y2="1604.63" gradientUnits="userSpaceOnUse">
<stop stop-color="#40B9FD"/>
<stop offset="0.9965" stop-color="#2057CD"/>
</linearGradient>
<linearGradient id="paint94_linear_104_315" x1="501.015" y1="64.1049" x2="493.316" y2="1605.15" gradientUnits="userSpaceOnUse">
<stop stop-color="#40B9FD"/>
<stop offset="0.9965" stop-color="#2057CD"/>
</linearGradient>
<linearGradient id="paint95_linear_104_315" x1="288.861" y1="63.0552" x2="281.162" y2="1604.09" gradientUnits="userSpaceOnUse">
<stop stop-color="#40B9FD"/>
<stop offset="0.9965" stop-color="#2057CD"/>
</linearGradient>
<linearGradient id="paint96_linear_104_315" x1="227.929" y1="62.7389" x2="220.236" y2="1603.79" gradientUnits="userSpaceOnUse">
<stop stop-color="#40B9FD"/>
<stop offset="0.9965" stop-color="#2057CD"/>
</linearGradient>
<linearGradient id="paint97_linear_104_315" x1="244.68" y1="62.8353" x2="236.981" y2="1603.87" gradientUnits="userSpaceOnUse">
<stop stop-color="#40B9FD"/>
<stop offset="0.9965" stop-color="#2057CD"/>
</linearGradient>
<linearGradient id="paint98_linear_104_315" x1="211.168" y1="62.6591" x2="203.469" y2="1603.7" gradientUnits="userSpaceOnUse">
<stop stop-color="#40B9FD"/>
<stop offset="0.9965" stop-color="#2057CD"/>
</linearGradient>
<linearGradient id="paint99_linear_104_315" x1="229.673" y1="62.7517" x2="221.974" y2="1603.8" gradientUnits="userSpaceOnUse">
<stop stop-color="#40B9FD"/>
<stop offset="0.9965" stop-color="#2057CD"/>
</linearGradient>
<linearGradient id="paint100_linear_104_315" x1="292.754" y1="63.0797" x2="285.056" y2="1604.11" gradientUnits="userSpaceOnUse">
<stop stop-color="#40B9FD"/>
<stop offset="0.9965" stop-color="#2057CD"/>
</linearGradient>
<linearGradient id="paint101_linear_104_315" x1="166.591" y1="62.4404" x2="158.892" y2="1603.48" gradientUnits="userSpaceOnUse">
<stop stop-color="#40B9FD"/>
<stop offset="0.9965" stop-color="#2057CD"/>
</linearGradient>
<linearGradient id="paint102_linear_104_315" x1="304.006" y1="63.1003" x2="296.335" y2="1604.17" gradientUnits="userSpaceOnUse">
<stop stop-color="#40B9FD"/>
<stop offset="0.9965" stop-color="#2057CD"/>
</linearGradient>
<linearGradient id="paint103_linear_104_315" x1="336.431" y1="63.2814" x2="328.732" y2="1604.33" gradientUnits="userSpaceOnUse">
<stop stop-color="#40B9FD"/>
<stop offset="0.9965" stop-color="#2057CD"/>
</linearGradient>
<linearGradient id="paint104_linear_104_315" x1="271.535" y1="62.963" x2="263.837" y2="1604" gradientUnits="userSpaceOnUse">
<stop stop-color="#40B9FD"/>
<stop offset="0.9965" stop-color="#2057CD"/>
</linearGradient>
<linearGradient id="paint105_linear_104_315" x1="199.329" y1="62.5788" x2="191.66" y2="1603.65" gradientUnits="userSpaceOnUse">
<stop stop-color="#40B9FD"/>
<stop offset="0.9965" stop-color="#2057CD"/>
</linearGradient>
<linearGradient id="paint106_linear_104_315" x1="212.924" y1="62.6676" x2="205.225" y2="1603.71" gradientUnits="userSpaceOnUse">
<stop stop-color="#40B9FD"/>
<stop offset="0.9965" stop-color="#2057CD"/>
</linearGradient>
<linearGradient id="paint107_linear_104_315" x1="185.688" y1="62.537" x2="177.99" y2="1603.57" gradientUnits="userSpaceOnUse">
<stop stop-color="#40B9FD"/>
<stop offset="0.9965" stop-color="#2057CD"/>
</linearGradient>
<linearGradient id="paint108_linear_104_315" x1="462.706" y1="63.918" x2="455.007" y2="1604.96" gradientUnits="userSpaceOnUse">
<stop stop-color="#40B9FD"/>
<stop offset="0.9965" stop-color="#2057CD"/>
</linearGradient>
<linearGradient id="paint109_linear_104_315" x1="587.902" y1="64.5385" x2="580.203" y2="1605.58" gradientUnits="userSpaceOnUse">
<stop stop-color="#40B9FD"/>
<stop offset="0.9965" stop-color="#2057CD"/>
</linearGradient>
<linearGradient id="paint110_linear_104_315" x1="337.511" y1="63.285" x2="329.812" y2="1604.34" gradientUnits="userSpaceOnUse">
<stop stop-color="#40B9FD"/>
<stop offset="0.9965" stop-color="#2057CD"/>
</linearGradient>
<linearGradient id="paint111_linear_104_315" x1="542.73" y1="64.3178" x2="535.031" y2="1605.36" gradientUnits="userSpaceOnUse">
<stop stop-color="#40B9FD"/>
<stop offset="0.9965" stop-color="#2057CD"/>
</linearGradient>
<linearGradient id="paint112_linear_104_315" x1="633.012" y1="64.7651" x2="625.314" y2="1605.81" gradientUnits="userSpaceOnUse">
<stop stop-color="#40B9FD"/>
<stop offset="0.9965" stop-color="#2057CD"/>
</linearGradient>
<linearGradient id="paint113_linear_104_315" x1="452.447" y1="63.8665" x2="444.748" y2="1604.91" gradientUnits="userSpaceOnUse">
<stop stop-color="#40B9FD"/>
<stop offset="0.9965" stop-color="#2057CD"/>
</linearGradient>
<linearGradient id="paint114_linear_104_315" x1="556.86" y1="64.3886" x2="549.161" y2="1605.43" gradientUnits="userSpaceOnUse">
<stop stop-color="#40B9FD"/>
<stop offset="0.9965" stop-color="#2057CD"/>
</linearGradient>
<linearGradient id="paint115_linear_104_315" x1="746.327" y1="65.3322" x2="738.629" y2="1606.38" gradientUnits="userSpaceOnUse">
<stop stop-color="#40B9FD"/>
<stop offset="0.9965" stop-color="#2057CD"/>
</linearGradient>
<linearGradient id="paint116_linear_104_315" x1="367.392" y1="63.4461" x2="359.694" y2="1604.48" gradientUnits="userSpaceOnUse">
<stop stop-color="#40B9FD"/>
<stop offset="0.9965" stop-color="#2057CD"/>
</linearGradient>
<linearGradient id="paint117_linear_104_315" x1="652.172" y1="64.884" x2="644.446" y2="1605.9" gradientUnits="userSpaceOnUse">
<stop stop-color="#40B9FD"/>
<stop offset="0.9965" stop-color="#2057CD"/>
</linearGradient>
<linearGradient id="paint118_linear_104_315" x1="707.401" y1="65.1373" x2="699.702" y2="1606.18" gradientUnits="userSpaceOnUse">
<stop stop-color="#40B9FD"/>
<stop offset="0.9965" stop-color="#2057CD"/>
</linearGradient>
<linearGradient id="paint119_linear_104_315" x1="596.983" y1="64.5912" x2="589.284" y2="1605.63" gradientUnits="userSpaceOnUse">
<stop stop-color="#40B9FD"/>
<stop offset="0.9965" stop-color="#2057CD"/>
</linearGradient>
<linearGradient id="paint120_linear_104_315" x1="597.885" y1="64.5928" x2="590.187" y2="1605.63" gradientUnits="userSpaceOnUse">
<stop stop-color="#40B9FD"/>
<stop offset="0.9965" stop-color="#2057CD"/>
</linearGradient>
<linearGradient id="paint121_linear_104_315" x1="717.429" y1="65.1929" x2="709.73" y2="1606.23" gradientUnits="userSpaceOnUse">
<stop stop-color="#40B9FD"/>
<stop offset="0.9965" stop-color="#2057CD"/>
</linearGradient>
<linearGradient id="paint122_linear_104_315" x1="478.341" y1="63.9976" x2="470.643" y2="1605.04" gradientUnits="userSpaceOnUse">
<stop stop-color="#40B9FD"/>
<stop offset="0.9965" stop-color="#2057CD"/>
</linearGradient>
<linearGradient id="paint123_linear_104_315" x1="336.431" y1="63.2858" x2="328.732" y2="1604.33" gradientUnits="userSpaceOnUse">
<stop stop-color="#40B9FD"/>
<stop offset="0.9965" stop-color="#2057CD"/>
</linearGradient>
<linearGradient id="paint124_linear_104_315" x1="413.793" y1="63.6687" x2="406.095" y2="1604.72" gradientUnits="userSpaceOnUse">
<stop stop-color="#40B9FD"/>
<stop offset="0.9965" stop-color="#2057CD"/>
</linearGradient>
<linearGradient id="paint125_linear_104_315" x1="259.597" y1="62.9132" x2="251.899" y2="1603.94" gradientUnits="userSpaceOnUse">
<stop stop-color="#40B9FD"/>
<stop offset="0.9965" stop-color="#2057CD"/>
</linearGradient>
<linearGradient id="paint126_linear_104_315" x1="383.954" y1="63.5219" x2="376.255" y2="1604.56" gradientUnits="userSpaceOnUse">
<stop stop-color="#40B9FD"/>
<stop offset="0.9965" stop-color="#2057CD"/>
</linearGradient>
<linearGradient id="paint127_linear_104_315" x1="449.021" y1="63.8497" x2="441.322" y2="1604.89" gradientUnits="userSpaceOnUse">
<stop stop-color="#40B9FD"/>
<stop offset="0.9965" stop-color="#2057CD"/>
</linearGradient>
<linearGradient id="paint128_linear_104_315" x1="318.887" y1="63.2006" x2="311.188" y2="1604.24" gradientUnits="userSpaceOnUse">
<stop stop-color="#40B9FD"/>
<stop offset="0.9965" stop-color="#2057CD"/>
</linearGradient>
<linearGradient id="paint129_linear_104_315" x1="728.962" y1="65.2518" x2="721.263" y2="1606.29" gradientUnits="userSpaceOnUse">
<stop stop-color="#40B9FD"/>
<stop offset="0.9965" stop-color="#2057CD"/>
</linearGradient>
<linearGradient id="paint130_linear_104_315" x1="896.346" y1="66.0828" x2="888.647" y2="1607.13" gradientUnits="userSpaceOnUse">
<stop stop-color="#40B9FD"/>
<stop offset="0.9965" stop-color="#2057CD"/>
</linearGradient>
<linearGradient id="paint131_linear_104_315" x1="561.578" y1="64.4123" x2="553.879" y2="1605.45" gradientUnits="userSpaceOnUse">
<stop stop-color="#40B9FD"/>
<stop offset="0.9965" stop-color="#2057CD"/>
</linearGradient>
<linearGradient id="paint132_linear_104_315" x1="648.816" y1="64.8475" x2="641.116" y2="1605.89" gradientUnits="userSpaceOnUse">
<stop stop-color="#40B9FD"/>
<stop offset="0.9965" stop-color="#2057CD"/>
</linearGradient>
<linearGradient id="paint133_linear_104_315" x1="688.452" y1="65.0457" x2="680.753" y2="1606.09" gradientUnits="userSpaceOnUse">
<stop stop-color="#40B9FD"/>
<stop offset="0.9965" stop-color="#2057CD"/>
</linearGradient>
<linearGradient id="paint134_linear_104_315" x1="609.178" y1="64.6494" x2="601.48" y2="1605.69" gradientUnits="userSpaceOnUse">
<stop stop-color="#40B9FD"/>
<stop offset="0.9965" stop-color="#2057CD"/>
</linearGradient>
<linearGradient id="paint135_linear_104_315" x1="424.665" y1="63.7272" x2="416.961" y2="1604.77" gradientUnits="userSpaceOnUse">
<stop stop-color="#40B9FD"/>
<stop offset="0.9965" stop-color="#2057CD"/>
</linearGradient>
<linearGradient id="paint136_linear_104_315" x1="447.676" y1="63.8419" x2="439.977" y2="1604.89" gradientUnits="userSpaceOnUse">
<stop stop-color="#40B9FD"/>
<stop offset="0.9965" stop-color="#2057CD"/>
</linearGradient>
<linearGradient id="paint137_linear_104_315" x1="401.658" y1="63.6132" x2="393.959" y2="1604.65" gradientUnits="userSpaceOnUse">
<stop stop-color="#40B9FD"/>
<stop offset="0.9965" stop-color="#2057CD"/>
</linearGradient>
<linearGradient id="paint138_linear_104_315" x1="659.47" y1="64.9008" x2="651.771" y2="1605.94" gradientUnits="userSpaceOnUse">
<stop stop-color="#40B9FD"/>
<stop offset="0.9965" stop-color="#2057CD"/>
</linearGradient>
<linearGradient id="paint139_linear_104_315" x1="689.338" y1="65.0499" x2="681.639" y2="1606.09" gradientUnits="userSpaceOnUse">
<stop stop-color="#40B9FD"/>
<stop offset="0.9965" stop-color="#2057CD"/>
</linearGradient>
<linearGradient id="paint140_linear_104_315" x1="629.603" y1="64.7516" x2="621.904" y2="1605.79" gradientUnits="userSpaceOnUse">
<stop stop-color="#40B9FD"/>
<stop offset="0.9965" stop-color="#2057CD"/>
</linearGradient>
<linearGradient id="paint141_linear_104_315" x1="532.812" y1="64.2677" x2="525.113" y2="1605.31" gradientUnits="userSpaceOnUse">
<stop stop-color="#40B9FD"/>
<stop offset="0.9965" stop-color="#2057CD"/>
</linearGradient>
<linearGradient id="paint142_linear_104_315" x1="556.197" y1="64.3844" x2="548.499" y2="1605.43" gradientUnits="userSpaceOnUse">
<stop stop-color="#40B9FD"/>
<stop offset="0.9965" stop-color="#2057CD"/>
</linearGradient>
<linearGradient id="paint143_linear_104_315" x1="509.429" y1="64.1534" x2="501.73" y2="1605.19" gradientUnits="userSpaceOnUse">
<stop stop-color="#40B9FD"/>
<stop offset="0.9965" stop-color="#2057CD"/>
</linearGradient>
<linearGradient id="paint144_linear_104_315" x1="439.043" y1="63.7996" x2="431.345" y2="1604.84" gradientUnits="userSpaceOnUse">
<stop stop-color="#40B9FD"/>
<stop offset="0.9965" stop-color="#2057CD"/>
</linearGradient>
<linearGradient id="paint145_linear_104_315" x1="470.143" y1="63.9552" x2="462.444" y2="1604.99" gradientUnits="userSpaceOnUse">
<stop stop-color="#40B9FD"/>
<stop offset="0.9965" stop-color="#2057CD"/>
</linearGradient>
<linearGradient id="paint146_linear_104_315" x1="407.941" y1="63.6445" x2="400.243" y2="1604.68" gradientUnits="userSpaceOnUse">
<stop stop-color="#40B9FD"/>
<stop offset="0.9965" stop-color="#2057CD"/>
</linearGradient>
<linearGradient id="paint147_linear_104_315" x1="21.8439" y1="61.7154" x2="14.1452" y2="1602.76" gradientUnits="userSpaceOnUse">
<stop stop-color="#40B9FD"/>
<stop offset="0.9965" stop-color="#2057CD"/>
</linearGradient>
<linearGradient id="paint148_linear_104_315" x1="7.06766" y1="61.6417" x2="-0.631044" y2="1602.68" gradientUnits="userSpaceOnUse">
<stop stop-color="#40B9FD"/>
<stop offset="0.9965" stop-color="#2057CD"/>
</linearGradient>
<linearGradient id="paint149_linear_104_315" x1="36.6195" y1="61.79" x2="28.9208" y2="1602.83" gradientUnits="userSpaceOnUse">
<stop stop-color="#40B9FD"/>
<stop offset="0.9965" stop-color="#2057CD"/>
</linearGradient>
<linearGradient id="paint150_linear_104_315" x1="234.848" y1="62.7798" x2="227.15" y2="1603.82" gradientUnits="userSpaceOnUse">
<stop stop-color="#40B9FD"/>
<stop offset="0.9965" stop-color="#2057CD"/>
</linearGradient>
<linearGradient id="paint151_linear_104_315" x1="287.49" y1="63.0427" x2="279.791" y2="1604.08" gradientUnits="userSpaceOnUse">
<stop stop-color="#40B9FD"/>
<stop offset="0.9965" stop-color="#2057CD"/>
</linearGradient>
<linearGradient id="paint152_linear_104_315" x1="181.673" y1="62.514" x2="173.974" y2="1603.56" gradientUnits="userSpaceOnUse">
<stop stop-color="#40B9FD"/>
<stop offset="0.9965" stop-color="#2057CD"/>
</linearGradient>
<linearGradient id="paint153_linear_104_315" x1="682.542" y1="65.0133" x2="674.843" y2="1606.06" gradientUnits="userSpaceOnUse">
<stop stop-color="#40B9FD"/>
<stop offset="0.9965" stop-color="#2057CD"/>
</linearGradient>
<linearGradient id="paint154_linear_104_315" x1="855.788" y1="65.8817" x2="848.089" y2="1606.92" gradientUnits="userSpaceOnUse">
<stop stop-color="#40B9FD"/>
<stop offset="0.9965" stop-color="#2057CD"/>
</linearGradient>
<linearGradient id="paint155_linear_104_315" x1="509.296" y1="64.1498" x2="501.597" y2="1605.19" gradientUnits="userSpaceOnUse">
<stop stop-color="#40B9FD"/>
<stop offset="0.9965" stop-color="#2057CD"/>
</linearGradient>
<linearGradient id="paint156_linear_104_315" x1="633.327" y1="64.7706" x2="625.628" y2="1605.81" gradientUnits="userSpaceOnUse">
<stop stop-color="#40B9FD"/>
<stop offset="0.9965" stop-color="#2057CD"/>
</linearGradient>
<linearGradient id="paint157_linear_104_315" x1="716.409" y1="65.188" x2="708.71" y2="1606.23" gradientUnits="userSpaceOnUse">
<stop stop-color="#40B9FD"/>
<stop offset="0.9965" stop-color="#2057CD"/>
</linearGradient>
<linearGradient id="paint158_linear_104_315" x1="550.245" y1="64.3579" x2="542.546" y2="1605.4" gradientUnits="userSpaceOnUse">
<stop stop-color="#40B9FD"/>
<stop offset="0.9965" stop-color="#2057CD"/>
</linearGradient>
<linearGradient id="paint159_linear_104_315" x1="331.895" y1="63.2633" x2="324.196" y2="1604.3" gradientUnits="userSpaceOnUse">
<stop stop-color="#40B9FD"/>
<stop offset="0.9965" stop-color="#2057CD"/>
</linearGradient>
<linearGradient id="paint160_linear_104_315" x1="448.405" y1="63.8455" x2="440.706" y2="1604.89" gradientUnits="userSpaceOnUse">
<stop stop-color="#40B9FD"/>
<stop offset="0.9965" stop-color="#2057CD"/>
</linearGradient>
<linearGradient id="paint161_linear_104_315" x1="215.385" y1="62.678" x2="207.686" y2="1603.72" gradientUnits="userSpaceOnUse">
<stop stop-color="#40B9FD"/>
<stop offset="0.9965" stop-color="#2057CD"/>
</linearGradient>
<linearGradient id="paint162_linear_104_315" x1="152.7" y1="62.3674" x2="145.001" y2="1603.41" gradientUnits="userSpaceOnUse">
<stop stop-color="#40B9FD"/>
<stop offset="0.9965" stop-color="#2057CD"/>
</linearGradient>
<linearGradient id="paint163_linear_104_315" x1="152.803" y1="62.3756" x2="145.104" y2="1603.41" gradientUnits="userSpaceOnUse">
<stop stop-color="#40B9FD"/>
<stop offset="0.9965" stop-color="#2057CD"/>
</linearGradient>
<linearGradient id="paint164_linear_104_315" x1="152.597" y1="62.3617" x2="144.898" y2="1603.41" gradientUnits="userSpaceOnUse">
<stop stop-color="#40B9FD"/>
<stop offset="0.9965" stop-color="#2057CD"/>
</linearGradient>
<linearGradient id="paint165_linear_104_315" x1="396.276" y1="63.606" x2="388.551" y2="1604.62" gradientUnits="userSpaceOnUse">
<stop stop-color="#40B9FD"/>
<stop offset="0.9965" stop-color="#2057CD"/>
</linearGradient>
<linearGradient id="paint166_linear_104_315" x1="431.732" y1="63.7681" x2="424.033" y2="1604.8" gradientUnits="userSpaceOnUse">
<stop stop-color="#40B9FD"/>
<stop offset="0.9965" stop-color="#2057CD"/>
</linearGradient>
<linearGradient id="paint167_linear_104_315" x1="360.863" y1="63.4054" x2="353.164" y2="1604.45" gradientUnits="userSpaceOnUse">
<stop stop-color="#40B9FD"/>
<stop offset="0.9965" stop-color="#2057CD"/>
</linearGradient>
<linearGradient id="paint168_linear_104_315" x1="590.549" y1="64.5344" x2="582.879" y2="1605.6" gradientUnits="userSpaceOnUse">
<stop stop-color="#40B9FD"/>
<stop offset="0.9965" stop-color="#2057CD"/>
</linearGradient>
<linearGradient id="paint169_linear_104_315" x1="639.39" y1="64.7959" x2="631.692" y2="1605.84" gradientUnits="userSpaceOnUse">
<stop stop-color="#40B9FD"/>
<stop offset="0.9965" stop-color="#2057CD"/>
</linearGradient>
<linearGradient id="paint170_linear_104_315" x1="541.664" y1="64.312" x2="533.965" y2="1605.35" gradientUnits="userSpaceOnUse">
<stop stop-color="#40B9FD"/>
<stop offset="0.9965" stop-color="#2057CD"/>
</linearGradient>
<linearGradient id="paint171_linear_104_315" x1="413.67" y1="63.6965" x2="405.971" y2="1604.7" gradientUnits="userSpaceOnUse">
<stop stop-color="#40B9FD"/>
<stop offset="0.9965" stop-color="#2057CD"/>
</linearGradient>
<linearGradient id="paint172_linear_104_315" x1="442.194" y1="63.8135" x2="434.495" y2="1604.86" gradientUnits="userSpaceOnUse">
<stop stop-color="#40B9FD"/>
<stop offset="0.9965" stop-color="#2057CD"/>
</linearGradient>
<linearGradient id="paint173_linear_104_315" x1="385.145" y1="63.5347" x2="377.447" y2="1604.57" gradientUnits="userSpaceOnUse">
<stop stop-color="#40B9FD"/>
<stop offset="0.9965" stop-color="#2057CD"/>
</linearGradient>
<linearGradient id="paint174_linear_104_315" x1="143.074" y1="62.3213" x2="135.375" y2="1603.36" gradientUnits="userSpaceOnUse">
<stop stop-color="#40B9FD"/>
<stop offset="0.9965" stop-color="#2057CD"/>
</linearGradient>
<linearGradient id="paint175_linear_104_315" x1="161.607" y1="62.4159" x2="153.908" y2="1603.45" gradientUnits="userSpaceOnUse">
<stop stop-color="#40B9FD"/>
<stop offset="0.9965" stop-color="#2057CD"/>
</linearGradient>
<linearGradient id="paint176_linear_104_315" x1="125.023" y1="62.2243" x2="117.324" y2="1603.27" gradientUnits="userSpaceOnUse">
<stop stop-color="#40B9FD"/>
<stop offset="0.9965" stop-color="#2057CD"/>
</linearGradient>
<linearGradient id="paint177_linear_104_315" x1="472.789" y1="63.9678" x2="465.09" y2="1605.01" gradientUnits="userSpaceOnUse">
<stop stop-color="#40B9FD"/>
<stop offset="0.9965" stop-color="#2057CD"/>
</linearGradient>
<linearGradient id="paint178_linear_104_315" x1="536.616" y1="64.2877" x2="528.918" y2="1605.33" gradientUnits="userSpaceOnUse">
<stop stop-color="#40B9FD"/>
<stop offset="0.9965" stop-color="#2057CD"/>
</linearGradient>
<linearGradient id="paint179_linear_104_315" x1="408.962" y1="63.6464" x2="401.263" y2="1604.69" gradientUnits="userSpaceOnUse">
<stop stop-color="#40B9FD"/>
<stop offset="0.9965" stop-color="#2057CD"/>
</linearGradient>
<linearGradient id="paint180_linear_104_315" x1="674.985" y1="64.9783" x2="667.286" y2="1606.02" gradientUnits="userSpaceOnUse">
<stop stop-color="#40B9FD"/>
<stop offset="0.9965" stop-color="#2057CD"/>
</linearGradient>
<linearGradient id="paint181_linear_104_315" x1="742.261" y1="65.3151" x2="734.562" y2="1606.36" gradientUnits="userSpaceOnUse">
<stop stop-color="#40B9FD"/>
<stop offset="0.9965" stop-color="#2057CD"/>
</linearGradient>
<linearGradient id="paint182_linear_104_315" x1="607.708" y1="64.6437" x2="600.01" y2="1605.68" gradientUnits="userSpaceOnUse">
<stop stop-color="#40B9FD"/>
<stop offset="0.9965" stop-color="#2057CD"/>
</linearGradient>
</defs>
</svg>
