<svg width="87" height="87" viewBox="0 0 87 87" fill="none" xmlns="http://www.w3.org/2000/svg">
<g clip-path="url(#clip0_116_16274)">
<path d="M43.4999 87.0004C67.5242 87.0004 86.9998 67.5247 86.9998 43.5002C86.9998 19.4757 67.5242 0 43.4999 0C19.4756 0 0 19.4757 0 43.5002C0 67.5247 19.4756 87.0004 43.4999 87.0004Z" fill="#FFCE00"/>
<path d="M66.5975 28.4515C66.5975 29.7963 66.3193 31.0454 65.8339 32.0863C65.5227 32.7562 64.6717 33.0468 64.0794 32.6085C63.4379 32.1354 62.7066 31.8694 61.9312 31.8694C61.1651 31.8694 60.4392 32.1339 59.7987 32.6085C59.2068 33.0468 58.3529 32.7562 58.0432 32.0863C57.5568 31.0454 57.2781 29.7963 57.2781 28.4515C57.2781 24.806 59.3639 21.842 61.9312 21.842C64.5113 21.842 66.5975 24.806 66.5975 28.4515Z" fill="#562912"/>
<path d="M29.7215 28.4515C29.7215 29.7963 29.4427 31.0454 28.9602 32.0863C28.6476 32.7562 27.7951 33.0468 27.2038 32.6085C26.5642 32.1354 25.8315 31.8694 25.057 31.8694C24.2909 31.8694 23.5621 32.1339 22.9231 32.6085C22.3317 33.0468 21.4777 32.7562 21.1666 32.0863C20.6827 31.0454 20.4039 29.7963 20.4039 28.4515C20.4039 24.806 22.4883 21.842 25.057 21.842C27.6371 21.842 29.7215 24.806 29.7215 28.4515Z" fill="#562912"/>
<path d="M21.384 45.4524C20.0952 45.4524 19.2058 46.6901 19.5485 47.9324C21.8247 56.2276 31.663 62.4724 43.4875 62.4724C55.3846 62.4724 65.2724 56.1476 67.4686 47.7753C67.7793 46.593 66.8193 45.4524 65.5959 45.4524H21.384Z" fill="#562912"/>
<path d="M43.4855 48.7024C49.9398 48.7024 55.8572 47.4818 60.554 45.4514H26.4135C31.1104 47.4818 37.0293 48.7024 43.4855 48.7024Z" fill="white"/>
<path d="M43.8938 57.9539C40.4638 57.9539 37.3796 59.2794 35.1947 61.3947C37.7831 62.0892 40.5741 62.4725 43.4875 62.4725C46.6403 62.4725 49.6424 62.0161 52.408 61.2083C50.2338 59.1999 47.2238 57.9539 43.8938 57.9539Z" fill="#CC342F"/>
</g>
<defs>
<clipPath id="clip0_116_16274">
<rect width="87" height="87" fill="white"/>
</clipPath>
</defs>
</svg>
