<svg width="125" height="125" viewBox="0 0 125 125" fill="none" xmlns="http://www.w3.org/2000/svg">
<path d="M63.4999 107C87.5242 107 107 87.5247 107 63.5002C107 39.4757 87.5242 20 63.4999 20C39.4756 20 20 39.4757 20 63.5002C20 87.5247 39.4756 107 63.4999 107Z" fill="#FFCE00"/>
<path d="M86.5975 48.4513C86.5975 49.796 86.3193 51.0451 85.8339 52.086C85.5227 52.7559 84.6717 53.0465 84.0794 52.6083C83.4379 52.1352 82.7066 51.8691 81.9312 51.8691C81.1651 51.8691 80.4392 52.1337 79.7987 52.6083C79.2068 53.0465 78.3529 52.7559 78.0432 52.086C77.5568 51.0451 77.2781 49.796 77.2781 48.4513C77.2781 44.8057 79.3639 41.8418 81.9312 41.8418C84.5113 41.8418 86.5975 44.8057 86.5975 48.4513Z" fill="#562912"/>
<path d="M49.7215 48.4513C49.7215 49.796 49.4427 51.0451 48.9602 52.086C48.6476 52.7559 47.7951 53.0465 47.2038 52.6083C46.5642 52.1352 45.8315 51.8691 45.057 51.8691C44.2909 51.8691 43.5621 52.1337 42.9231 52.6083C42.3317 53.0465 41.4777 52.7559 41.1666 52.086C40.6827 51.0451 40.4039 49.796 40.4039 48.4513C40.4039 44.8057 42.4883 41.8418 45.057 41.8418C47.6371 41.8418 49.7215 44.8057 49.7215 48.4513Z" fill="#562912"/>
<path d="M41.384 65.4524C40.0952 65.4524 39.2058 66.6901 39.5485 67.9324C41.8247 76.2276 51.663 82.4724 63.4875 82.4724C75.3846 82.4724 85.2724 76.1476 87.4686 67.7753C87.7793 66.593 86.8193 65.4524 85.5959 65.4524H41.384Z" fill="#562912"/>
<path d="M63.4855 68.7024C69.9398 68.7024 75.8572 67.4818 80.554 65.4514H46.4135C51.1104 67.4818 57.0293 68.7024 63.4855 68.7024Z" fill="white"/>
<path d="M63.8938 77.9539C60.4638 77.9539 57.3796 79.2794 55.1947 81.3947C57.7831 82.0892 60.5741 82.4725 63.4875 82.4725C66.6403 82.4725 69.6424 82.0161 72.408 81.2083C70.2338 79.1999 67.2238 77.9539 63.8938 77.9539Z" fill="#CC342F"/>
<circle cx="63" cy="63" r="56" stroke="#00FFB9" stroke-width="2"/>
</svg>
