<svg width="87" height="87" viewBox="0 0 87 87" fill="none" xmlns="http://www.w3.org/2000/svg">
<g clip-path="url(#clip0_116_16290)">
<path d="M87 43.501C87 67.5262 67.526 87 43.4999 87C19.4739 87 0 67.5262 0 43.501C0 19.4757 19.475 0 43.4999 0C67.5249 0 87 19.4747 87 43.501Z" fill="#FFCE00"/>
<path d="M60.308 61.089C59.7883 61.089 59.2695 60.8996 58.8592 60.5188C55.3192 57.2216 50.5017 55.2957 45.2959 55.0955C39.5094 54.8766 34.0009 56.8437 30.1707 60.5011C29.3222 61.3128 27.9749 61.2795 27.1627 60.4304C26.3509 59.5813 26.3834 58.2336 27.2329 57.4238C31.8909 52.9772 38.5426 50.5743 45.4583 50.8443C51.6834 51.0828 57.4728 53.4111 61.7583 57.4041C62.6182 58.2061 62.6668 59.5528 61.8658 60.4117C61.4472 60.8613 60.8783 61.089 60.308 61.089Z" fill="#562912"/>
<path d="M70.7686 48.6415C70.6366 48.6415 70.5036 48.6238 70.3706 48.5835L61.1316 45.8871C60.5754 45.7242 60.173 45.2393 60.1181 44.6632C60.0616 44.0859 60.362 43.5333 60.8773 43.2653C60.8783 43.2643 68.0649 39.5491 70.216 38.4025C70.908 38.0315 71.7654 38.2946 72.135 38.9856C72.5036 39.6766 72.2415 40.5365 71.5505 40.9056C70.3416 41.5495 67.5496 43.0033 65.3248 44.1566L71.1657 45.8616C71.9171 46.0805 72.349 46.8677 72.1295 47.6197C71.949 48.2381 71.3836 48.6415 70.7686 48.6415Z" fill="#562912"/>
<path d="M18.6416 48.6415C18.0271 48.6415 17.4612 48.2381 17.2806 47.6197C17.0607 46.8677 17.4921 46.0805 18.2445 45.8616L24.0849 44.1566C21.8616 43.0033 19.0675 41.5495 17.8593 40.9056C17.1687 40.5365 16.9066 39.6766 17.2747 38.9856C17.6424 38.2946 18.4977 38.0315 19.1942 38.4025C21.3458 39.5491 28.5324 43.2653 28.5324 43.2653C29.0477 43.5333 29.349 44.085 29.2927 44.6632C29.2367 45.2393 28.8352 45.7242 28.2787 45.8871L19.0391 48.5835C18.9071 48.6238 18.7731 48.6415 18.6416 48.6415Z" fill="#562912"/>
<path d="M72.8649 33.5301C72.7932 33.5301 72.7205 33.5242 72.648 33.5134C65.5761 32.4229 62.0234 26.6865 61.8767 26.442C61.4698 25.7726 61.6838 24.902 62.3527 24.4946C63.0236 24.0863 63.8927 24.3012 64.2996 24.9707C64.3541 25.0561 67.37 29.8286 73.0799 30.709C73.8538 30.8298 74.3843 31.5532 74.2655 32.3277C74.1566 33.0295 73.5535 33.5301 72.8649 33.5301Z" fill="#562912"/>
<path d="M16.5455 33.5301C15.8569 33.5301 15.2532 33.0294 15.1443 32.3276C15.025 31.5532 15.5571 30.8298 16.3305 30.7089C22.109 29.8177 25.0798 25.0197 25.1092 24.9707C25.5136 24.3011 26.3834 24.0852 27.0572 24.4945C27.7266 24.9019 27.9401 25.7726 27.5337 26.442C27.387 26.6865 23.8341 32.4228 16.7624 33.5134C16.6898 33.5242 16.6171 33.5301 16.5455 33.5301Z" fill="#562912"/>
</g>
<defs>
<clipPath id="clip0_116_16290">
<rect width="87" height="87" fill="white"/>
</clipPath>
</defs>
</svg>
