<svg width="87" height="87" viewBox="0 0 87 87" fill="none" xmlns="http://www.w3.org/2000/svg">
<g clip-path="url(#clip0_116_17410)">
<path d="M87 43.5003C87 67.5264 67.5255 87 43.4994 87C19.4733 87 0 67.5264 0 43.5003C0 19.4742 19.4755 0 43.4994 0C67.5234 0 87 19.4756 87 43.5003Z" fill="#FFCE00"/>
<path d="M43.4985 69.9206C38.7133 69.9206 34.8322 66.0394 34.8322 61.2502V56.1676C34.8322 51.3795 38.7133 47.4973 43.4985 47.4973C48.2886 47.4973 52.1697 51.3795 52.1697 56.1676V61.2502C52.1697 66.0394 48.2886 69.9206 43.4985 69.9206Z" fill="#562912"/>
<path d="M67.5569 33.9176L61.8088 31.9087V81.773C66.0354 80.1387 69.9127 77.8095 73.304 74.9206V31.9087L67.5569 33.9176Z" fill="#61C0EB"/>
<path d="M19.444 33.9176L13.6979 31.9087V74.9206C17.0902 77.8095 20.9655 80.1387 25.1902 81.773V31.9087L19.444 33.9176Z" fill="#61C0EB"/>
<path d="M14.7462 31.0102C14.2947 30.731 13.6979 31.0475 13.6979 31.58V31.5928C13.6979 34.7662 16.2716 37.3379 19.444 37.3379C22.6184 37.3379 25.1902 34.7662 25.1902 31.5928V31.58C25.1902 31.0475 24.5953 30.731 24.1448 31.0102C22.7795 31.8543 21.1696 32.3437 19.444 32.3437C17.7214 32.3437 16.1116 31.8543 14.7462 31.0102Z" fill="#562912"/>
<path d="M62.8552 31.0102C62.4046 30.731 61.8118 31.0475 61.8088 31.58V31.5928C61.8088 34.7662 64.3815 37.3379 67.5569 37.3379C70.7323 37.3379 73.304 34.7662 73.304 31.5928V31.58C73.3001 31.0475 72.7102 30.731 72.2577 31.0102C70.8913 31.8543 69.2825 32.3437 67.5569 32.3437C65.8313 32.3437 64.2216 31.8543 62.8552 31.0102Z" fill="#562912"/>
<path d="M71.6609 25.4764C71.5883 25.4764 71.5157 25.4715 71.4421 25.4607C64.3718 24.3667 60.8204 18.6328 60.6742 18.389C60.2668 17.719 60.4808 16.8474 61.1512 16.4415C61.8206 16.0331 62.6874 16.2471 63.0977 16.915C63.1497 17.001 66.166 21.7739 71.8749 22.6564C72.6493 22.7756 73.1814 23.5015 73.0606 24.2739C72.9527 24.9758 72.349 25.4764 71.6609 25.4764Z" fill="#562912"/>
<path d="M15.3382 25.4765C14.651 25.4765 14.0464 24.9759 13.9384 24.274C13.8206 23.5016 14.3497 22.7756 15.1232 22.6564C20.8605 21.7705 23.8759 16.9627 23.9073 16.9147C24.3156 16.2491 25.1873 16.0376 25.8548 16.445C26.5212 16.8528 26.7352 17.7205 26.3308 18.389C26.1806 18.6329 22.6293 24.3668 15.558 25.4608C15.4844 25.4715 15.4107 25.4765 15.3382 25.4765Z" fill="#562912"/>
</g>
<defs>
<clipPath id="clip0_116_17410">
<rect width="87" height="87" fill="white"/>
</clipPath>
</defs>
</svg>
