<svg width="87" height="87" viewBox="0 0 87 87" fill="none" xmlns="http://www.w3.org/2000/svg">
<g clip-path="url(#clip0_116_16267)">
<path d="M87 43.5007C87 67.5254 67.5245 87 43.4994 87C19.4744 87 0 67.5254 0 43.5007C0 19.476 19.4745 0 43.4994 0C67.5244 0 87 19.4746 87 43.5007Z" fill="#FFCE00"/>
<path d="M70.112 18.5505C63.0172 5.02429 49.8886 14.6153 52.1875 24.7247C54.0024 32.6676 62.7197 43.9386 62.7197 43.9386C63.9762 43.4969 76.1232 39.1142 81.9174 33.3847C89.288 26.0954 83.3672 10.9536 70.112 18.5505Z" fill="#CC342F"/>
<path d="M16.8861 18.5505C23.9838 5.02429 37.1114 14.6153 34.8096 24.7247C32.9986 32.6676 24.2793 43.9386 24.2793 43.9386C23.0229 43.4969 10.8759 39.1142 5.08258 33.3847C-2.28806 26.0954 3.63288 10.9536 16.8861 18.5505Z" fill="#CC342F"/>
<path d="M27.6167 52.2403C26.5281 51.8801 25.5053 53.0594 25.8214 54.3193C27.6912 61.7478 34.8872 67.2855 43.4995 67.2855C52.1118 67.2855 59.3097 61.7478 61.1776 54.3193C61.4948 53.0594 60.4709 51.8801 59.3824 52.2403C54.607 53.824 49.2122 54.7163 43.4995 54.7163C37.7867 54.7163 32.394 53.824 27.6167 52.2403Z" fill="#562912"/>
<path d="M43.4995 59.7312C39.7116 59.7312 36.4548 62.036 35.0217 65.3335C37.5531 66.5738 40.435 67.2854 43.4995 67.2854C46.5669 67.2854 49.4478 66.5738 51.9764 65.3335C50.5433 62.036 47.2903 59.7312 43.4995 59.7312Z" fill="#CC342F"/>
</g>
<defs>
<clipPath id="clip0_116_16267">
<rect width="87" height="87" fill="white"/>
</clipPath>
</defs>
</svg>
